<?xml version="1.0" standalone="no"?>
<!DOCTYPE svg PUBLIC "-//W3C//DTD SVG 20010904//EN"
 "http://www.w3.org/TR/2001/REC-SVG-20010904/DTD/svg10.dtd">
<svg version="1.0" xmlns="http://www.w3.org/2000/svg"
 width="492.000000pt" height="469.000000pt" viewBox="0 0 492.000000 469.000000"
 preserveAspectRatio="xMidYMid meet">

<g transform="translate(0.000000,469.000000) scale(0.100000,-0.100000)"
fill="#000000" stroke="none">
<path d="M2104 4267 c-2 -7 -3 -89 -2 -182 l3 -170 353 -3 352 -2 -2 182 -3
183 -348 3 c-278 2 -349 0 -353 -11z"/>
<path d="M2179 3793 c-26 -68 -74 -126 -165 -193 -111 -84 -163 -142 -207
-230 l-32 -65 -3 -667 c-3 -583 -1 -676 13 -730 20 -80 52 -120 122 -155 l58
-28 521 0 521 0 36 28 c48 36 65 63 83 129 11 43 14 178 14 726 l0 672 -30 66
c-42 94 -89 152 -198 250 -73 65 -106 103 -135 155 l-39 69 -274 0 -274 0 -11
-27z m733 -530 l28 -27 0 -592 0 -593 -33 -25 -34 -26 -405 0 -404 0 -30 31
-29 30 0 584 0 584 29 30 30 31 410 0 410 0 28 -27z"/>
<path d="M2369 3144 c-55 -36 -75 -114 -45 -172 24 -45 308 -320 339 -327 46
-12 99 2 130 33 36 37 47 104 24 148 -9 16 -83 96 -166 178 l-149 149 -54 4
c-38 3 -61 -1 -79 -13z m183 -101 l79 -78 -64 -63 -63 -63 -77 80 c-68 69 -77
83 -77 115 0 50 36 86 86 86 32 0 46 -9 116 -77z"/>
<path d="M2152 2880 c-56 -34 -62 -64 -62 -300 0 -161 3 -217 14 -238 45 -86
145 -101 212 -31 l29 30 3 229 c3 194 1 234 -13 260 -34 65 -119 89 -183 50z
m129 -49 c29 -29 29 -31 29 -140 l0 -111 -90 0 -90 0 0 111 c0 109 0 111 29
140 20 20 39 29 61 29 22 0 41 -9 61 -29z"/>
<path d="M2664 2541 c-21 -15 -98 -89 -171 -163 -145 -148 -159 -174 -131
-246 21 -55 71 -85 132 -79 47 4 51 8 207 163 177 177 194 203 168 271 -32 82
-131 108 -205 54z m139 -31 c33 -26 43 -70 23 -107 -8 -15 -44 -57 -80 -93
l-66 -65 -65 66 -66 65 80 77 c67 66 84 77 114 77 19 0 45 -9 60 -20z"/>
<path d="M820 1350 c-13 -8 -15 -66 -15 -389 0 -347 2 -382 17 -398 26 -25
183 -31 242 -9 76 29 81 41 111 272 16 126 7 347 -18 406 -22 52 -78 95 -139
106 -82 16 -182 22 -198 12z m180 -140 c10 -5 26 -31 36 -57 16 -40 19 -77 18
-218 0 -190 -8 -230 -55 -270 -41 -34 -77 -33 -85 2 -8 30 2 444 12 511 6 36
10 42 31 42 13 0 33 -4 43 -10z"/>
<path d="M1470 1337 c-21 -10 -29 -29 -53 -122 -34 -134 -106 -548 -109 -630
l-3 -60 41 -3 c52 -4 60 6 80 104 9 43 21 82 28 86 6 4 38 8 71 8 l60 0 18
-78 c21 -95 32 -111 77 -118 69 -10 68 -15 21 293 -42 271 -85 505 -96 524 -9
13 -106 11 -135 -4z m81 -363 c10 -70 18 -129 16 -130 -1 -1 -23 -5 -49 -9
-43 -6 -48 -5 -48 11 0 26 54 264 58 259 3 -2 13 -61 23 -131z"/>
<path d="M2109 1323 c-5 -15 -20 -89 -31 -165 -12 -76 -25 -138 -29 -138 -9 0
-28 101 -38 207 -4 49 -11 95 -15 102 -9 14 -136 15 -136 1 0 -26 54 -370 80
-515 50 -272 50 -273 74 -279 37 -10 83 -6 95 8 6 7 23 87 37 177 14 90 27
165 28 167 2 1 11 -46 20 -105 25 -157 46 -241 59 -246 7 -2 32 -1 57 2 56 8
55 3 108 306 55 310 75 453 68 481 -6 22 -12 24 -66 24 -54 0 -60 -2 -64 -22
-2 -13 -12 -77 -22 -143 -26 -183 -27 -184 -53 -80 -12 50 -31 125 -43 168
l-20 77 -49 0 c-45 0 -51 -3 -60 -27z"/>
<path d="M2782 1343 c-12 -2 -26 -12 -31 -21 -36 -70 -151 -709 -142 -789 0
-8 16 -13 41 -13 50 0 64 20 81 115 7 39 18 73 23 77 6 4 39 8 73 8 l61 0 18
-80 c13 -62 23 -86 42 -100 28 -23 61 -26 84 -7 15 11 14 24 -8 157 -13 80
-39 243 -59 363 -20 120 -41 235 -48 255 -12 36 -14 37 -62 38 -27 1 -60 0
-73 -3z m72 -369 c9 -69 16 -127 14 -129 -2 -1 -24 -7 -50 -13 -35 -7 -48 -6
-48 2 0 24 55 266 61 266 3 0 14 -57 23 -126z"/>
<path d="M3580 1341 c-22 -6 -28 -19 -52 -111 -33 -125 -121 -638 -116 -677 3
-25 8 -28 44 -31 25 -2 45 2 51 10 6 7 18 49 27 93 9 43 22 83 29 87 6 5 38 7
71 6 l59 -3 21 -85 c18 -73 25 -87 49 -98 17 -8 40 -11 59 -7 36 8 39 -37 -26
370 -51 320 -72 423 -87 442 -12 14 -85 16 -129 4z m75 -339 c24 -159 24 -158
-35 -169 -27 -6 -50 -8 -50 -5 0 2 14 65 30 139 17 73 30 137 30 140 0 4 2 4
5 2 2 -3 11 -51 20 -107z"/>
<path d="M3983 1323 c-16 -11 -23 -737 -7 -753 6 -6 27 -13 46 -16 28 -5 40
-2 58 16 l21 21 -6 332 c-4 183 -10 348 -14 367 -6 32 -10 35 -46 38 -22 1
-45 -1 -52 -5z"/>
<path d="M3166 635 c-21 -56 16 -125 68 -125 41 0 57 26 54 84 l-3 51 -56 3
c-45 2 -58 0 -63 -13z"/>
</g>
</svg>
