<?xml version="1.0" encoding="UTF-8" standalone="no"?>
<!-- Created with Inkscape (http://www.inkscape.org/) -->

<svg
   width="596.71649mm"
   height="641.71997mm"
   viewBox="0 0 596.71649 641.71997"
   version="1.1"
   id="svg5"
   xml:space="preserve"
   xmlns="http://www.w3.org/2000/svg"
   xmlns:svg="http://www.w3.org/2000/svg"><defs
     id="defs2" /><g
     id="layer1"
     transform="translate(381.32445,505.79299)"><g
       transform="matrix(0.03527778,0,0,-0.03527778,-997.38898,835.4472)"
       id="g12"><g
         id="g10257"><g
           transform="scale(2.34179)"
           id="g726"><path
             id="path728"
             style="fill:#a6e2f8;fill-opacity:1;fill-rule:nonzero;stroke:none"
             d="m 10642.1,16228.4 c 1137.8,-99.2 1982.5,-769.5 2762.5,-1607.8 704.3,-756.9 1269.7,-1983.3 1275.6,-3076.1 3.6,-653.6 -227,-1296.4 -859.6,-1405 -1079.3,-185.11 -1185.4,-340.29 -1259.4,-967.16 -161.1,-1364.43 -4217.97,-229.74 -4917.69,1526.06 -192.38,482.6 -353.62,1060.3 147.88,1333.5 317.87,173.2 541.55,150.7 615.42,556.3 143.1,785.8 -48.38,1587.2 204.55,2369.2 272.69,843.1 1208.81,1342.6 2030.74,1271" /></g><g
           transform="scale(2.00132)"
           id="g730"><path
             id="path732"
             style="fill:#76c19c;fill-opacity:1;fill-rule:nonzero;stroke:none"
             d="m 16300,10425.3 c 0,-285.7 -1499,-517.38 -3348.2,-517.38 -1849.2,0 -3348.23,231.68 -3348.23,517.38 0,285.8 1499.03,517.4 3348.23,517.4 1849.2,0 3348.2,-231.6 3348.2,-517.4" /></g><g
           transform="scale(1.97399)"
           id="g734"><path
             id="path736"
             style="fill:#58c59d;fill-opacity:1;fill-rule:nonzero;stroke:none"
             d="m 14484.6,14388.4 c 0,-54.2 44.3,-98.5 98.5,-98.5 H 16141 c 54.2,0 98.5,44.3 98.5,98.5 v 1813.1 c 0,54.2 -44.3,98.5 -98.5,98.5 h -1557.9 c -54.2,0 -98.5,-44.3 -98.5,-98.5 v -1813.1" /></g><g
           transform="scale(1.96666)"
           id="g738"><path
             id="path740"
             style="fill:#2f635f;fill-opacity:1;fill-rule:nonzero;stroke:none"
             d="m 14538.6,13929.4 c 0,-54.4 44.5,-98.9 98.8,-98.9 h 1563.8 c 54.3,0 98.8,44.5 98.8,98.9 v 1819.9 c 0,54.3 -44.5,98.8 -98.8,98.8 h -1563.8 c -54.3,0 -98.8,-44.5 -98.8,-98.8 v -1819.9" /></g><g
           transform="scale(1.83652)"
           id="g742"><path
             id="path744"
             style="fill:#356e6a;fill-opacity:1;fill-rule:nonzero;stroke:none"
             d="m 15339.8,11300.7 c 0.5,40.6 53.3,98.7 117.3,129 l 476,211.5 c 105.3,-1.5 116.9,2.6 222.2,1.2 108.4,-100.1 144.7,-248.9 95.3,-361.5 l -911.1,1.8 c 0,5.8 0.2,11.7 0.3,18" /></g><g
           transform="scale(1.83094)"
           id="g746"><path
             id="path748"
             style="fill:#a9adab;fill-opacity:1;fill-rule:nonzero;stroke:none"
             d="m 16300,11315.3 c -8.7,-19.8 -19.7,-38.6 -33.7,-55.6 -310.5,4.3 -570.5,-3.1 -880.9,1.3 0,0 0.3,24 0.8,56.1 l 913.8,-1.8" /></g><g
           transform="scale(1.87588)"
           id="g750"><path
             id="path752"
             style="fill:#aa6e43;fill-opacity:1;fill-rule:nonzero;stroke:none"
             d="m 16300,14943.5 -776.9,-0.8 c -66.6,-290.4 -393,-1517.7 -422.5,-1907.7 -27.5,-362.8 175.5,-605.1 351.2,-1684.3 h 413.3 c 0,524.8 -10.8,1134.5 -230.7,1633.9 263.8,482.9 573.9,1085.7 662.9,1539.8 l 2.7,419.1" /></g><g
           transform="scale(1.91674)"
           id="g754"><path
             id="path756"
             style="fill:#356e6a;fill-opacity:1;fill-rule:nonzero;stroke:none"
             d="m 15821.3,10760.1 c 0,274.5 107.2,496.9 239.4,496.9 132.2,0 239.3,-222.4 239.3,-496.9 h -478.7" /></g><g
           transform="scale(1.91674)"
           id="g758"><path
             id="path760"
             style="fill:#cfcfcd;fill-opacity:1;fill-rule:nonzero;stroke:none"
             d="m 16300,10755.5 h -478.7 v 55 h 478.7 v -55" /></g><g
           transform="scale(1.94713)"
           id="g762"><path
             id="path764"
             style="fill:#cc7e4c;fill-opacity:1;fill-rule:nonzero;stroke:none"
             d="m 16193.7,14478.6 c 14.3,-101.6 106.3,-467.4 106.1,-1123.6 -0.1,-838 -147.4,-1648 -274.1,-2419.7 h -451.8 c 129.6,1692.7 -89.4,2107.7 0,2994.9 l -4.3,466.3 624.1,82.1" /></g><g
           transform="scale(1.90518)"
           id="g766"><path
             id="path768"
             style="fill:#f59a79;fill-opacity:1;fill-rule:nonzero;stroke:none"
             d="m 15025.8,15249.5 c 89.5,296.8 210.6,599.3 348.8,868.2 l -430.9,182.3 c -148.5,-318.2 -303.1,-861.4 -306.2,-1222.4 l 388.3,171.9" /></g><g
           transform="scale(2.00808)"
           id="g770"><path
             id="path772"
             style="fill:#f59a79;fill-opacity:1;fill-rule:nonzero;stroke:none"
             d="m 15932.1,14468.8 c -84.9,281.6 -199.8,568.6 -330.9,823.7 l 408.8,173 c 140.9,-301.9 287.1,-817.6 290,-1160.1 l -367.9,163.4" /></g><g
           transform="scale(1.9505)"
           id="g774"><path
             id="path776"
             style="fill:#fcd457;fill-opacity:1;fill-rule:nonzero;stroke:none"
             d="m 14830.5,14463.5 c -11.2,-108.7 -25.1,-217.4 -42,-326.1 503.9,-130 1007.7,-130 1511.5,0 -13.8,88.8 -25.3,177.7 -35.3,266.6 -356.3,-97.5 -1009.6,-132 -1434.2,59.5" /></g><g
           transform="scale(1.99452)"
           id="g778"><path
             id="path780"
             style="fill:#fcd457;fill-opacity:1;fill-rule:nonzero;stroke:none"
             d="m 14622.4,15266.9 c 20.9,-140 -74.6,-828.6 586,-848.7 660.6,-20 598.9,1128 605.8,1023.4 7,-104.5 160.3,-299.6 331.9,-282 51.4,20 102.6,39.9 153.9,59.9 -52.9,136.2 -105.9,272.4 -158.8,408.7 -25.3,64.9 -59.7,114.3 -99,150 -118.9,131.8 -450.4,226.8 -841,226.8 -418,0 -768.4,-108.7 -862.9,-255 -27.9,-32.3 -52.4,-72.5 -71.6,-121.8 -53,-136.3 -105.9,-272.5 -158.9,-408.7 71.6,-27.9 143.2,-55.7 214.8,-83.5 186.3,-72.4 237,54.7 299.8,130.9" /></g><g
           transform="scale(1.97569)"
           id="g782"><path
             id="path784"
             style="fill:#fabc3f;fill-opacity:1;fill-rule:nonzero;stroke:none"
             d="m 16300,15304.1 c -173.3,-17.8 -328,179.2 -335.1,284.7 -7,105.5 55.3,-1053.3 -611.6,-1033.2 -666.9,20.2 -570.5,715.5 -591.6,856.8 -63.4,-76.9 -114.5,-205.2 -302.6,-132.2 69.6,-27.1 139.3,-54.1 208.9,-81.2 13.8,-306.7 4.9,-613.3 -26.6,-920 419.2,-189 1064.1,-155 1415.9,-58.7 -36.6,325.5 -47.9,651 -33.4,976.5 92.1,35.7 184.1,71.5 276.1,107.3" /></g><g
           transform="scale(1.95797)"
           id="g786"><path
             id="path788"
             style="fill:#2f635f;fill-opacity:1;fill-rule:nonzero;stroke:none"
             d="m 15763.3,16300 c 96.6,-133.7 365,-1256.8 421.9,-1859.6 86.6,553.9 -66.7,1678.9 -163.4,1812.6 l -258.5,47" /></g><g
           transform="scale(1.95797)"
           id="g790"><path
             id="path792"
             style="fill:#2f635f;fill-opacity:1;fill-rule:nonzero;stroke:none"
             d="m 15212.1,16300 c -96.6,-133.7 -364.9,-1256.8 -421.9,-1859.6 -86.5,553.9 66.7,1678.9 163.4,1812.6 l 258.5,47" /></g><g
           transform="scale(1.85571)"
           id="g794"><path
             id="path796"
             style="fill:#f59a79;fill-opacity:1;fill-rule:nonzero;stroke:none"
             d="m 15997.5,15344.6 c -13.2,0 -25.5,8.2 -30,21.4 -22.1,63.4 39.7,158.9 109.7,202 26.1,16 59.4,28.9 91.5,41.4 28.4,11.1 57.9,22.5 78.5,34.9 15,9 34.6,4.2 43.7,-10.8 9.1,-15.1 4.2,-34.6 -10.8,-43.7 -25.3,-15.3 -57.4,-27.7 -88.4,-39.8 -29.4,-11.4 -59.9,-23.2 -81.1,-36.3 -55.7,-34.2 -91.1,-103.3 -83,-126.8 5.8,-16.6 -3,-34.7 -19.6,-40.6 -3.5,-1.1 -7,-1.7 -10.5,-1.7" /></g><g
           transform="scale(1.89323)"
           id="g798"><path
             id="path800"
             style="fill:#fabc3f;fill-opacity:1;fill-rule:nonzero;stroke:none"
             d="m 16296.9,14916 c 3.1,-18 -9.1,-32.7 -27.1,-32.7 h -376.4 c -18,0 -35.2,14.7 -38.2,32.7 l -126.2,741.3 c -3.1,18 9.1,32.7 27.1,32.7 h 376.4 c 18,0 35.2,-14.7 38.3,-32.7 l 126.1,-741.3" /></g><g
           transform="scale(2.00832)"
           id="g802"><path
             id="path804"
             style="fill:#f59a79;fill-opacity:1;fill-rule:nonzero;stroke:none"
             d="m 15930.2,14467.1 c -137.7,-92 -412.1,-194.2 -684.9,-196.6 l 21.2,-183.5 c 314.1,-61.3 1033.5,-19.8 1031.6,216.7 l -367.9,163.4" /></g><g
           transform="scale(1.89027)"
           id="g806"><path
             id="path808"
             style="fill:#373e4b;fill-opacity:1;fill-rule:nonzero;stroke:none"
             d="m 16296.9,14885.5 c 3.1,-18 -9.1,-32.8 -27.1,-32.8 h -377 c -18.1,0 -35.3,14.8 -38.3,32.8 l -126.4,742.5 c -3.1,18 9.1,32.7 27.1,32.7 h 377 c 18,0 35.2,-14.7 38.3,-32.7 l 126.4,-742.5" /></g><g
           transform="scale(1.87132)"
           id="g810"><path
             id="path812"
             style="fill:#f59a79;fill-opacity:1;fill-rule:nonzero;stroke:none"
             d="m 15984,15273.5 c -8.2,0 -16.7,0.2 -25.4,0.4 -17.4,0.6 -31.1,15.3 -30.5,32.7 0.6,17.4 14.9,30.7 32.7,30.5 175.3,-5.9 221.2,50.6 275.9,144.4 8.7,15.1 28.1,20.2 43.2,11.4 15,-8.8 20.1,-28.1 11.3,-43.2 -58,-99.6 -118.2,-176.2 -307.2,-176.2" /></g><g
           transform="scale(1.88184)"
           id="g814"><path
             id="path816"
             style="fill:#f59a79;fill-opacity:1;fill-rule:nonzero;stroke:none"
             d="m 15931.4,15136.9 c -17.4,0 -31.4,14 -31.4,31.4 0,17.3 14,31.3 31.4,31.3 135.3,0 215.9,43.7 307.9,166.8 10.4,13.9 30,16.7 43.9,6.4 13.9,-10.4 16.8,-30.1 6.4,-44 -104.5,-139.9 -201.6,-191.9 -358.2,-191.9" /></g><g
           transform="scale(1.87991)"
           id="g818"><path
             id="path820"
             style="fill:#f59a79;fill-opacity:1;fill-rule:nonzero;stroke:none"
             d="m 15978.8,15111.6 c -14.7,0 -29.8,0.4 -45.4,1.2 -17.2,0.8 -30.7,15.5 -29.9,32.9 0.9,17.3 15.6,30.7 33,29.9 138.6,-6.9 244.9,19.8 307.4,76.7 12.9,11.7 32.7,10.8 44.4,-2 11.7,-12.9 10.8,-32.8 -2,-44.5 -68.7,-62.6 -172,-94.2 -307.5,-94.2" /></g><g
           transform="scale(1.87501)"
           id="g822"><path
             id="path824"
             style="fill:#f59a79;fill-opacity:1;fill-rule:nonzero;stroke:none"
             d="m 16120.6,15093.5 c -36,0 -71.5,4.1 -101.8,13.7 -16.6,5.3 -25.7,23 -20.5,39.6 5.4,16.6 23.1,25.7 39.7,20.5 62.1,-19.9 158.5,-10.5 215.8,10 16.4,5.8 34.5,-2.7 40.3,-19.1 5.9,-16.4 -2.7,-34.5 -19.1,-40.3 -40.4,-14.4 -98,-24.4 -154.4,-24.4" /></g><g
           transform="scale(1.86007)"
           id="g826"><path
             id="path828"
             style="fill:#f59a79;fill-opacity:1;fill-rule:nonzero;stroke:none"
             d="m 16259.8,15432.4 c 40.2,-174.6 14.9,-250.2 -154.8,-264.4 -145.7,-12.3 -207.7,140.4 -147.7,268.5 l 302.5,-4.1" /></g><g
           transform="scale(1.84051)"
           id="g830"><path
             id="path832"
             style="fill:#f59a79;fill-opacity:1;fill-rule:nonzero;stroke:none"
             d="m 15151.8,15607.4 c -2.1,-258 782.3,-302.9 1125.1,-236.1 l 23.1,200.4 c -296.8,2.6 -595.5,113.5 -746.3,213.7 l -401.9,-178" /></g><g
           transform="scale(2.02921)"
           id="g834"><path
             id="path836"
             style="fill:#f59a79;fill-opacity:1;fill-rule:nonzero;stroke:none"
             d="m 14941.3,15540.8 c -96.5,0 -174.8,78.3 -174.8,174.8 v 409.6 c 0,96.6 78.3,174.8 174.8,174.8 96.6,0 174.8,-78.2 174.8,-174.8 v -409.6 c 0,-96.5 -78.2,-174.8 -174.8,-174.8" /></g><g
           transform="scale(1.99998)"
           id="g838"><path
             id="path840"
             style="fill:#f47673;fill-opacity:1;fill-rule:nonzero;stroke:none"
             d="m 15231.2,16175.6 c 95.9,-91.9 133.4,-208.5 83.9,-260.2 -49.7,-51.8 -167.6,-19.2 -263.5,72.7 -96,91.9 -133.4,208.4 -83.9,260.1 49.6,51.8 167.6,19.3 263.5,-72.6" /></g><g
           transform="scale(2.04049)"
           id="g842"><path
             id="path844"
             style="fill:#f59a79;fill-opacity:1;fill-rule:nonzero;stroke:none"
             d="m 14524.1,16195.8 c 32.5,-67.1 22.7,-139 -21.9,-160.6 -44.6,-21.5 -107,15.4 -139.5,82.6 -32.5,67.2 -22.7,139 21.9,160.6 44.5,21.6 107,-15.4 139.5,-82.6" /></g><g
           transform="scale(2.04049)"
           id="g846"><path
             id="path848"
             style="fill:#f59a79;fill-opacity:1;fill-rule:nonzero;stroke:none"
             d="m 15193.3,16195.8 c -32.5,-67.1 -22.7,-139 21.8,-160.6 44.6,-21.5 107.1,15.4 139.6,82.6 32.5,67.2 22.7,139 -21.8,160.6 -44.6,21.6 -107.1,-15.4 -139.6,-82.6" /></g><g
           transform="scale(2.09185)"
           id="g850"><path
             id="path852"
             style="fill:#f59a79;fill-opacity:1;fill-rule:nonzero;stroke:none"
             d="m 14899,15799.3 c 0,-276.6 -181.4,-500.7 -405.1,-500.7 -223.8,0 -405.1,224.1 -405.1,500.7 0,276.5 181.3,500.7 405.1,500.7 223.7,0 405.1,-224.2 405.1,-500.7" /></g><g
           transform="scale(2.04177)"
           id="g854"><path
             id="path856"
             style="fill:#b04027;fill-opacity:1;fill-rule:nonzero;stroke:none"
             d="m 15104.4,16237.2 c -2.2,0 -4.5,0.7 -6.3,2.2 -30.6,23.9 -79,38.2 -118.4,16.5 -5,-2.7 -11.1,-0.9 -13.9,4 -2.7,4.9 -0.9,11.1 4,13.9 47.6,26.2 105,9.7 140.8,-18.3 4.5,-3.5 5.3,-9.9 1.8,-14.3 -2.1,-2.6 -5,-4 -8,-4" /></g><g
           transform="scale(2.03519)"
           id="g858"><path
             id="path860"
             style="fill:#b04027;fill-opacity:1;fill-rule:nonzero;stroke:none"
             d="m 15110.1,16253.2 c 0,-25.8 -12.7,-46.8 -28.4,-46.8 -15.7,0 -28.4,21 -28.4,46.8 0,25.9 12.7,46.8 28.4,46.8 15.7,0 28.4,-20.9 28.4,-46.8" /></g><g
           transform="scale(2.04178)"
           id="g862"><path
             id="path864"
             style="fill:#b04027;fill-opacity:1;fill-rule:nonzero;stroke:none"
             d="m 14594.4,16237.2 c -3,0 -6.1,1.4 -8.1,3.9 -3.5,4.5 -2.6,10.9 1.8,14.4 35.8,28 93.2,44.5 140.8,18.3 4.9,-2.8 6.8,-9 4.1,-13.9 -2.8,-5 -9,-6.7 -14,-4 -39.3,21.7 -87.8,7.4 -118.3,-16.5 -1.9,-1.5 -4.1,-2.2 -6.3,-2.2" /></g><g
           transform="scale(2.03519)"
           id="g866"><path
             id="path868"
             style="fill:#b04027;fill-opacity:1;fill-rule:nonzero;stroke:none"
             d="m 14684.7,16253.2 c 0,-25.8 12.7,-46.8 28.4,-46.8 15.7,0 28.4,21 28.4,46.8 0,25.9 -12.7,46.8 -28.4,46.8 -15.7,0 -28.4,-20.9 -28.4,-46.8" /></g><g
           transform="scale(2.03678)"
           id="g870"><path
             id="path872"
             style="fill:#b04027;fill-opacity:1;fill-rule:nonzero;stroke:none"
             d="m 14863.8,16053.4 c -9.8,0 -18.7,0.7 -25.6,1.8 -5.5,0.8 -9.4,6 -8.6,11.6 0.8,5.6 6.1,9.4 11.6,8.6 26.9,-4 71.9,-0.9 88.1,18.6 7.4,8.9 8.4,20.8 3.1,36.4 l -3.9,11.1 c -16.3,47.1 -34.8,100.5 -13.3,150.8 2.3,5.3 8.3,7.7 13.5,5.4 5.2,-2.2 7.6,-8.2 5.3,-13.4 -18.4,-43.1 -1.2,-92.5 13.9,-136.1 l 3.9,-11.2 c 9.6,-28.2 1.6,-46.1 -6.8,-56.1 -18,-21.6 -53.3,-27.5 -81.2,-27.5" /></g><g
           transform="scale(1.99382)"
           id="g874"><path
             id="path876"
             style="fill:#ffffff;fill-opacity:1;fill-rule:nonzero;stroke:none"
             d="m 15069.7,16300 c 58.2,-109.8 215.5,-109.8 273.6,0 h -273.6" /></g><g
           transform="scale(2.11212)"
           id="g878"><path
             id="path880"
             style="fill:#b04027;fill-opacity:1;fill-rule:nonzero;stroke:none"
             d="m 14152.3,16143.6 c -257.1,156.4 -257.9,-329 -228.9,-442.3 26.9,-105.3 84.2,-179.4 88.9,-23 4.6,157.1 107.3,266.1 237.5,308.9 h 210 c 130.2,-42.8 232.9,-151.8 237.5,-308.9 4.7,-156.4 62,-82.3 88.9,23 29,113.3 28.2,432.3 -155.8,442.3 h -478.1" /></g><g
           transform="scale(2.1221)"
           id="g882"><path
             id="path884"
             style="fill:#592616;fill-opacity:1;fill-rule:nonzero;stroke:none"
             d="m 14606.5,15844.3 c -68.9,-105.5 -241.7,-114.6 -386.1,-20.4 -144.3,94.2 -205.6,256.1 -136.8,361.6 68.8,105.4 241.7,114.5 386,20.3 144.5,-94.2 205.7,-256.1 136.9,-361.5" /></g><g
           transform="scale(2.12603)"
           id="g886"><path
             id="path888"
             style="fill:#58c59d;fill-opacity:1;fill-rule:nonzero;stroke:none"
             d="m 13802.9,15768.6 c -0.2,306 208.8,531.4 461.1,514.7 252.7,12.2 457.7,-208.8 452,-514.7 -285.5,148.7 -624.9,143.6 -913.1,0" /></g><g
           transform="scale(2.07693)"
           id="g890"><path
             id="path892"
             style="fill:#2f635f;fill-opacity:1;fill-rule:nonzero;stroke:none"
             d="m 14205.2,16174.3 c 246.7,125.7 538.8,125.7 785.6,0 0,-51.4 0,-81.7 0,-133.1 0,-31.3 -24,-44.4 -54.3,-31.6 -216.2,92 -460.8,92 -677,0 -30.3,-12.8 -54.3,0.3 -54.3,31.6 0,51.4 0,81.7 0,133.1" /></g><g
           transform="scale(1.5349)"
           id="g894"><path
             id="path896"
             style="fill:#58c59d;fill-opacity:1;fill-rule:nonzero;stroke:none"
             d="m 16258.8,15794.2 c 0,-279.3 -226.5,-505.7 -505.8,-505.7 -279.3,0 -505.7,226.4 -505.7,505.7 0,279.3 226.4,505.8 505.7,505.8 279.3,0 505.8,-226.5 505.8,-505.8" /></g><g
           transform="scale(1.51292)"
           id="g898"><path
             id="path900"
             style="fill:#ffffff;fill-opacity:1;fill-rule:nonzero;stroke:none"
             d="m 15919.3,15626.3 c -9.8,0 -18.8,5.3 -23.5,13.9 l -198,365.3 c -7,12.9 -2.2,29.2 10.7,36.2 12.9,7 29.1,2.2 36.2,-10.7 l 174.2,-321.3 299.9,572.2 c 6.8,13 22.9,18.1 36,11.2 13,-6.8 18.1,-22.9 11.2,-36 l -323.1,-616.6 c -4.6,-8.7 -13.6,-14.2 -23.4,-14.2 -0.1,0 -0.2,0 -0.2,0" /></g><g
           transform="scale(2.15814)"
           id="g902"><path
             id="path904"
             style="fill:#373e4b;fill-opacity:1;fill-rule:nonzero;stroke:none"
             d="m 12830.5,9754.14 c 0,-120.52 -98.6,-219.17 -219.1,-219.17 H 9796.07 c -120.47,0 -219.12,98.65 -219.12,219.17 v 6326.66 c 0,120.5 98.65,219.2 219.12,219.2 h 2815.33 c 120.5,0 219.1,-98.7 219.1,-219.2 V 9754.14" /></g><g
           transform="scale(2.10641)"
           id="g906"><path
             id="path908"
             style="fill:#ffffff;fill-opacity:1;fill-rule:nonzero;stroke:none"
             d="m 10139,10169.4 c -118,0 -214.6,96.6 -214.6,214.6 v 5701.3 c 0,118.1 96.6,214.7 214.6,214.7 h 2679.7 c 118,0 214.6,-96.6 214.6,-214.7 V 10384 c 0,-118 -96.6,-214.6 -214.6,-214.6 H 10139" /></g><g
           transform="scale(2.31562)"
           id="g910"><path
             id="path912"
             style="fill:#f69b35;fill-opacity:1;fill-rule:nonzero;stroke:none"
             d="m 10794.8,15947 c 0,-195.1 -353,-755.5 -353,-755.5 0,0 -353,560.4 -353,755.5 0,194.9 158,353 353,353 195,0 353,-158.1 353,-353" /></g><g
           transform="scale(2.29785)"
           id="g914"><path
             id="path916"
             style="fill:#ffffff;fill-opacity:1;fill-rule:nonzero;stroke:none"
             d="m 10752.3,16070.2 c 0,-126.8 -102.9,-229.7 -229.8,-229.7 -126.9,0 -229.8,102.9 -229.8,229.7 0,126.9 102.9,229.8 229.8,229.8 126.9,0 229.8,-102.9 229.8,-229.8" /></g><g
           transform="scale(2.05631)"
           id="g918"><path
             id="path920"
             style="fill:#2f635f;fill-opacity:1;fill-rule:nonzero;stroke:none"
             d="m 11109.7,16169.9 v -68.7 h -28.1 v 69.3 l -78.9,129.5 h 30.3 l 63.6,-104.8 63.9,104.8 h 28.1 l -78.9,-130.1" /></g><g
           transform="scale(2.0504)"
           id="g922"><path
             id="path924"
             style="fill:#2f635f;fill-opacity:1;fill-rule:nonzero;stroke:none"
             d="m 11319.3,16176.6 c 7.7,4.4 13.7,10.7 18,18.7 4.4,8.1 6.6,17.4 6.6,27.8 0,10.4 -2.2,19.7 -6.6,27.8 -4.3,8 -10.3,14.3 -18,18.6 -7.7,4.4 -16.4,6.6 -26.1,6.6 -9.6,0 -18.3,-2.2 -26,-6.6 -7.7,-4.3 -13.8,-10.6 -18.3,-18.6 -4.4,-8.1 -6.7,-17.4 -6.7,-27.8 0,-10.4 2.3,-19.7 6.7,-27.8 4.5,-8 10.6,-14.3 18.3,-18.7 7.7,-4.5 16.4,-6.7 26,-6.7 9.7,0 18.4,2.2 26.1,6.7 z m -66.5,-20.7 c -12,6.6 -21.3,15.8 -28.1,27.5 -6.7,11.7 -10.1,24.9 -10.1,39.7 0,14.8 3.4,28.1 10.1,39.7 6.8,11.7 16.1,20.8 28.1,27.4 11.9,6.5 25.4,9.8 40.4,9.8 15,0 28.4,-3.3 40.3,-9.8 11.9,-6.6 21.2,-15.7 27.9,-27.4 6.8,-11.6 10.1,-24.9 10.1,-39.7 0,-14.8 -3.3,-28 -10.1,-39.7 -6.7,-11.7 -16,-20.9 -27.9,-27.5 -11.9,-6.6 -25.3,-10 -40.3,-10 -15,0 -28.5,3.4 -40.4,10" /></g><g
           transform="scale(2.05022)"
           id="g926"><path
             id="path928"
             style="fill:#2f635f;fill-opacity:1;fill-rule:nonzero;stroke:none"
             d="m 11551.1,16300 v -150.9 h -25.9 v 22.7 c -5.5,-7.7 -12.8,-13.8 -21.8,-18 -9,-4.3 -18.9,-6.5 -29.5,-6.5 -20.1,0 -36,5.6 -47.6,16.7 -11.5,11.1 -17.3,27.5 -17.3,49.1 v 86.9 h 27.3 v -83.7 c 0,-14.7 3.5,-25.7 10.6,-33.2 7,-7.5 17,-11.3 30.2,-11.3 14.4,0 25.8,4.4 34.1,13.1 8.4,8.8 12.5,21.1 12.5,37.1 v 78 h 27.4" /></g><g
           transform="scale(2.0504)"
           id="g930"><path
             id="path932"
             style="fill:#2f635f;fill-opacity:1;fill-rule:nonzero;stroke:none"
             d="m 11649.5,16293.2 c 9.2,4.5 20.6,6.8 33.8,6.8 v -26.5 c -1.5,0.2 -3.6,0.3 -6.2,0.3 -14.8,0 -26.5,-4.4 -34.9,-13.2 -8.5,-8.9 -12.7,-21.4 -12.7,-37.8 v -75.2 h -27.3 v 151 h 26.2 v -25.4 c 4.7,8.8 11.8,15.4 21.1,20" /></g><g
           transform="scale(2.0504)"
           id="g934"><path
             id="path936"
             style="fill:#2f635f;fill-opacity:1;fill-rule:nonzero;stroke:none"
             d="m 11886.3,16176.6 c 7.6,4.4 13.7,10.7 18,18.7 4.4,8.1 6.6,17.4 6.6,27.8 0,10.4 -2.2,19.7 -6.6,27.8 -4.3,8 -10.4,14.3 -18,18.6 -7.7,4.4 -16.4,6.6 -26.1,6.6 -9.7,0 -18.4,-2.2 -26.1,-6.6 -7.7,-4.3 -13.7,-10.6 -18.2,-18.6 -4.5,-8.1 -6.7,-17.4 -6.7,-27.8 0,-10.4 2.2,-19.7 6.7,-27.8 4.5,-8 10.5,-14.3 18.2,-18.7 7.7,-4.5 16.4,-6.7 26.1,-6.7 9.7,0 18.4,2.2 26.1,6.7 z m -66.6,-20.7 c -11.9,6.6 -21.3,15.8 -28,27.5 -6.7,11.7 -10.1,24.9 -10.1,39.7 0,14.8 3.4,28.1 10.1,39.7 6.7,11.7 16.1,20.8 28,27.4 12,6.5 25.5,9.8 40.5,9.8 15,0 28.4,-3.3 40.3,-9.8 11.9,-6.6 21.1,-15.7 27.9,-27.4 6.7,-11.6 10.1,-24.9 10.1,-39.7 0,-14.8 -3.4,-28 -10.1,-39.7 -6.8,-11.7 -16,-20.9 -27.9,-27.5 -11.9,-6.6 -25.3,-10 -40.3,-10 -15,0 -28.5,3.4 -40.5,10" /></g><g
           transform="scale(2.0504)"
           id="g938"><path
             id="path940"
             style="fill:#2f635f;fill-opacity:1;fill-rule:nonzero;stroke:none"
             d="m 12023.6,16293.2 c 9.3,4.5 20.6,6.8 33.9,6.8 v -26.5 c -1.5,0.2 -3.6,0.3 -6.2,0.3 -14.8,0 -26.5,-4.4 -34.9,-13.2 -8.5,-8.9 -12.7,-21.4 -12.7,-37.8 v -75.2 h -27.3 v 151 h 26.2 v -25.4 c 4.7,8.8 11.7,15.4 21,20" /></g><g
           transform="scale(2.05782)"
           id="g942"><path
             id="path944"
             style="fill:#2f635f;fill-opacity:1;fill-rule:nonzero;stroke:none"
             d="m 12136.4,16118.3 c 7.7,4.4 13.8,10.7 18.1,18.7 4.4,8 6.5,17.2 6.5,27.7 0,10.4 -2.1,19.6 -6.5,27.6 -4.3,8.1 -10.4,14.2 -18.1,18.6 -7.8,4.4 -16.4,6.5 -25.8,6.5 -9.7,0 -18.4,-2.1 -26,-6.5 -7.7,-4.4 -13.7,-10.5 -18.2,-18.6 -4.4,-8 -6.6,-17.2 -6.6,-27.6 0,-10.5 2.2,-19.7 6.6,-27.7 4.5,-8 10.5,-14.3 18.2,-18.7 7.6,-4.5 16.3,-6.7 26,-6.7 9.4,0 18,2.2 25.8,6.7 z m 51.6,181.7 v -210.5 h -26.1 v 23.8 c -6.1,-8.3 -13.7,-14.7 -23,-19 -9.2,-4.4 -19.4,-6.5 -30.6,-6.5 -14.6,0 -27.6,3.2 -39.2,9.6 -11.5,6.4 -20.5,15.5 -27.1,27.1 -6.5,11.6 -9.8,25 -9.8,40.2 0,15.1 3.3,28.4 9.8,40 6.6,11.5 15.6,20.5 27.1,26.9 11.6,6.4 24.6,9.7 39.2,9.7 10.8,0 20.7,-2.1 29.8,-6.1 9.1,-4.1 16.6,-10.1 22.7,-18.1 v 82.9 h 27.2" /></g><g
           transform="scale(2.0504)"
           id="g946"><path
             id="path948"
             style="fill:#2f635f;fill-opacity:1;fill-rule:nonzero;stroke:none"
             d="m 12312.8,16265 c -8.8,-8 -14,-18.4 -15.5,-31.4 h 96.8 c -1.5,12.8 -6.7,23.2 -15.5,31.2 -8.8,8.1 -19.8,12.1 -32.9,12.1 -13.1,0 -24.1,-3.9 -32.9,-11.9 z m 107,-51 h -122.5 c 1.7,-13.3 7.6,-24 17.5,-32 10,-8.1 22.4,-12.1 37.2,-12.1 18,0 32.6,6 43.5,18.2 l 15.1,-17.7 c -6.8,-7.9 -15.3,-14 -25.5,-18.2 -10.1,-4.2 -21.5,-6.3 -34,-6.3 -15.9,0 -30.1,3.3 -42.4,9.9 -12.3,6.5 -21.9,15.7 -28.6,27.4 -6.7,11.8 -10.2,25.1 -10.2,39.9 0,14.6 3.4,27.8 9.9,39.6 6.5,11.8 15.6,20.9 27.1,27.5 11.4,6.5 24.4,9.8 38.8,9.8 14.4,0 27.3,-3.3 38.6,-9.8 11.3,-6.6 20.1,-15.7 26.5,-27.5 6.3,-11.8 9.5,-25.3 9.5,-40.4 0,-2.1 -0.2,-4.9 -0.5,-8.3" /></g><g
           transform="scale(2.0504)"
           id="g950"><path
             id="path952"
             style="fill:#2f635f;fill-opacity:1;fill-rule:nonzero;stroke:none"
             d="m 12505.5,16293.2 c 9.3,4.5 20.6,6.8 33.9,6.8 v -26.5 c -1.6,0.2 -3.7,0.3 -6.3,0.3 -14.8,0 -26.5,-4.4 -34.9,-13.2 -8.4,-8.9 -12.7,-21.4 -12.7,-37.8 v -75.2 h -27.3 v 151 h 26.2 v -25.4 c 4.7,8.8 11.7,15.4 21.1,20" /></g><g
           transform="scale(2.01537)"
           id="g954"><path
             id="path956"
             style="fill:#2f635f;fill-opacity:1;fill-rule:nonzero;stroke:none"
             d="m 11061.5,16234.2 h 27.8 v -153.5 h -27.8 z m 0.4,34.8 c -3.6,3.5 -5.4,7.7 -5.4,12.8 0,5 1.8,9.3 5.4,12.8 3.6,3.6 8.1,5.4 13.5,5.4 5.4,0 9.9,-1.7 13.5,-5.1 3.5,-3.3 5.3,-7.5 5.3,-12.6 0,-5.2 -1.8,-9.6 -5.3,-13.2 -3.6,-3.5 -8.1,-5.3 -13.5,-5.3 -5.4,0 -9.9,1.7 -13.5,5.2" /></g><g
           transform="scale(2.00741)"
           id="g958"><path
             id="path960"
             style="fill:#2f635f;fill-opacity:1;fill-rule:nonzero;stroke:none"
             d="m 11194.3,16147.7 c -11.7,3.4 -20.8,7.7 -27.3,13 l 11.6,22.1 c 6.8,-4.9 15,-8.7 24.7,-11.7 9.7,-2.9 19.5,-4.3 29.4,-4.3 24.4,0 36.6,7 36.6,20.9 0,4.7 -1.6,8.4 -4.9,11.1 -3.3,2.7 -7.4,4.7 -12.4,5.9 -4.9,1.3 -11.9,2.7 -21,4.3 -12.5,1.9 -22.6,4.1 -30.4,6.6 -7.9,2.6 -14.6,6.8 -20.2,12.9 -5.7,6 -8.5,14.4 -8.5,25.3 0,13.9 5.8,25.1 17.5,33.5 11.6,8.5 27.2,12.7 46.8,12.7 10.3,0 20.5,-1.3 30.8,-3.8 10.3,-2.5 18.7,-5.9 25.3,-10.2 l -11.9,-22.1 c -12.6,8.2 -27.5,12.2 -44.5,12.2 -11.9,0 -20.9,-1.9 -27.1,-5.8 -6.2,-3.8 -9.3,-9 -9.3,-15.4 0,-5 1.8,-9 5.3,-11.9 3.4,-2.9 7.8,-5.1 12.9,-6.4 5.1,-1.4 12.4,-2.9 21.7,-4.7 12.4,-2.1 22.4,-4.4 30.1,-6.8 7.6,-2.4 14.2,-6.5 19.6,-12.4 5.4,-5.8 8.2,-13.9 8.2,-24.4 0,-14 -6,-25.1 -17.9,-33.3 -12,-8.2 -28.2,-12.4 -48.7,-12.4 -12.6,0 -24.7,1.7 -36.4,5.1" /></g><g
           transform="scale(2.00741)"
           id="g962"><path
             id="path964"
             style="fill:#2f635f;fill-opacity:1;fill-rule:nonzero;stroke:none"
             d="m 11503.1,16173.9 c 7.8,4.6 14,11 18.4,19.2 4.5,8.2 6.7,17.7 6.7,28.4 0,10.6 -2.2,20.1 -6.7,28.3 -4.4,8.3 -10.6,14.6 -18.4,19.1 -7.9,4.4 -16.8,6.7 -26.6,6.7 -10,0 -18.8,-2.3 -26.7,-6.7 -7.8,-4.5 -14,-10.8 -18.6,-19.1 -4.6,-8.2 -6.9,-17.7 -6.9,-28.3 0,-10.7 2.3,-20.2 6.9,-28.4 4.6,-8.2 10.8,-14.6 18.6,-19.2 7.9,-4.5 16.7,-6.8 26.7,-6.8 9.8,0 18.7,2.3 26.6,6.8 z m -68,-21.1 c -12.2,6.8 -21.8,16.2 -28.6,28.1 -6.9,11.9 -10.3,25.4 -10.3,40.6 0,15.1 3.4,28.6 10.3,40.5 6.8,12 16.4,21.3 28.6,28 12.3,6.7 26,10 41.4,10 15.2,0 29,-3.3 41.1,-10 12.1,-6.7 21.6,-16 28.5,-28 6.9,-11.9 10.3,-25.4 10.3,-40.5 0,-15.2 -3.4,-28.7 -10.3,-40.6 -6.9,-11.9 -16.4,-21.3 -28.5,-28.1 -12.1,-6.8 -25.9,-10.2 -41.1,-10.2 -15.4,0 -29.1,3.4 -41.4,10.2" /></g><g
           transform="scale(2.00741)"
           id="g966"><path
             id="path968"
             style="fill:#2f635f;fill-opacity:1;fill-rule:nonzero;stroke:none"
             d="m 11724.1,16283 c 11.5,-11.4 17.3,-28 17.3,-49.9 v -88.7 h -27.9 v 85.5 c 0,14.9 -3.6,26.2 -10.8,33.7 -7.2,7.6 -17.4,11.4 -30.8,11.4 -15.1,0 -27.1,-4.4 -35.8,-13.2 -8.7,-8.9 -13.1,-21.5 -13.1,-38 v -79.4 h -27.9 v 154.1 h 26.8 v -23.2 c 5.6,7.9 13.2,14 22.8,18.3 9.6,4.3 20.5,6.4 32.7,6.4 19.6,0 35.2,-5.7 46.7,-17" /></g><g
           transform="scale(2.01139)"
           id="g970"><path
             id="path972"
             style="fill:#2f635f;fill-opacity:1;fill-rule:nonzero;stroke:none"
             d="m 11934.5,16121.5 c -4.1,-3.5 -9.1,-6.2 -15.1,-8 -6,-1.8 -12.2,-2.8 -18.6,-2.8 -15.5,0 -27.5,4.2 -36,12.5 -8.5,8.3 -12.7,20.2 -12.7,35.7 v 84.5 h -26.2 v 22.9 h 26.2 v 33.7 h 27.8 v -33.7 h 44.1 v -22.9 h -44.1 v -83.3 c 0,-8.3 2.1,-14.7 6.3,-19.2 4.1,-4.4 10,-6.7 17.8,-6.7 8.5,0 15.8,2.5 21.8,7.3 l 8.7,-20" /></g><g
           transform="scale(2.01483)"
           id="g974"><path
             id="path976"
             style="fill:#2f635f;fill-opacity:1;fill-rule:nonzero;stroke:none"
             d="m 12076.3,16223.1 c 11.4,-11.3 17.2,-27.9 17.2,-49.7 v -88.4 h -27.8 v 85.2 c 0,14.9 -3.6,26.1 -10.7,33.6 -7.2,7.5 -17.5,11.3 -30.8,11.3 -15,0 -26.9,-4.4 -35.6,-13.2 -8.7,-8.8 -13,-21.4 -13,-37.8 v -79.1 h -27.9 v 215 h 27.9 v -83.2 c 5.7,7.4 13.3,13.1 22.7,17.1 9.4,4.1 19.8,6.1 31.5,6.1 19.5,0 34.9,-5.6 46.5,-16.9" /></g><g
           transform="scale(2.00741)"
           id="g978"><path
             id="path980"
             style="fill:#2f635f;fill-opacity:1;fill-rule:nonzero;stroke:none"
             d="m 12220.3,16264.2 c -9,-8.1 -14.3,-18.8 -15.8,-32 h 98.8 c -1.5,13 -6.8,23.6 -15.8,31.9 -9,8.2 -20.2,12.3 -33.6,12.3 -13.4,0 -24.5,-4 -33.6,-12.2 z m 109.2,-52 h -125 c 1.7,-13.6 7.7,-24.5 17.8,-32.8 10.3,-8.2 22.9,-12.3 38,-12.3 18.4,0 33.3,6.2 44.5,18.6 l 15.4,-18 c -6.9,-8.2 -15.6,-14.4 -26,-18.7 -10.4,-4.2 -21.9,-6.4 -34.7,-6.4 -16.3,0 -30.8,3.4 -43.4,10.1 -12.6,6.7 -22.4,16 -29.2,28 -6.9,12.1 -10.3,25.6 -10.3,40.8 0,14.9 3.3,28.4 10,40.4 6.6,12 15.9,21.4 27.6,28.1 11.7,6.7 25,10 39.7,10 14.8,0 27.9,-3.3 39.4,-10 11.6,-6.7 20.6,-16.1 27.1,-28.1 6.5,-12 9.7,-25.8 9.7,-41.3 0,-2.1 -0.2,-5 -0.6,-8.4" /></g><g
           transform="scale(2.00724)"
           id="g982"><path
             id="path984"
             style="fill:#2f635f;fill-opacity:1;fill-rule:nonzero;stroke:none"
             d="m 12681.5,16300 -57.6,-154.2 h -26.8 l -44.5,117 -45.1,-117 h -26.7 l -57.3,154.2 h 26.4 l 44.8,-122.8 46.5,122.8 h 23.6 l 45.7,-123.3 46,123.3 h 25" /></g><g
           transform="scale(2.00741)"
           id="g986"><path
             id="path988"
             style="fill:#2f635f;fill-opacity:1;fill-rule:nonzero;stroke:none"
             d="m 12781,16171.3 c 7.7,4.7 13.4,11.5 16.9,20.2 v 21.5 h -43.1 c -23.6,0 -35.5,-7.9 -35.5,-23.8 0,-7.8 3,-13.9 9,-18.3 6,-4.5 14.4,-6.7 25,-6.7 10.7,0 19.9,2.3 27.7,7.1 z m 27.8,113 c 11.3,-10.5 17,-26.1 17,-46.8 v -93.1 h -26.5 v 20.3 c -4.7,-7.1 -11.3,-12.6 -19.9,-16.4 -8.7,-3.8 -18.9,-5.7 -30.7,-5.7 -17.3,0 -31.1,4.2 -41.5,12.5 -10.4,8.4 -15.6,19.3 -15.6,32.9 0,13.6 5,24.5 14.9,32.7 9.9,8.3 25.6,12.4 47.1,12.4 h 44.3 v 5.5 c 0,12 -3.5,21.3 -10.6,27.7 -6.9,6.4 -17.2,9.6 -30.8,9.6 -9.1,0 -18,-1.5 -26.7,-4.5 -8.8,-3.1 -16.1,-7.1 -22.1,-12.1 l -11.7,20.9 c 8,6.4 17.5,11.3 28.5,14.7 11.1,3.4 22.8,5.1 35.2,5.1 21.4,0 37.7,-5.2 49.1,-15.7" /></g><g
           transform="scale(2.00724)"
           id="g990"><path
             id="path992"
             style="fill:#2f635f;fill-opacity:1;fill-rule:nonzero;stroke:none"
             d="m 13012.2,16300 -74.8,-169.6 c -6.6,-15.7 -14.2,-26.8 -23.1,-33.2 -8.8,-6.3 -19.4,-9.6 -31.9,-9.6 -7.5,0 -14.8,1.3 -21.9,3.7 -7.1,2.4 -12.9,5.9 -17.6,10.6 l 11.9,20.9 c 8,-7.5 17.2,-11.3 27.6,-11.3 6.9,0 12.5,1.8 17.1,5.4 4.5,3.6 8.7,9.7 12.3,18.5 l 5,10.7 -68.1,153.9 h 29.1 l 53.8,-123.3 53.3,123.3 h 27.3" /></g><g
           transform="scale(1.852)"
           id="g994"><path
             id="path996"
             style="fill:#58c59d;fill-opacity:1;fill-rule:nonzero;stroke:none"
             d="M 14090.2,13926.5 H 12021.3 V 16300 h 2068.9 v -2373.5" /></g><g
           transform="scale(1.92074)"
           id="g998"><path
             id="path1000"
             style="fill:#58c59d;fill-opacity:1;fill-rule:nonzero;stroke:none"
             d="m 13026.4,15716.6 h -55.9 c 0,290.9 -171.4,527.5 -382,527.5 -210.6,0 -382,-236.6 -382,-527.5 h -55.9 c 0,321.7 196.4,583.4 437.9,583.4 241.4,0 437.9,-261.7 437.9,-583.4" /></g><g
           transform="scale(1.73469)"
           id="g1002"><path
             id="path1004"
             style="fill:#fabc3f;fill-opacity:1;fill-rule:nonzero;stroke:none"
             d="m 14799.8,15860.8 c -54.5,-77.3 -213.6,-58.9 -355.3,41 -141.7,100 -212.4,243.6 -157.8,321 54.5,77.2 213.6,58.8 355.2,-41.1 141.7,-100 212.4,-243.7 157.9,-320.9" /></g><g
           transform="scale(1.73067)"
           id="g1006"><path
             id="path1008"
             style="fill:#fcd457;fill-opacity:1;fill-rule:nonzero;stroke:none"
             d="m 14637.8,16218 c -116.9,72.3 -240.6,82 -285.1,19.1 -44.4,-62.9 6.3,-176.3 113.7,-262.1 l 171.4,243" /></g><g
           transform="scale(1.71824)"
           id="g1010"><path
             id="path1012"
             style="fill:#fcd457;fill-opacity:1;fill-rule:nonzero;stroke:none"
             d="m 14793.8,16300 -172.6,-244.7 c 117.7,-72.8 242.3,-82.7 287,-19.3 44.7,63.4 -6.3,177.6 -114.4,264" /></g><g
           transform="scale(1.65813)"
           id="g1014"><path
             id="path1016"
             style="fill:#fcd457;fill-opacity:1;fill-rule:nonzero;stroke:none"
             d="m 14837.8,16144.8 c 0,-139 112.5,-251.8 251.7,-251.8 58.5,0 112.3,20.2 155.2,53.8 l -353.3,353.2 c -33.4,-42.7 -53.6,-96.6 -53.6,-155.2" /></g><g
           transform="scale(1.66248)"
           id="g1018"><path
             id="path1020"
             style="fill:#fcd457;fill-opacity:1;fill-rule:nonzero;stroke:none"
             d="m 14852.5,16257.4 352.3,-352.3 c 15.9,12.5 30.1,26.8 42.6,42.7 l -352.2,352.2 c -16,-12.5 -30.2,-26.8 -42.7,-42.6" /></g><g
           transform="scale(1.66795)"
           id="g1022"><path
             id="path1024"
             style="fill:#fcd457;fill-opacity:1;fill-rule:nonzero;stroke:none"
             d="m 15197.4,15895.4 c 33.4,42.5 53.5,96.1 53.5,154.4 0,138.2 -112.1,250.2 -250.3,250.2 -58.3,0 -111.7,-20.1 -154.3,-53.5 l 351.1,-351.1" /></g><g
           transform="scale(1.65642)"
           id="g1026"><path
             id="path1028"
             style="fill:#ffffff;fill-opacity:1;fill-rule:nonzero;stroke:none"
             d="m 14923.7,16300 c -29.4,-38.4 -47.1,-86.4 -47.1,-138.5 0,-126.2 102.3,-228.5 228.5,-228.5 52.1,0 100,17.8 138.4,47.2 l -319.8,319.8" /></g><g
           transform="scale(1.66556)"
           id="g1030"><path
             id="path1032"
             style="fill:#ffffff;fill-opacity:1;fill-rule:nonzero;stroke:none"
             d="m 14884.3,16253 318.1,-318 c 29.3,38.2 46.9,85.9 46.9,137.7 0,125.5 -101.8,227.3 -227.2,227.3 -51.9,0 -99.5,-17.7 -137.8,-47" /></g><g
           transform="scale(1.68161)"
           id="g1034"><path
             id="path1036"
             style="fill:#fcd457;fill-opacity:1;fill-rule:nonzero;stroke:none"
             d="m 14520.2,15851.4 c -53.6,-53.4 -134.1,-63.2 -197.6,-29.4 41.8,0.9 95,26.6 140.4,72 l 209.3,209.2 -137.7,137.6 -209.3,-209.2 c -45.3,-45.3 -71,-98.6 -71.9,-140.4 -33.9,63.4 -24.1,144 29.4,197.5 0,0 0,0 0,0.1 l 202,201.9 -9.3,9.3 -217.8,-217.8 v 0 c -70.7,-70.6 -70.7,-185.2 0,-255.9 70.6,-70.7 185.3,-70.7 255.9,0 l 217.8,217.8 -9.3,9.3 -201.9,-202" /></g><g
           transform="scale(1.71137)"
           id="g1038"><path
             id="path1040"
             style="fill:#81d2a3;fill-opacity:1;fill-rule:nonzero;stroke:none"
             d="m 14437.8,16230.6 -214,-214.1 9.1,-9.1 198.5,198.5 c 52.5,52.5 131.7,62.1 194.1,28.9 -41.1,-0.9 -93.4,-26.2 -138,-70.7 l -205.7,-205.7 135.3,-135.2 205.6,205.5 v 0 c 44.6,44.7 69.9,97.1 70.8,138 33.2,-62.3 23.6,-141.6 -29,-194 v 0 l -198.4,-198.5 9.2,-9.2 213.9,214 c 0.2,0 0.2,0 0.2,0 69.3,69.4 69.3,182 0,251.5 -69.6,69.5 -182.2,69.5 -251.6,0.1" /></g><g
           transform="scale(1.70801)"
           id="g1042"><path
             id="path1044"
             style="fill:#ffffff;fill-opacity:1;fill-rule:nonzero;stroke:none"
             d="m 14515.9,16195.8 c 44.7,44.6 97.2,70 138.3,70.9 -62.5,33.3 -141.8,23.6 -194.4,-29 l -199,-198.9 49.1,-49 206,206" /></g><g
           transform="scale(1.68064)"
           id="g1046"><path
             id="path1048"
             style="fill:#ffffff;fill-opacity:1;fill-rule:nonzero;stroke:none"
             d="m 14291,16097.9 c -53.5,-53.5 -63.3,-134.1 -29.4,-197.6 0.9,41.9 26.6,95.2 72,140.5 l 209.3,209.3 -49.8,49.9 -202.1,-201.9 c 0,-0.2 0,-0.2 0,-0.2" /></g><g
           transform="scale(1.66131)"
           id="g1050"><path
             id="path1052"
             style="fill:#fabc3f;fill-opacity:1;fill-rule:nonzero;stroke:none"
             d="m 14497.6,16015.3 c 64.2,-34.2 145.8,-24.3 200,29.8 l 204.4,204.5 -50.4,50.4 -211.9,-211.8 c -45.9,-45.9 -99.8,-72 -142.1,-72.9" /></g><g
           transform="scale(1.69737)"
           id="g1054"><path
             id="path1056"
             style="fill:#36968b;fill-opacity:1;fill-rule:nonzero;stroke:none"
             d="m 14785.4,16104.3 v 0 c 53,53 62.7,132.9 29.2,195.7 -0.8,-41.3 -26.3,-94.1 -71.3,-139.2 v 0 l -207.3,-207.2 49.4,-49.3 200,200" /></g><g
           transform="scale(1.84077)"
           id="g1058"><path
             id="path1060"
             style="fill:#ffffff;fill-opacity:1;fill-rule:nonzero;stroke:none"
             d="m 13880.8,16244.9 -75.6,55.1 -12.1,-2.2 -428.7,-589.2 7.1,-5.1 75.1,-54.7 7.2,-5.1 428.6,589.1 -1.6,12.1" /></g><g
           transform="scale(1.83376)"
           id="g1062"><path
             id="path1064"
             style="fill:#36968b;fill-opacity:1;fill-rule:nonzero;stroke:none"
             d="m 13558.8,15859.4 320.7,440.6 -59.6,-59.3 -271.8,-373.5 10.7,-7.8" /></g><g
           transform="scale(1.78673)"
           id="g1066"><path
             id="path1068"
             style="fill:#36968b;fill-opacity:1;fill-rule:nonzero;stroke:none"
             d="m 13936.6,16261.6 -143.6,-243.7 -96.9,70.5 187.8,211.6 52.7,-38.4" /></g><g
           transform="scale(1.78716)"
           id="g1070"><path
             id="path1072"
             style="fill:#36968b;fill-opacity:1;fill-rule:nonzero;stroke:none"
             d="m 13880.6,16296 c 25.1,4 48.6,-13.1 52.6,-38.2 l -52.6,38.2" /></g><g
           transform="scale(1.77501)"
           id="g1074"><path
             id="path1076"
             style="fill:#ffffff;fill-opacity:1;fill-rule:nonzero;stroke:none"
             d="m 13957.1,16202.7 8,11 -118.5,86.3 -8,-11.1 118.5,-86.2" /></g><g
           transform="scale(1.7644)"
           id="g1078"><path
             id="path1080"
             style="fill:#ffffff;fill-opacity:1;fill-rule:nonzero;stroke:none"
             d="m 13920.7,16157.9 38,52.2 11,-8 8.1,11.1 -119.3,86.8 -8.1,-11.2 20.3,-14.8 -9.3,6.8 -38,-52.2 -91.2,30.2 -789.4,-1085 245.9,-178.9 789.5,1084.9 -57.5,78.1" /></g><g
           transform="scale(1.75748)"
           id="g1082"><path
             id="path1084"
             style="fill:#36968b;fill-opacity:1;fill-rule:nonzero;stroke:none"
             d="m 13951.9,16220.5 -67.7,49.2 -91.7,30.3 -127.1,-174.6 7.3,-5.3 202.6,-147.4 7.2,-5.2 127.1,174.5 -57.7,78.5" /></g><g
           transform="scale(1.73487)"
           id="g1086"><path
             id="path1088"
             style="fill:#36968b;fill-opacity:1;fill-rule:nonzero;stroke:none"
             d="m 13892.5,16300 45.9,-33.4 -767.3,-1054.5 -45.9,33.4 767.3,1054.5" /></g><g
           transform="scale(1.72896)"
           id="g1090"><path
             id="path1092"
             style="fill:#36968b;fill-opacity:1;fill-rule:nonzero;stroke:none"
             d="m 14062.5,16266.6 -770,-1058.2 -45.9,33.5 769.9,1058.1 46,-33.4" /></g><g
           transform="scale(1.73131)"
           id="g1094"><path
             id="path1096"
             style="fill:#58c59d;fill-opacity:1;fill-rule:nonzero;stroke:none"
             d="m 13997.5,16277.9 -768.9,-1056.7 -30.5,22.1 768.9,1056.7 30.5,-22.1" /></g><g
           transform="scale(1.64943)"
           id="g1098"><path
             id="path1100"
             style="fill:#ffffff;fill-opacity:1;fill-rule:nonzero;stroke:none"
             d="m 14191.9,16003.4 -11.7,-15.9 -407.6,296.6 11.7,15.9 407.6,-296.6" /></g><g
           transform="scale(1.62756)"
           id="g1102"><path
             id="path1104"
             style="fill:#36968b;fill-opacity:1;fill-rule:nonzero;stroke:none"
             d="m 14188.7,16106 -22,-30.4 -266.7,194 22,30.4 266.7,-194" /></g></g></g></g></svg>
