<?xml version="1.0" encoding="UTF-8" standalone="no"?>
<!-- Created with Inkscape (http://www.inkscape.org/) -->

<svg
   width="700.01306mm"
   height="598.50018mm"
   viewBox="0 0 700.01306 598.50018"
   version="1.1"
   id="svg5"
   xml:space="preserve"
   xmlns="http://www.w3.org/2000/svg"
   xmlns:svg="http://www.w3.org/2000/svg"><defs
     id="defs2"><clipPath
       id="clipPath1536"
       clipPathUnits="userSpaceOnUse"><path
         id="path1534"
         d="m 43434.9,4374.9 v 12305.7 h 5963.5 V 4374.9 Z" /></clipPath></defs><g
     id="layer1"
     transform="translate(-1246.7242,311.91593)"><g
       id="g9860"
       transform="translate(1234.7027,-528.32432)"><g
         transform="matrix(0.1100575,0,0,-0.1100575,-1060.5106,885.06883)"
         id="g1502"><path
           id="path1504"
           style="fill:#a6e2f8;fill-opacity:1;fill-rule:nonzero;stroke:none"
           d="m 10345.7,2363.82 c 564.3,-753.21 1990.7,-1491.6 2905.7,-1522.885 1854.9,-63.434 2154.2,536.355 2522.1,1106.305 526.5,815.71 318.9,2142.14 111.6,2884.15 -205.5,735.99 -773.6,1263.89 -1513.2,1243.6 -660.1,-18.14 -853.7,-480.46 -1460.7,-722.27 -508.5,-202.68 -944.7,-102.96 -1452.3,-24.43 -519.4,80.33 -1064.8,-139.05 -1366.3,-687.55 -432.96,-787.6 -209.86,-1658.89 253.1,-2276.92" /></g><g
         transform="matrix(0.09591041,0,0,-0.09591041,-1060.5106,885.06883)"
         id="g1506"><path
           id="path1508"
           style="fill:#f47673;fill-opacity:1;fill-rule:nonzero;stroke:none"
           d="m 14807.8,4212.87 c 413.7,60.58 910.9,141.39 1078.4,604.07 45.8,126.27 146,263.51 265.8,191.49 148,-89.09 68.3,-304.48 0.7,-409.72 -261.9,-407.87 -803.1,-557.47 -1344,-553.46 l -0.9,167.62" /></g><g
         transform="matrix(0.08842164,0,0,-0.08842164,-1060.5106,885.06883)"
         id="g1510"><path
           id="path1512"
           style="fill:#e5f6fb;fill-opacity:1;fill-rule:nonzero;stroke:none"
           d="m 16203.3,4633.47 c -22.8,14.01 -59.3,29.17 -65.8,0.12 -5.8,-25.81 7.1,-36.26 36.5,-51.66 -51.3,-7.94 -50.8,-43.01 -2.3,-57.66 -41.4,-37.38 -24.8,-85.85 30.4,-62 -31.5,-24.77 -83.9,-69.1 -36.3,-104.97 48.7,-36.74 96.3,37.87 134.2,58.69 l -96.7,217.48" /></g><g
         transform="matrix(0.09670098,0,0,-0.09670098,-1060.5106,885.06883)"
         id="g1514"><path
           id="path1516"
           style="fill:#41ad99;fill-opacity:1;fill-rule:nonzero;stroke:none"
           d="m 14854.4,4308.63 c -87.6,-33.93 -35.1,-291.34 96.9,-334.76 301.5,-99.15 982.3,238.12 1192,754.37 156.7,229.64 -187.8,464.73 -344.5,235.08 -287,-518.91 -572.6,-510.81 -944.4,-654.69" /></g><g
         transform="matrix(0.10714285,0,0,-0.10714285,-1060.5106,885.06883)"
         id="g1518"><path
           id="path1520"
           style="fill:#76c19c;fill-opacity:1;fill-rule:nonzero;stroke:none"
           d="m 16300,1004.04 c 0,-192.844 -1408,-349.211 -3144.9,-349.211 -1736.8,0 -3144.8,156.367 -3144.8,349.211 0,192.88 1408,349.25 3144.8,349.25 1736.9,0 3144.9,-156.37 3144.9,-349.25" /></g><g
         transform="matrix(0.10819166,0,0,-0.10819166,-1060.5106,885.06883)"
         id="g1522"><path
           id="path1524"
           style="fill:#864f34;fill-opacity:1;fill-rule:nonzero;stroke:none"
           d="m 16300,1233.77 h -2330 v 4397.98 h 2330 V 1233.77" /></g><g
         transform="matrix(0.10691213,0,0,-0.10691213,-1060.5106,885.06883)"
         id="g1526"><path
           id="path1528"
           style="fill:#8cd6a3;fill-opacity:1;fill-rule:nonzero;stroke:none"
           d="M 14332.2,1443.59 V 5504.1 H 16300 V 1443.59 h -1967.8" /></g><g
         id="g1530"
         transform="matrix(0.03527778,0,0,-0.03527778,-1060.5106,885.06883)"><g
           clip-path="url(#clipPath1536)"
           id="g1532"><g
             transform="scale(3.03058)"
             id="g1538"><path
               id="path1540"
               style="fill:#aa6e43;fill-opacity:1;fill-rule:nonzero;stroke:none"
               d="m 14332.2,1443.59 v 873.82 H 16300 v -873.82 h -1967.8" /></g></g></g><g
         transform="matrix(0.10714285,0,0,-0.10714285,-1060.5106,885.06883)"
         id="g1542"><path
           id="path1544"
           style="fill:#864f34;fill-opacity:1;fill-rule:nonzero;stroke:none"
           d="m 16300,1245.85 -825.9,-366.103 h -159.5 V 5320.73 l 985.4,366.13 V 1245.85" /></g><g
         transform="matrix(0.10819166,0,0,-0.10819166,-1060.5106,885.06883)"
         id="g1546"><path
           id="path1548"
           style="fill:#be8052;fill-opacity:1;fill-rule:nonzero;stroke:none"
           d="m 16300,1233.77 -975.9,-362.55 v 4397.94 l 975.9,362.59 V 1233.77" /></g><g
         transform="matrix(0.10328452,0,0,-0.10328452,-1060.5106,885.06883)"
         id="g1550"><path
           id="path1552"
           style="fill:#eeb940;fill-opacity:1;fill-rule:nonzero;stroke:none"
           d="m 16300,3078.68 c 0,49.42 -23.7,89.49 -52.9,89.49 -29.2,0 -52.9,-40.07 -52.9,-89.49 0,-49.42 23.7,-89.45 52.9,-89.45 29.2,0 52.9,40.03 52.9,89.45" /></g><g
         transform="matrix(0.1058478,0,0,-0.1058478,-1060.5106,885.06883)"
         id="g1554"><path
           id="path1556"
           style="fill:#fcd457;fill-opacity:1;fill-rule:nonzero;stroke:none"
           d="m 15961.2,2964.69 c -15.7,0 -30.6,9.57 -36.7,25.13 -7.9,20.3 2.2,43.1 22.4,51.03 l 294.2,114.62 c 20.3,7.93 43.1,-2.17 51,-22.43 7.9,-20.27 -2.1,-43.1 -22.4,-50.99 l -294.2,-114.66 c -4.6,-1.83 -9.5,-2.7 -14.3,-2.7" /></g><g
         transform="matrix(0.103904,0,0,-0.103904,-1060.5106,885.06883)"
         id="g1558"><path
           id="path1560"
           style="fill:#fcd457;fill-opacity:1;fill-rule:nonzero;stroke:none"
           d="m 16259.9,3020.16 h -89 c -22.1,0 -40.1,18 -40.1,40.17 0,22.17 18,40.13 40.1,40.13 h 89 c 22.1,0 40.1,-17.96 40.1,-40.13 0,-22.17 -18,-40.17 -40.1,-40.17" /></g><g
         transform="matrix(0.08322064,0,0,-0.08322064,-1060.5106,885.06883)"
         id="g1562"><path
           id="path1564"
           style="fill:#f47673;fill-opacity:1;fill-rule:nonzero;stroke:none"
           d="m 16296.8,4727.67 c -478.3,58.96 -1053.3,139.04 -1258.5,667.74 -56,144.34 -175,299.83 -311.2,213.69 -168.2,-106.57 -70.8,-352.61 9.9,-472.1 312.4,-463.08 939.9,-621.28 1563,-602.46 l -3.2,193.13" /></g><g
         transform="matrix(0.08885203,0,0,-0.08885203,-1060.5106,885.06883)"
         id="g1566"><path
           id="path1568"
           style="fill:#58c59d;fill-opacity:1;fill-rule:nonzero;stroke:none"
           d="M 16300,3039.78 H 14729.5 V 4841.51 H 16300 V 3039.78" /></g><g
         transform="matrix(0.08645102,0,0,-0.08645102,-1060.5106,885.06883)"
         id="g1570"><path
           id="path1572"
           style="fill:#58c59d;fill-opacity:1;fill-rule:nonzero;stroke:none"
           d="m 16300,4975.97 h -45.3 c 0,235.29 -138.6,426.76 -309,426.76 -170.5,0 -309.1,-191.47 -309.1,-426.76 h -45.3 c 0,260.31 159,472.01 354.4,472.01 195.4,0 354.3,-211.7 354.3,-472.01" /></g><g
         transform="matrix(0.08812037,0,0,-0.08812037,-1060.5106,885.06883)"
         id="g1574"><path
           id="path1576"
           style="fill:#fabc3f;fill-opacity:1;fill-rule:nonzero;stroke:none"
           d="m 16260.9,3776.5 c -39,-55.41 -153.1,-42.2 -254.6,29.42 -101.6,71.7 -152.3,174.67 -113.2,230.08 39.1,55.4 153.1,42.23 254.7,-29.43 101.5,-71.66 152.2,-174.66 113.1,-230.07" /></g><g
         transform="matrix(0.08714987,0,0,-0.08714987,-1060.5106,885.06883)"
         id="g1578"><path
           id="path1580"
           style="fill:#fcd457;fill-opacity:1;fill-rule:nonzero;stroke:none"
           d="m 16300,4050.3 c -84.5,52.3 -174,59.34 -206.1,13.84 -32.1,-45.54 4.6,-127.47 82.2,-189.52 l 123.9,175.68" /></g><g
         transform="matrix(0.08795315,0,0,-0.08795315,-1060.5106,885.06883)"
         id="g1582"><path
           id="path1584"
           style="fill:#fcd457;fill-opacity:1;fill-rule:nonzero;stroke:none"
           d="M 16186.8,3988.15 16064,3814.04 c 83.7,-51.83 172.4,-58.8 204.2,-13.68 31.8,45.08 -4.5,126.3 -81.4,187.79" /></g><g
         transform="matrix(0.08702534,0,0,-0.08702534,-1060.5106,885.06883)"
         id="g1586"><path
           id="path1588"
           style="fill:#fcd457;fill-opacity:1;fill-rule:nonzero;stroke:none"
           d="m 16017.7,3512.96 c 0,-96.52 78.1,-174.75 174.6,-174.75 40.7,0 78,14.02 107.7,37.37 l -245.1,245.09 c -23.2,-29.67 -37.2,-67.05 -37.2,-107.71" /></g><g
         transform="matrix(0.08718409,0,0,-0.08718409,-1060.5106,885.06883)"
         id="g1590"><path
           id="path1592"
           style="fill:#fcd457;fill-opacity:1;fill-rule:nonzero;stroke:none"
           d="m 16025.7,3614.08 244.6,-244.64 c 11.1,8.66 21,18.61 29.7,29.62 l -244.6,244.6 c -11.1,-8.62 -21,-18.57 -29.7,-29.58" /></g><g
         transform="matrix(0.08738341,0,0,-0.08738341,-1060.5106,885.06883)"
         id="g1594"><path
           id="path1596"
           style="fill:#fcd457;fill-opacity:1;fill-rule:nonzero;stroke:none"
           d="m 16262.8,3391.3 c 23.3,29.55 37.2,66.74 37.2,107.27 0,96.08 -78,173.96 -174,173.96 -40.5,0 -77.7,-13.97 -107.3,-37.18 l 244.1,-244.05" /></g><g
         transform="matrix(0.08696326,0,0,-0.08696326,-1060.5106,885.06883)"
         id="g1598"><path
           id="path1600"
           style="fill:#ffffff;fill-opacity:1;fill-rule:nonzero;stroke:none"
           d="m 16078.1,3611.54 c -20.4,-26.61 -32.7,-59.88 -32.7,-96.06 0,-87.54 71,-158.49 158.5,-158.49 36.2,0 69.4,12.33 96.1,32.69 l -221.9,221.86" /></g><g
         transform="matrix(0.08729628,0,0,-0.08729628,-1060.5106,885.06883)"
         id="g1602"><path
           id="path1604"
           style="fill:#ffffff;fill-opacity:1;fill-rule:nonzero;stroke:none"
           d="m 16046.3,3627.34 221.1,-221.01 c 20.3,26.59 32.6,59.69 32.6,95.74 0,87.16 -70.7,157.88 -157.9,157.88 -36,0 -69.2,-12.28 -95.8,-32.61" /></g><g
         transform="matrix(0.08589716,0,0,-0.08589716,-1060.5106,885.06883)"
         id="g1606"><path
           id="path1608"
           style="fill:#fcd457;fill-opacity:1;fill-rule:nonzero;stroke:none"
           d="m 16149.4,3510.61 c -38.2,-38.07 -95.7,-45.1 -140.9,-20.95 29.8,0.62 67.8,18.94 100.1,51.3 l 149.2,149.21 -98.1,98.11 -149.2,-149.2 c -32.4,-32.25 -50.6,-70.28 -51.3,-100.09 -24.1,45.26 -17.2,102.71 20.9,140.87 0,0 0,0 0,0.04 l 144,143.95 -6.6,6.65 -155.3,-155.28 v 0 c -50.4,-50.36 -50.4,-132.08 0,-182.48 50.4,-50.39 132.1,-50.39 182.5,0 l 155.3,155.25 -6.7,6.65 -143.9,-144.03" /></g><g
         transform="matrix(0.08698089,0,0,-0.08698089,-1060.5106,885.06883)"
         id="g1610"><path
           id="path1612"
           style="fill:#81d2a3;fill-opacity:1;fill-rule:nonzero;stroke:none"
           d="m 16070,3936.08 -153.4,-153.31 6.6,-6.57 142.3,142.16 c 37.6,37.67 94.3,44.57 139,20.76 -29.4,-0.61 -66.9,-18.82 -98.9,-50.66 l -147.3,-147.38 96.9,-96.9 147.4,147.27 v 0 c 31.9,32 50,69.52 50.6,98.88 23.8,-44.66 17,-101.44 -20.7,-139.03 v 0 l -142.2,-142.2 6.6,-6.57 153.3,153.31 c 0.1,0 0.1,0 0.1,0 49.7,49.76 49.7,130.43 0,180.2 -49.8,49.76 -130.5,49.76 -180.3,0.04" /></g><g
         transform="matrix(0.08647148,0,0,-0.08647148,-1060.5106,885.06883)"
         id="g1614"><path
           id="path1616"
           style="fill:#ffffff;fill-opacity:1;fill-rule:nonzero;stroke:none"
           d="m 16200.5,3911.37 c 32.2,32.03 69.9,50.35 99.5,50.96 -45,23.95 -102,17.01 -139.9,-20.89 l -143.1,-142.99 35.3,-35.33 148.2,148.25" /></g><g
         transform="matrix(0.08515739,0,0,-0.08515739,-1060.5106,885.06883)"
         id="g1618"><path
           id="path1620"
           style="fill:#ffffff;fill-opacity:1;fill-rule:nonzero;stroke:none"
           d="m 16118.9,3711.81 c -38.5,-38.48 -45.5,-96.44 -21.1,-142.09 0.7,30.08 19.1,68.44 51.7,100.96 l 150.5,150.5 -35.8,35.88 -145.3,-145.2 c 0,-0.05 0,-0.05 0,-0.05" /></g><g
         transform="matrix(0.08586188,0,0,-0.08586188,-1060.5106,885.06883)"
         id="g1622"><path
           id="path1624"
           style="fill:#fabc3f;fill-opacity:1;fill-rule:nonzero;stroke:none"
           d="m 16015,3491.09 c 45.3,-24.16 102.8,-17.14 141,20.95 l 144,144.09 -35.5,35.54 -149.3,-149.27 c -32.3,-32.37 -70.3,-50.7 -100.2,-51.31" /></g><g
         transform="matrix(0.08685848,0,0,-0.08685848,-1060.5106,885.06883)"
         id="g1626"><path
           id="path1628"
           style="fill:#36968b;fill-opacity:1;fill-rule:nonzero;stroke:none"
           d="m 16255.4,3756.59 v 0 c 37.7,37.65 44.6,94.51 20.8,139.23 -0.7,-29.41 -18.8,-66.98 -50.8,-99.02 v 0 l -147.5,-147.48 35.1,-35.13 142.4,142.4" /></g><g
         transform="matrix(0.08764447,0,0,-0.08764447,-1060.5106,885.06883)"
         id="g1630"><path
           id="path1632"
           style="fill:#ffffff;fill-opacity:1;fill-rule:nonzero;stroke:none"
           d="m 16298.8,4790.04 -57.9,42.1 -9.2,-1.65 -328,-450.69 5.5,-3.94 57.4,-41.78 5.4,-3.99 328,450.69 -1.2,9.26" /></g><g
         transform="matrix(0.08741446,0,0,-0.08741446,-1060.5106,885.06883)"
         id="g1634"><path
           id="path1636"
           style="fill:#36968b;fill-opacity:1;fill-rule:nonzero;stroke:none"
           d="m 16055,4460.61 245,336.62 -45.5,-45.28 -207.7,-285.37 8.2,-5.97" /></g><g
         transform="matrix(0.08618397,0,0,-0.08618397,-1060.5106,885.06883)"
         id="g1638"><path
           id="path1640"
           style="fill:#36968b;fill-opacity:1;fill-rule:nonzero;stroke:none"
           d="m 16300,4512.79 -108.4,-183.99 -73.1,53.21 141.7,159.8 39.8,-29.02" /></g><g
         transform="matrix(0.08618362,0,0,-0.08618362,-1060.5106,885.06883)"
         id="g1642"><path
           id="path1644"
           style="fill:#36968b;fill-opacity:1;fill-rule:nonzero;stroke:none"
           d="m 16260.3,4541.79 c 19,2.99 36.8,-9.94 39.7,-28.9 l -39.7,28.9" /></g><g
         transform="matrix(0.08593244,0,0,-0.08593244,-1060.5106,885.06883)"
         id="g1646"><path
           id="path1648"
           style="fill:#ffffff;fill-opacity:1;fill-rule:nonzero;stroke:none"
           d="m 16293.9,4400.96 6.1,8.33 -89.2,64.87 -6,-8.33 89.1,-64.87" /></g><g
         transform="matrix(0.08565269,0,0,-0.08565269,-1060.5106,885.06883)"
         id="g1650"><path
           id="path1652"
           style="fill:#ffffff;fill-opacity:1;fill-rule:nonzero;stroke:none"
           d="m 16256.9,4308.57 28.5,39.13 8.2,-5.97 6.1,8.36 -89.5,65.07 -6,-8.36 15.2,-11.08 -7,5.11 -28.5,-39.17 -68.5,22.61 -592.2,-813.93 184.5,-134.27 592.3,813.93 -43.1,58.57" /></g><g
         transform="matrix(0.08555991,0,0,-0.08555991,-1060.5106,885.06883)"
         id="g1654"><path
           id="path1656"
           style="fill:#36968b;fill-opacity:1;fill-rule:nonzero;stroke:none"
           d="m 16256.9,4312.5 -50.7,36.87 -68.6,22.63 -95,-130.62 5.4,-3.96 151.5,-110.25 5.5,-3.92 95,130.62 -43.1,58.63" /></g><g
         transform="matrix(0.08457636,0,0,-0.08457636,-1060.5106,885.06883)"
         id="g1658"><path
           id="path1660"
           style="fill:#36968b;fill-opacity:1;fill-rule:nonzero;stroke:none"
           d="m 16265.7,4264.1 34.3,-24.94 -573.2,-787.76 -34.3,24.94 573.2,787.76" /></g><g
         transform="matrix(0.08487128,0,0,-0.08487128,-1060.5106,885.06883)"
         id="g1662"><path
           id="path1664"
           style="fill:#36968b;fill-opacity:1;fill-rule:nonzero;stroke:none"
           d="m 16300,4183.18 -571.2,-785.06 -34.1,24.81 571.2,785.06 34.1,-24.81" /></g><g
         transform="matrix(0.08469384,0,0,-0.08469384,-1060.5106,885.06883)"
         id="g1666"><path
           id="path1668"
           style="fill:#58c59d;fill-opacity:1;fill-rule:nonzero;stroke:none"
           d="m 16300,4216.81 -572.4,-786.71 -22.7,16.5 572.4,786.66 22.7,-16.45" /></g><g
         transform="matrix(0.08284916,0,0,-0.08284916,-1060.5106,885.06883)"
         id="g1670"><path
           id="path1672"
           style="fill:#ffffff;fill-opacity:1;fill-rule:nonzero;stroke:none"
           d="m 16300,3525.76 -8.4,-11.54 -295.5,215.04 8.4,11.53 295.5,-215.03" /></g><g
         transform="matrix(0.08214466,0,0,-0.08214466,-1060.5106,885.06883)"
         id="g1674"><path
           id="path1676"
           style="fill:#36968b;fill-opacity:1;fill-rule:nonzero;stroke:none"
           d="m 16300,3474.88 -15.9,-21.9 -192.4,140.05 15.9,21.86 192.4,-140.01" /></g><g
         transform="matrix(0.07735112,0,0,-0.07735112,-1060.5106,885.06883)"
         id="g1678"><path
           id="path1680"
           style="fill:#ed2765;fill-opacity:1;fill-rule:nonzero;stroke:none"
           d="m 16300,5623.15 c -155.5,-66.54 -311,-132.99 -466.6,-199.44 -44.3,103.62 -88.6,207.38 -133,311.04 -132.9,311.13 333.7,510.58 466.7,199.44 44.3,-103.71 88.6,-207.33 132.9,-311.04" /></g><g
         transform="matrix(0.08186562,0,0,-0.08186562,-1060.5106,885.06883)"
         id="g1682"><path
           id="path1684"
           style="fill:#2f635f;fill-opacity:1;fill-rule:nonzero;stroke:none"
           d="m 16299.8,1258.68 c -0.4,32.15 -42.2,78.13 -92.8,102.17 l -376.7,167.33 c -83.3,-1.16 -92.5,2.11 -175.9,0.95 -85.8,-79.2 -114.5,-196.93 -75.4,-286.09 l 721,1.42 c 0,4.57 -0.1,9.27 -0.2,14.22" /></g><g
         transform="matrix(0.08186879,0,0,-0.08186879,-1060.5106,885.06883)"
         id="g1686"><path
           id="path1688"
           style="fill:#cfcfcd;fill-opacity:1;fill-rule:nonzero;stroke:none"
           d="m 15578.4,1242.99 c 6.9,-15.56 15.6,-30.38 26.6,-43.87 245,3.45 450.1,-2.37 695,1.08 0,0 -0.2,18.92 -0.6,44.21 l -721,-1.42" /></g><g
         transform="matrix(0.07973202,0,0,-0.07973202,-1060.5106,885.06883)"
         id="g1690"><path
           id="path1692"
           style="fill:#aa6e43;fill-opacity:1;fill-rule:nonzero;stroke:none"
           d="m 15859.5,4296.49 -770.4,-214.28 c 124.1,-486.65 332,-896.28 547,-1338.42 -11.5,-465.33 95.1,-871.68 336.3,-1287.45 l 327.6,109.33 c -145.4,937.69 -169.8,1592.92 -440.5,2730.82" /></g><g
         transform="matrix(0.07592554,0,0,-0.07592554,-1060.5106,885.06883)"
         id="g1694"><path
           id="path1696"
           style="fill:#356e6a;fill-opacity:1;fill-rule:nonzero;stroke:none"
           d="m 16299.8,1308.23 c -0.5,34.66 -45.5,84.24 -100.1,110.16 l -406.2,180.47 c -89.9,-1.3 -99.7,2.23 -189.6,0.98 -92.5,-85.45 -123.5,-212.3 -81.3,-308.43 l 777.4,1.58 c 0,4.88 -0.1,9.99 -0.2,15.24" /></g><g
         transform="matrix(0.07592872,0,0,-0.07592872,-1060.5106,885.06883)"
         id="g1698"><path
           id="path1700"
           style="fill:#cfcfcd;fill-opacity:1;fill-rule:nonzero;stroke:none"
           d="m 15522,1291.36 c 7.4,-16.77 16.8,-32.8 28.7,-47.3 264.1,3.67 485.3,-2.51 749.3,1.16 0,0 -0.2,20.4 -0.6,47.72 l -777.4,-1.58" /></g><g
         transform="matrix(0.07681666,0,0,-0.07681666,-1060.5106,885.06883)"
         id="g1702"><path
           id="path1704"
           style="fill:#cc7e4c;fill-opacity:1;fill-rule:nonzero;stroke:none"
           d="m 15473.4,4429.67 c -10.3,-90.71 -17,-179.98 -21.2,-268.39 -19.9,-416.58 20.9,-812.77 58.5,-1232.16 -182.5,-447.17 -229,-880.65 -148.3,-1372.92 l 358.2,-14.69 c 191.9,903.7 395.5,1527.04 549.5,2594.42 10.2,70.54 20.2,142.96 29.9,217.59 l -826.6,76.15" /></g><g
         transform="matrix(0.07793602,0,0,-0.07793602,-1060.5106,885.06883)"
         id="g1706"><path
           id="path1708"
           style="fill:#fabc3f;fill-opacity:1;fill-rule:nonzero;stroke:none"
           d="m 15879,5668.73 c -94.5,175.62 -522.2,76.5 -463.1,-197.95 56.5,-261.68 216.3,-702.56 884.1,-848.58 -6.3,96.05 -11.9,198.76 -13.7,300.6 -1.3,71.3 -0.8,142 2.5,209.67 -165.8,80.08 -325.5,379.68 -409.8,536.26" /></g><g
         transform="matrix(0.07809724,0,0,-0.07809724,-1060.5106,885.06883)"
         id="g1710"><path
           id="path1712"
           style="fill:#fcd457;fill-opacity:1;fill-rule:nonzero;stroke:none"
           d="m 16266.3,4612.65 c -666.3,145.73 -825.9,585.7 -882.2,846.84 -59,273.87 367.8,372.8 462.2,197.53 84.1,-156.25 243.4,-455.24 408.9,-535.14 1.3,28.36 3.2,56.28 5.5,83.38 39.3,438.98 -58,828.63 -322.5,989.26 -216.9,131.72 -527.9,-5.6 -674,-290.5 -206.3,-402.34 -114,-1335.86 -89.1,-1767.38 176,-26.16 848,-92.11 1117.2,68.7 -0.3,46.71 -4.7,113.43 -10.5,192.53 -4.7,64.59 -10.3,137.5 -15.5,214.78" /></g><g
         transform="matrix(0.07599398,0,0,-0.07599398,-1060.5106,885.06883)"
         id="g1714"><path
           id="path1716"
           style="fill:#2f635f;fill-opacity:1;fill-rule:nonzero;stroke:none"
           d="m 15606.1,5801.06 8.2,-189.4 c 237.9,569.96 576.5,483.48 685.7,262.46 -34.4,282.71 -441.6,478.43 -693.9,-73.06" /></g><g
         transform="matrix(0.07620494,0,0,-0.07620494,-1060.5106,885.06883)"
         id="g1718"><path
           id="path1720"
           style="fill:#2f635f;fill-opacity:1;fill-rule:nonzero;stroke:none"
           d="m 16254.9,5857.86 c 4.4,-36.16 2.7,-73.7 -6.2,-111.34 -100.1,-421.82 -547.9,-950.49 -688.7,-1183.58 l 5.9,-135.22 c 140.8,233.04 615.7,784.99 715.8,1206.87 18.3,77.07 6.3,156.33 -26.8,223.27" /></g><g
         transform="matrix(0.0762889,0,0,-0.0762889,-1060.5106,885.06883)"
         id="g1722"><path
           id="path1724"
           style="fill:#f59a79;fill-opacity:1;fill-rule:nonzero;stroke:none"
           d="m 16136,6145.02 c -90.6,0 -164,73.43 -164,164.02 v 384.37 c 0,90.59 73.4,164.07 164,164.07 90.6,0 164,-73.48 164,-164.07 v -384.37 c 0,-90.59 -73.4,-164.02 -164,-164.02" /></g><g
         transform="matrix(0.07638415,0,0,-0.07638415,-1060.5106,885.06883)"
         id="g1726"><path
           id="path1728"
           style="fill:#f47673;fill-opacity:1;fill-rule:nonzero;stroke:none"
           d="m 16202.9,6570.88 c 68.7,-57.04 97.1,-136.25 63.4,-176.75 -33.6,-40.46 -116.6,-27.07 -185.3,30.06 -68.7,57.04 -97.1,136.16 -63.4,176.66 33.6,40.5 116.6,27.11 185.3,-29.97" /></g><g
         transform="matrix(0.07793532,0,0,-0.07793532,-1060.5106,885.06883)"
         id="g1730"><path
           id="path1732"
           style="fill:#f59a79;fill-opacity:1;fill-rule:nonzero;stroke:none"
           d="m 16185.4,6922.31 c 114.6,-230.85 50.1,-496.15 -144,-592.57 -194.2,-96.37 -444.6,12.58 -559.2,243.44 -114.6,230.85 -50.1,496.11 144.1,592.57 194.2,96.37 444.5,-12.59 559.1,-243.44" /></g><g
         transform="matrix(0.07778821,0,0,-0.07778821,-1060.5106,885.06883)"
         id="g1734"><path
           id="path1736"
           style="fill:#b04027;fill-opacity:1;fill-rule:nonzero;stroke:none"
           d="m 16266.9,6984.34 c -54.5,-103.58 -227.1,-66.39 -242,-168.3 -46.2,-317.05 -193.9,-66.57 -221,-169.25 -52.1,-196.55 -66.5,-324.44 -252.4,-192.2 -154.3,109.75 -230.6,573.51 67.9,735.06 224.4,121.45 416.6,41.54 535.4,-36.51 94.7,-62.18 145.2,-106.12 112.1,-168.8" /></g><g
         transform="matrix(0.07918697,0,0,-0.07918697,-1060.5106,885.06883)"
         id="g1738"><path
           id="path1740"
           style="fill:#2f635f;fill-opacity:1;fill-rule:nonzero;stroke:none"
           d="m 15820.7,7011.06 c 214,71.81 414,102.55 446.6,68.65 32.7,-33.95 -114.4,-119.62 -328.4,-191.39 l -118.2,122.74" /></g><g
         transform="matrix(0.07732219,0,0,-0.07732219,-1060.5106,885.06883)"
         id="g1742"><path
           id="path1744"
           style="fill:#b04027;fill-opacity:1;fill-rule:nonzero;stroke:none"
           d="m 16184.8,6828.56 c -1.6,0 -3.1,0.41 -4.6,1.18 -4.6,2.6 -6.3,8.4 -3.7,12.96 20.8,36.91 64.2,71.77 114.5,66.29 5.3,-0.54 9,-5.29 8.5,-10.49 -0.6,-5.25 -5.6,-8.94 -10.5,-8.44 -42.1,4.56 -78.2,-25.19 -95.9,-56.67 -1.7,-3.1 -5,-4.83 -8.3,-4.83" /></g><g
         transform="matrix(0.07727421,0,0,-0.07727421,-1060.5106,885.06883)"
         id="g1746"><path
           id="path1748"
           style="fill:#b04027;fill-opacity:1;fill-rule:nonzero;stroke:none"
           d="m 16295.5,6816.44 c 4.5,-22.37 -1.2,-42.36 -12.7,-44.65 -11.5,-2.28 -24.4,13.93 -29,36.34 -4.5,22.33 1.3,42.32 12.7,44.61 11.6,2.32 24.6,-13.93 29,-36.3" /></g><g
         transform="matrix(0.07749964,0,0,-0.07749964,-1060.5106,885.06883)"
         id="g1750"><path
           id="path1752"
           style="fill:#ffffff;fill-opacity:1;fill-rule:nonzero;stroke:none"
           d="m 16174.2,6604.9 c 19.2,-79.21 99.8,-49.99 125.8,1.63 l -125.8,-1.63" /></g><g
         transform="matrix(0.07794731,0,0,-0.07794731,-1060.5106,885.06883)"
         id="g1754"><path
           id="path1756"
           style="fill:#f59a79;fill-opacity:1;fill-rule:nonzero;stroke:none"
           d="m 16204.8,6776.56 c 0,0 95.2,-81.69 77,-108.17 -24.8,-36.29 -72.3,-29.55 -72.3,-29.55 l -4.7,137.72" /></g><g
         transform="matrix(0.07743261,0,0,-0.07743261,-1060.5106,885.06883)"
         id="g1758"><path
           id="path1760"
           style="fill:#58c59d;fill-opacity:1;fill-rule:nonzero;stroke:none"
           d="m 15461.5,6762.95 c -86.9,259.05 30.3,531.99 261.9,609.63 231.5,77.68 489.7,-69.25 576.6,-328.21 l -838.5,-281.42" /></g><g
         transform="matrix(0.07633194,0,0,-0.07633194,-1060.5106,885.06883)"
         id="g1762"><path
           id="path1764"
           style="fill:#ffffff;fill-opacity:1;fill-rule:nonzero;stroke:none"
           d="m 16122.7,6834.43 c -16.4,0 -28.5,-2.36 -37.1,-7.21 -24.7,-14.14 -38.7,-33.37 -41.5,-57.12 -4.3,-35.31 17.4,-80.19 56.5,-117.21 27.2,-25.65 57.7,-48.85 91.1,-68.86 29.5,45.06 74.7,139.9 92.1,227.24 -22.1,2.32 -46.1,6.75 -69.4,11.05 -32.3,5.96 -65.7,12.11 -91.7,12.11 z m 73.1,-268.66 -5.5,3.19 c -36.3,21.31 -69.7,46.22 -99.1,74.04 -42.8,40.49 -65.5,88.6 -60.7,128.71 3.3,27.92 20,51.26 48.4,67.39 10.6,6.05 24.9,9.01 43.8,9.01 27.3,0 61.3,-6.29 94.2,-12.34 25.6,-4.71 52.2,-9.61 75.6,-11.6 l 7.5,-0.6 -1.4,-7.4 c -17.3,-94.88 -68.4,-200.48 -99.2,-245.17 l -3.6,-5.23" /></g><g
         transform="matrix(0.07802069,0,0,-0.07802069,-1060.5106,885.06883)"
         id="g1766"><path
           id="path1768"
           style="fill:#ffffff;fill-opacity:1;fill-rule:nonzero;stroke:none"
           d="m 16239.8,6749.37 c -2.8,2.4 -6.9,2.04 -9.3,-0.68 -25.5,-29.39 -132.3,-72.43 -258.6,-73.61 l -2.5,-0.04 c -8.6,0 -18.3,0.49 -29.6,1.4 -3.8,0.4 -6.5,-2.04 -7.2,-5.47 -16.5,-90.84 -65.5,-191.9 -94.9,-234.63 -1.1,-1.58 -1.4,-3.43 -1,-5.29 0.4,-1.81 1.5,-3.34 3.1,-4.29 101.9,-59.74 217.1,-85.42 326.4,-104.23 0.4,-0.04 0.7,-0.09 1.1,-0.09 2.1,0 4,0.95 5.3,2.58 54,69.77 119.5,177.52 125,294.58 2.4,51.37 -5.9,85.5 -57.8,129.77" /></g><g
         transform="matrix(0.07600704,0,0,-0.07600704,-1060.5106,885.06883)"
         id="g1770"><path
           id="path1772"
           style="fill:#f59a79;fill-opacity:1;fill-rule:nonzero;stroke:none"
           d="m 16256.7,6849.81 c 41,-57.51 43.3,-126.25 5.1,-153.45 -38.2,-27.15 -102.4,-2.6 -143.3,55 -41.1,57.51 -43.3,126.2 -5.1,153.45 38.2,27.2 102.4,2.55 143.3,-55" /></g><g
         transform="matrix(0.08242336,0,0,-0.08242336,-1060.5106,885.06883)"
         id="g1774"><path
           id="path1776"
           style="fill:#f59a79;fill-opacity:1;fill-rule:nonzero;stroke:none"
           d="m 16296.7,4564.48 c -482.9,59.49 -1063.5,140.39 -1270.6,674.2 -56.6,145.73 -176.7,302.73 -314.2,215.75 -169.9,-107.6 -71.5,-356.01 10,-476.62 315.4,-467.6 949,-627.33 1578.1,-608.33 l -3.3,195" /></g><g
         transform="matrix(0.08397205,0,0,-0.08397205,-1060.5106,885.06883)"
         id="g1778"><path
           id="path1780"
           style="fill:#f59a79;fill-opacity:1;fill-rule:nonzero;stroke:none"
           d="m 16193.2,4409.88 c 39,6.73 71.4,15.42 89.8,24.83 12.2,6.26 17,21.22 10.7,33.4 -6.2,12.23 -21.1,17.06 -33.4,10.76 -39.8,-20.42 -194.7,-42.23 -296,-28.57 -13.6,1.93 -26.1,-7.65 -27.9,-21.26 -1.9,-13.57 7.6,-26.05 21.3,-27.89 68.7,-9.33 163.3,-3.7 235.5,8.73" /></g><g
         transform="matrix(0.08420771,0,0,-0.08420771,-1060.5106,885.06883)"
         id="g1782"><path
           id="path1784"
           style="fill:#f59a79;fill-opacity:1;fill-rule:nonzero;stroke:none"
           d="m 16204.1,4349.82 c 36.2,6.25 66.4,13.87 79.6,21.2 12,6.62 16.3,21.7 9.7,33.68 -6.6,11.94 -21.7,16.34 -33.7,9.64 -25.6,-14.16 -182.1,-36.28 -235.6,-26.27 -13.5,2.56 -26.4,-6.32 -28.9,-19.77 -2.6,-13.45 6.3,-26.39 19.8,-28.87 39.8,-7.5 124.1,-0.79 189.1,10.39" /></g><g
         transform="matrix(0.08412481,0,0,-0.08412481,-1060.5106,885.06883)"
         id="g1786"><path
           id="path1788"
           style="fill:#f59a79;fill-opacity:1;fill-rule:nonzero;stroke:none"
           d="m 16248.9,4296.91 c 14.7,2.56 26.4,5.62 33.7,9.14 12.3,6 17.4,20.84 11.4,33.17 -6,12.29 -20.9,17.41 -33.2,11.37 -20.7,-10.15 -156.6,-19.17 -204,-3.32 -13,4.32 -27,-2.68 -31.3,-15.72 -4.4,-13 2.6,-27.01 15.6,-31.37 43.9,-14.63 149.1,-13.38 207.8,-3.27" /></g><g
         transform="matrix(0.08389197,0,0,-0.08389197,-1060.5106,885.06883)"
         id="g1790"><path
           id="path1792"
           style="fill:#f59a79;fill-opacity:1;fill-rule:nonzero;stroke:none"
           d="m 16269.7,4245.69 c 4,0.67 7.5,1.51 10.3,2.44 13,4.41 20,18.5 15.6,31.53 -4.4,13 -18.4,20.02 -31.6,15.56 -21.3,-7.23 -122.9,-1.22 -152.6,18.09 -11.5,7.52 -26.8,4.29 -34.4,-7.19 -7.4,-11.53 -4.2,-26.92 7.3,-34.4 40.3,-26.33 143.2,-33.31 185.4,-26.03" /></g><g
         transform="matrix(0.08335399,0,0,-0.08335399,-1060.5106,885.06883)"
         id="g1794"><path
           id="path1796"
           style="fill:#f59a79;fill-opacity:1;fill-rule:nonzero;stroke:none"
           d="m 16177.8,4249.47 c 37.9,6.09 66.2,21.71 85.7,45.83 30.5,37.58 36.5,93.28 18.4,170.31 l -3.7,22.09 -25.5,-3.26 c -66.3,-13.16 -105.2,4.7 -112.1,21.33 -5.4,13.08 11.3,27.13 19.7,33.23 20.1,7.11 39.9,16.71 57.6,33.77 10,9.52 10.4,25.35 0.8,35.34 -9.6,10.07 -25.4,10.33 -35.4,0.8 -23.3,-22.34 -57.2,-27.76 -86.9,-37.2 -76.4,-24.29 -135.5,-87.69 -137.4,-147.45 -1.9,-56.5 12.2,-100.9 41.6,-131.92 28,-29.71 102.7,-54.85 177.2,-42.87" /></g><g
         transform="matrix(0.07655419,0,0,-0.07655419,-1060.5106,885.06883)"
         id="g1798"><path
           id="path1800"
           style="fill:#fcd457;fill-opacity:1;fill-rule:nonzero;stroke:none"
           d="m 16300,5456.76 c -157.2,-67.19 -314.3,-134.33 -471.5,-201.56 -44.8,104.79 -89.5,209.53 -134.3,314.32 -134.4,314.37 337.1,515.89 471.4,201.52 44.8,-104.79 89.7,-209.49 134.4,-314.28" /></g><g
         transform="matrix(0.07281792,0,0,-0.07281792,-1060.5106,885.06883)"
         id="g1802"><path
           id="path1804"
           style="fill:#58c59d;fill-opacity:1;fill-rule:nonzero;stroke:none"
           d="m 16300,5990.03 c 0,-59.2 -48.4,-107.65 -107.6,-107.65 h -706.7 c -59.2,0 -107.7,48.45 -107.7,107.65 v 480.45 c 0,59.2 48.5,107.65 107.7,107.65 h 706.7 c 59.2,0 107.6,-48.45 107.6,-107.65 v -480.45" /></g><g
         transform="matrix(0.07117962,0,0,-0.07117962,-1060.5106,885.06883)"
         id="g1806"><path
           id="path1808"
           style="fill:#58c59d;fill-opacity:1;fill-rule:nonzero;stroke:none"
           d="m 16300,4842.53 c 0,-45.45 -37.2,-82.57 -82.6,-82.57 h -480.2 c -45.4,0 -82.5,37.12 -82.5,82.57 v 873.72 c 0,45.45 37.1,82.62 82.5,82.62 h 480.2 c 45.4,0 82.6,-37.17 82.6,-82.62 v -873.72" /></g><g
         transform="matrix(0.07281792,0,0,-0.07281792,-1060.5106,885.06883)"
         id="g1810"><path
           id="path1812"
           style="fill:#2f635f;fill-opacity:1;fill-rule:nonzero;stroke:none"
           d="m 16300,4640.12 c 0,-51.79 -42.4,-94.18 -94.2,-94.18 h -673.3 c -51.8,0 -94.2,42.39 -94.2,94.18 v 1705.03 c 0,51.79 42.4,94.18 94.2,94.18 h 673.3 c 51.8,0 94.2,-42.39 94.2,-94.18 V 4640.12" /></g><g
         transform="matrix(0.07134331,0,0,-0.07134331,-1060.5106,885.06883)"
         id="g1814"><path
           id="path1816"
           style="fill:#a6e0d7;fill-opacity:1;fill-rule:nonzero;stroke:none"
           d="m 16260.9,4939.36 c 0,20.58 -5.7,36.99 -17.2,49.21 -11.4,12.26 -26.9,18.39 -46.5,18.39 -19.6,0 -35.1,-6.13 -46.6,-18.39 -11.4,-12.22 -17.1,-28.63 -17.1,-49.21 v -43.46 h 127.4 z m -166.5,-91.03 v 93.41 c 0,22.35 4.2,42.08 12.8,59.19 8.5,17.11 20.5,30.46 36,39.95 15.4,9.5 33.4,14.24 54,14.24 20.6,0 38.6,-4.74 54,-14.24 15.5,-9.49 27.5,-22.84 36,-39.95 8.5,-17.11 12.8,-36.84 12.8,-59.19 v -93.41 h -205.6" /></g><g
         transform="matrix(0.07134331,0,0,-0.07134331,-1060.5106,885.06883)"
         id="g1818"><path
           id="path1820"
           style="fill:#a6e0d7;fill-opacity:1;fill-rule:nonzero;stroke:none"
           d="m 16261.8,5250.15 h 38.2 v -159.18 h -205.6 v 155.37 h 38.2 v -108.09 h 44.6 v 95.48 h 37 v -95.48 h 47.6 v 111.9" /></g><g
         transform="matrix(0.07134331,0,0,-0.07134331,-1060.5106,885.06883)"
         id="g1822"><path
           id="path1824"
           style="fill:#a6e0d7;fill-opacity:1;fill-rule:nonzero;stroke:none"
           d="m 16094.4,5288.07 v 47.57 h 166.8 v 103.1 h 38.8 v -150.67 h -205.6" /></g><g
         transform="matrix(0.07134331,0,0,-0.07134331,-1060.5106,885.06883)"
         id="g1826"><path
           id="path1828"
           style="fill:#a6e0d7;fill-opacity:1;fill-rule:nonzero;stroke:none"
           d="m 16094.4,5465.44 v 47.62 h 205.6 v -47.62 h -205.6" /></g><g
         transform="matrix(0.07134331,0,0,-0.07134331,-1060.5106,885.06883)"
         id="g1830"><path
           id="path1832"
           style="fill:#a6e0d7;fill-opacity:1;fill-rule:nonzero;stroke:none"
           d="m 16094.4,5758.32 205.6,-89 v -47.03 l -205.6,-88.66 v 51.38 l 146.9,62.55 -146.9,63.44 v 47.32" /></g><g
         transform="matrix(0.07134331,0,0,-0.07134331,-1060.5106,885.06883)"
         id="g1834"><path
           id="path1836"
           style="fill:#a6e0d7;fill-opacity:1;fill-rule:nonzero;stroke:none"
           d="m 16261.8,5934.56 h 38.2 v -159.18 h -205.6 v 155.37 h 38.2 v -108.1 h 44.6 v 95.49 h 37 v -95.49 h 47.6 v 111.91" /></g><g
         transform="matrix(0.07134331,0,0,-0.07134331,-1060.5106,885.06883)"
         id="g1838"><path
           id="path1840"
           style="fill:#a6e0d7;fill-opacity:1;fill-rule:nonzero;stroke:none"
           d="m 16142.4,6091.4 c -6.2,-7.41 -9.2,-18.29 -9.2,-32.58 V 6020 h 71.6 v 38.82 c 0,14.29 -3.1,25.17 -9.4,32.58 -6.3,7.47 -15.1,11.18 -26.4,11.18 -11.6,0 -20.4,-3.71 -26.6,-11.18 z m 157.6,12.02 -57.3,-39.61 v -2.37 -41.44 h 57.3 v -47.57 h -205.6 v 89.01 c 0,18.2 3,34.02 9.1,47.47 6.1,13.4 14.7,23.73 25.9,31 11.1,7.22 24.3,10.83 39.6,10.83 15.2,0 28.4,-3.66 39.5,-11.02 11.1,-7.32 19.6,-17.76 25.4,-31.26 l 66.1,46.14 v -51.18" /></g><g
         transform="matrix(0.07134331,0,0,-0.07134331,-1060.5106,885.06883)"
         id="g1842"><path
           id="path1844"
           style="fill:#a6e0d7;fill-opacity:1;fill-rule:nonzero;stroke:none"
           d="m 16227.2,6284.1 h 72.8 v -47.57 h -73.4 l -132.2,-79.61 v 50.54 l 91.3,54.94 -91.3,54.88 v 46.73 l 132.8,-79.91" /></g><g
         transform="matrix(0.09491663,0,0,-0.09491663,-1060.5106,885.06883)"
         id="g1846"><path
           id="path1848"
           style="fill:#e19839;fill-opacity:1;fill-rule:nonzero;stroke:none"
           d="m 15644.6,1216.26 c 0.4,27.68 36.4,67.38 80.1,88.12 l 324.9,144.36 c 71.8,-1.04 79.7,1.78 151.6,0.78 74,-68.32 98.8,-169.86 65.1,-246.72 l -621.9,1.23 c 0,3.94 0.1,7.99 0.2,12.23" /></g><g
         transform="matrix(0.09472013,0,0,-0.09472013,-1060.5106,885.06883)"
         id="g1850"><path
           id="path1852"
           style="fill:#cfcfcd;fill-opacity:1;fill-rule:nonzero;stroke:none"
           d="m 16300,1205.3 c -5.9,-13.45 -13.4,-26.3 -23,-37.95 -211.7,3.01 -389,-2.02 -600.7,0.93 0,0 0.3,16.38 0.6,38.25 l 623.1,-1.23" /></g><g
         transform="matrix(0.09632986,0,0,-0.09632986,-1060.5106,885.06883)"
         id="g1854"><path
           id="path1856"
           style="fill:#f47673;fill-opacity:1;fill-rule:nonzero;stroke:none"
           d="m 16300,3729.56 -650.6,121.74 c -179.8,-939.06 169.4,-1661.68 116.4,-2445.28 l 227.2,-10.11 c 140.5,484.36 122.3,902.29 -20.9,1138.28 134,376.48 266.4,822.75 327.9,1195.37" /></g><g
         transform="matrix(0.09955672,0,0,-0.09955672,-1060.5106,885.06883)"
         id="g1858"><path
           id="path1860"
           style="fill:#eeb940;fill-opacity:1;fill-rule:nonzero;stroke:none"
           d="m 15718.9,1137.78 c -7.3,25.41 14.8,71.47 48.9,102.37 l 257.2,220.87 c 65.9,18.74 72.3,23.49 138.3,42.3 86.3,-42.13 136.7,-128.02 127,-207.5 l -568.2,-169.28 c -1.1,3.62 -2.1,7.34 -3.2,11.24" /></g><g
         transform="matrix(0.0994971,0,0,-0.0994971,-1060.5106,885.06883)"
         id="g1862"><path
           id="path1864"
           style="fill:#cfcfcd;fill-opacity:1;fill-rule:nonzero;stroke:none"
           d="m 16300,1296.59 c -1.7,-13.86 -5,-27.62 -10.6,-40.84 -193.8,-55.24 -354.1,-108.32 -547.9,-163.56 0,0 -4.4,15 -10,35.03 l 568.5,169.37" /></g><g
         transform="matrix(0.09712961,0,0,-0.09712961,-1060.5106,885.06883)"
         id="g1866"><path
           id="path1868"
           style="fill:#ec1863;fill-opacity:1;fill-rule:nonzero;stroke:none"
           d="m 16300,3779.49 c -40.1,202.74 -236.7,334.98 -439.7,295.43 -200.3,-39.01 -332.1,-230.78 -298.1,-430.87 205.6,-21.21 541.8,44.38 737.8,135.44" /></g><g
         transform="matrix(0.09890373,0,0,-0.09890373,-1060.5106,885.06883)"
         id="g1870"><path
           id="path1872"
           style="fill:#f59a79;fill-opacity:1;fill-rule:nonzero;stroke:none"
           d="m 16025.1,2490.36 c -13.7,331.86 6.5,651.67 -54,975.97 5.3,9.88 10,20.08 14.4,30.39 14.3,33.67 23.5,69.59 27.3,106.76 3.5,34.88 2.2,70.87 -4.9,107.11 -0.1,0.36 -0.2,0.75 -0.3,1.11 -192.4,-89.43 -522.6,-153.84 -724.6,-133.01 0.5,-2.96 1,-5.96 1.5,-8.92 4.4,-22.26 56,-200.82 60.3,-215.94 227.7,-812.07 520.3,-1226.01 760.6,-1905 l 194.6,47.08 c -33.1,420.61 -97.7,781.79 -274.9,994.45" /></g><g
         transform="matrix(0.10001004,0,0,-0.10001004,-1060.5106,885.06883)"
         id="g1874"><path
           id="path1876"
           style="fill:#e5f6fb;fill-opacity:1;fill-rule:nonzero;stroke:none"
           d="m 15021.3,2029.19 c 1.9,-97.85 27,-200.54 117.6,-72.49 9.7,-97.6 118.5,-108.72 161,-27.37 6.3,-92.39 140.2,-105.05 143.8,-4.73 44.4,-86.81 192.9,-70.72 212.4,27.37 22.9,-121.8 204.7,-67.51 194.2,42.61 8,-111.89 154.7,-61.87 141.9,42.4 45.3,-135.8 183,-64.9 175.5,57.08 2.6,-54.47 46,-98.66 84.2,-45.72 48.1,66.67 -66.4,228.26 -79.5,293.52 l -1151.1,-312.67" /></g><g
         transform="matrix(0.0994971,0,0,-0.0994971,-1060.5106,885.06883)"
         id="g1878"><path
           id="path1880"
           style="fill:#59c59b;fill-opacity:1;fill-rule:nonzero;stroke:none"
           d="m 15881.9,3984.76 c -112.4,257.17 -74.7,335.99 -67.9,643.39 7.5,340.02 -208.5,462.88 -405,428.03 -222.3,-39.47 -400.7,-390.16 -428.5,-504.44 -23.2,-94.84 -12.1,-168.91 12.9,-237.34 105.1,39.43 195.2,137.14 237.1,314.74 60.6,255.92 401.2,218.73 392.1,-44.14 -15.8,-454.65 -287,-1000.46 -546.4,-1224.62 -35.6,-249.18 -13.3,-927.07 22.9,-1333.07 304.5,-52.51 1049.7,16.02 1200.9,203.8 -56.8,750.96 -275,1426.29 -418.1,1753.65" /></g><g
         transform="matrix(0.09541793,0,0,-0.09541793,-1060.5106,885.06883)"
         id="g1882"><path
           id="path1884"
           style="fill:#41ad99;fill-opacity:1;fill-rule:nonzero;stroke:none"
           d="m 16290.5,4781.01 c 9.5,274.11 -345.7,312.9 -408.8,46.03 -43.8,-185.19 -137.7,-287.08 -247.3,-328.19 37.3,-102.45 104.4,-192.92 138.8,-318.18 43.6,-158.46 -8.6,-369.65 -52.5,-676.63 270.5,233.74 553.3,802.88 569.8,1276.97" /></g><g
         transform="matrix(0.09473072,0,0,-0.09473072,-1060.5106,885.06883)"
         id="g1886"><path
           id="path1888"
           style="fill:#e5f6fb;fill-opacity:1;fill-rule:nonzero;stroke:none"
           d="m 16288,5359.45 c 12,-19.1 -51.6,-80.81 -142.1,-137.86 -90.5,-57.05 -173.6,-87.82 -185.6,-68.75 -12.1,19.07 51.5,80.81 142,137.86 90.5,57.06 173.6,87.82 185.7,68.75" /></g><g
         transform="matrix(0.09531456,0,0,-0.09531456,-1060.5106,885.06883)"
         id="g1890"><path
           id="path1892"
           style="fill:#e5f6fb;fill-opacity:1;fill-rule:nonzero;stroke:none"
           d="m 16260.1,5284.78 c 39.9,-51.85 -2.3,-151.23 -94.2,-222 -91.9,-70.69 -198.7,-86.01 -238.6,-34.16 -39.9,51.89 2.2,151.23 94.1,221.96 91.9,70.77 198.8,86.05 238.7,34.2" /></g><g
         transform="matrix(0.09484078,0,0,-0.09484078,-1060.5106,885.06883)"
         id="g1894"><path
           id="path1896"
           style="fill:#f59a79;fill-opacity:1;fill-rule:nonzero;stroke:none"
           d="m 16168.1,5173.56 c -82.4,-10.67 -131.9,26.71 -131.9,99.58 v 309.18 c 0,72.87 59,131.94 131.9,131.94 72.8,0 131.9,-59.07 131.9,-131.94 v -309.18 c 0,-72.87 -49.6,-88.9 -131.9,-99.58" /></g><g
         transform="matrix(0.09469156,0,0,-0.09469156,-1060.5106,885.06883)"
         id="g1898"><path
           id="path1900"
           style="fill:#f47673;fill-opacity:1;fill-rule:nonzero;stroke:none"
           d="m 16123.3,5497.82 c -55.3,-46.01 -78.2,-109.86 -51.1,-142.54 27.2,-32.67 94.1,-21.87 149.5,24.22 55.4,46.01 78.3,109.83 51.1,142.5 -27.1,32.71 -94,21.87 -149.5,-24.18" /></g><g
         transform="matrix(0.09611713,0,0,-0.09611713,-1060.5106,885.06883)"
         id="g1902"><path
           id="path1904"
           style="fill:#f59a79;fill-opacity:1;fill-rule:nonzero;stroke:none"
           d="m 15637,5807.28 c -93,-187.19 -40.6,-402.31 116.8,-480.48 157.4,-78.14 360.4,10.2 453.3,197.39 92.9,187.18 40.7,402.3 -116.8,480.47 -157.4,78.14 -360.4,-10.2 -453.3,-197.38" /></g><g
         transform="matrix(0.09287052,0,0,-0.09287052,-1060.5106,885.06883)"
         id="g1906"><path
           id="path1908"
           style="fill:#d8e7ec;fill-opacity:1;fill-rule:nonzero;stroke:none"
           d="m 16291,5886.53 c -2.9,0 -5.5,1.48 -7,4.07 -14.7,26.17 -44.9,50.82 -79.8,47.14 -4.4,-0.5 -8.2,2.69 -8.7,7.02 -0.5,4.37 2.7,8.25 7,8.74 41.9,4.45 78.1,-24.42 95.3,-55.19 2.2,-3.8 0.8,-8.63 -3,-10.79 -1.2,-0.65 -2.5,-0.99 -3.8,-0.99" /></g><g
         transform="matrix(0.09256043,0,0,-0.09256043,-1060.5106,885.06883)"
         id="g1910"><path
           id="path1912"
           style="fill:#7c2e1f;fill-opacity:1;fill-rule:nonzero;stroke:none"
           d="m 16261.5,5892.65 c -3.8,-18.68 1,-35.37 10.6,-37.31 9.6,-1.91 20.4,11.62 24.2,30.3 3.7,18.67 -1.1,35.37 -10.7,37.27 -9.6,1.95 -20.4,-11.62 -24.1,-30.26" /></g><g
         transform="matrix(0.09272482,0,0,-0.09272482,-1060.5106,885.06883)"
         id="g1914"><path
           id="path1916"
           style="fill:#ffffff;fill-opacity:1;fill-rule:nonzero;stroke:none"
           d="m 16300,5734.31 c -14.4,-75.9 -100.3,-110.64 -100.3,-31.58 l 100.3,31.58" /></g><g
         transform="matrix(0.09204573,0,0,-0.09204573,-1060.5106,885.06883)"
         id="g1918"><path
           id="path1920"
           style="fill:#f59a79;fill-opacity:1;fill-rule:nonzero;stroke:none"
           d="m 16300,5941.63 c -21.2,-73.55 -83.1,-73.89 -67.6,-96.31 21,-30.74 61.8,-36.03 61.8,-36.03 l 5.8,132.34" /></g><g
         transform="matrix(0.09310371,0,0,-0.09310371,-1060.5106,885.06883)"
         id="g1922"><path
           id="path1924"
           style="fill:#7c2e1f;fill-opacity:1;fill-rule:nonzero;stroke:none"
           d="m 16196.6,5945 c -48.8,0 -88.6,-39.71 -88.6,-88.51 0,-48.81 39.8,-88.52 88.6,-88.52 48.8,0 88.5,39.71 88.5,88.52 0,48.8 -39.7,88.51 -88.5,88.51 z m 0,-191.95 c -57.1,0 -103.4,46.41 -103.4,103.44 0,57.06 46.3,103.44 103.4,103.44 57,0 103.4,-46.38 103.4,-103.44 0,-57.03 -46.4,-103.44 -103.4,-103.44" /></g><g
         transform="matrix(0.09448518,0,0,-0.09448518,-1060.5106,885.06883)"
         id="g1926"><path
           id="path1928"
           style="fill:#7c2e1f;fill-opacity:1;fill-rule:nonzero;stroke:none"
           d="m 16261.6,5645.85 c -1.4,0 -2.8,0.41 -4.1,1.24 -3.4,2.24 -4.2,6.79 -2,10.19 l 3.1,4.74 c 11.3,16.77 25.4,37.67 20.2,56.46 -6.4,22.62 -36.6,32.78 -62.2,39.12 -51.3,12.7 -106.6,16.06 -151.6,9.26 -4.1,-0.63 -7.8,2.17 -8.4,6.16 -0.6,4.04 2.2,7.77 6.2,8.37 46.9,7.09 104.2,3.62 157.3,-9.52 29.5,-7.29 64.3,-19.53 72.8,-49.44 7.1,-25.27 -9.1,-49.32 -22.1,-68.62 l -3.1,-4.67 c -1.4,-2.13 -3.7,-3.29 -6.1,-3.29" /></g><g
         transform="matrix(0.09785492,0,0,-0.09785492,-1060.5106,885.06883)"
         id="g1930"><path
           id="path1932"
           style="fill:#d8e7ec;fill-opacity:1;fill-rule:nonzero;stroke:none"
           d="m 16293.7,5250.73 c -4.3,83.68 -56,129.07 -135.1,140.93 26.1,53.75 49.5,124.19 13.4,178.85 -31.3,47.55 -98,58.69 -128.2,106.78 -32,51.09 -13.2,86.2 -10.7,136.35 5,97.41 -145.1,190.2 -241.9,152.24 -17,45.97 -64.4,50.98 -121.2,46.76 -95.1,-7.1 -205.2,-74.63 -278.2,-136.96 -30.7,-26.24 -83.1,-77.87 -65.8,-124.19 24,-64.07 157,-73.51 213.6,-64.68 2.1,-38.54 12.2,-66.84 46.8,-86.2 27.9,-15.61 88.5,-12.94 102.1,-46.94 13.1,-32.41 -28.8,-78.63 -34.5,-109.99 -9.1,-49.68 15.4,-49.1 39.7,-80.75 20.3,-26.57 14.4,-25.02 -5,-57.79 -21.4,-36.05 -42.5,-72.86 -35.9,-116.56 25.6,-170.01 302.3,-224.49 433.4,-190.85 114.5,29.34 213.8,128.59 207.5,253" /></g><g
         transform="matrix(0.09589488,0,0,-0.09589488,-1060.5106,885.06883)"
         id="g1934"><path
           id="path1936"
           style="fill:#95a6b3;fill-opacity:1;fill-rule:nonzero;stroke:none"
           d="m 16254.8,5149.44 c -56.6,0 -104.5,18.58 -116.2,96.72 -8.3,55.1 3.6,108.48 37.4,168.04 19.8,34.88 25.7,58.17 18.6,73.32 -10.2,21.85 -49.7,29.03 -99.7,38.08 -27.5,5.04 -43,13.28 -48.6,26.01 -7.6,17.47 5.9,38.62 20.1,60.99 8.1,12.55 16.3,25.5 21.5,38.52 6.8,17.07 7.4,31.05 1.7,42.71 -12.5,25.64 -55,37.97 -96,49.85 -46.7,13.57 -95,27.59 -108.3,62.46 -8.2,21.67 -2,48.45 19,81.86 1.5,2.42 4.8,3.2 7.2,1.62 2.4,-1.51 3.2,-4.79 1.7,-7.22 -19.2,-30.42 -25,-54.15 -18.1,-72.5 11.5,-30.02 57.2,-43.3 101.4,-56.11 45.3,-13.13 88,-25.53 102.5,-55.36 7.1,-14.46 6.6,-31.24 -1.3,-51.21 -5.6,-13.94 -14.2,-27.3 -22.4,-40.25 -12.7,-19.97 -24.7,-38.81 -19.3,-51.13 3.9,-8.98 17.6,-15.67 40.8,-19.9 55.1,-10.01 94.8,-17.22 107.3,-43.97 8.8,-18.76 2.9,-44.36 -19,-82.95 -32.5,-57.39 -44,-108.64 -36.1,-161.32 12.3,-82.55 66.8,-93.81 144.9,-85.35 2.9,0.26 5.5,-1.8 5.8,-4.67 0.3,-2.87 -1.8,-5.48 -4.7,-5.77 -13.6,-1.51 -27.2,-2.47 -40.2,-2.47" /></g><g
         transform="matrix(0.09531068,0,0,-0.09531068,-1060.5106,885.06883)"
         id="g1938"><path
           id="path1940"
           style="fill:#95a6b3;fill-opacity:1;fill-rule:nonzero;stroke:none"
           d="m 16255.4,5231.71 c -32.2,0 -64.3,10.81 -86,30.42 -15.8,14.22 -32.9,39.31 -25,78.14 6.5,32.13 25.8,58.96 44.6,84.91 13.4,18.62 27.3,37.86 35.9,58.59 1.2,2.7 4.3,3.96 7,2.85 2.7,-1.15 3.9,-4.22 2.8,-6.92 -9.1,-21.88 -23.4,-41.6 -37.2,-60.7 -18.9,-26.21 -36.7,-50.93 -42.8,-80.84 -6.9,-33.9 8.1,-55.82 21.8,-68.18 27.8,-25.13 76.6,-34.5 116,-22.24 2.8,0.88 5.8,-0.67 6.6,-3.45 0.9,-2.81 -0.7,-5.77 -3.5,-6.62 -12.8,-4.04 -26.5,-5.96 -40.2,-5.96" /></g><g
         transform="matrix(0.09666676,0,0,-0.09666676,-1060.5106,885.06883)"
         id="g1942"><path
           id="path1944"
           style="fill:#95a6b3;fill-opacity:1;fill-rule:nonzero;stroke:none"
           d="m 16232.7,5450.3 c -1.1,0 -2.1,0.33 -3.1,1.02 -2.3,1.72 -2.8,5.01 -1,7.3 28.6,38.58 70.2,108.03 27.9,139.92 -11.9,8.94 -29.4,12.85 -46.3,16.61 -32.5,7.19 -69.4,15.36 -70,62.22 -0.3,17.81 5.5,33.5 10.7,47.37 5.1,13.79 9.2,24.67 4.9,31.46 -4.3,6.75 -17.2,10.98 -39.7,12.99 -6.1,0.55 -15.6,0.44 -26.6,0.29 -39.9,-0.55 -94.5,-1.31 -111.9,24.38 -6.9,10.14 -7,23.21 -0.5,38.76 1.1,2.62 4.1,3.9 6.8,2.77 2.6,-1.1 3.9,-4.16 2.8,-6.82 -5.1,-12.27 -5.3,-21.72 -0.5,-28.87 14.3,-21.02 67.8,-20.25 103.2,-19.82 11.2,0.19 21,0.3 27.6,-0.29 26.7,-2.41 41.4,-7.88 47.6,-17.84 7,-11.14 2,-24.82 -3.9,-40.66 -4.9,-12.99 -10.4,-27.73 -10.1,-43.57 0.5,-38.61 28.9,-44.89 61.8,-52.23 18,-3.97 36.7,-8.14 50.3,-18.43 37.3,-28.06 28.4,-81.45 -25.8,-154.44 -1,-1.39 -2.6,-2.12 -4.2,-2.12" /></g><g
         transform="matrix(0.09735856,0,0,-0.09735856,-1060.5106,885.06883)"
         id="g1946"><path
           id="path1948"
           style="fill:#95a6b3;fill-opacity:1;fill-rule:nonzero;stroke:none"
           d="m 16161,5107.21 c -28.9,0 -56,8.98 -75.2,25.94 -19.2,17.03 -26.2,37.14 -19.7,56.64 8.6,26.01 41.2,47.75 75.7,50.62 2.8,0.29 5.4,-1.85 5.6,-4.71 0.2,-2.87 -1.9,-5.37 -4.7,-5.58 -30.7,-2.54 -59.4,-21.27 -66.8,-43.63 -5.2,-15.51 0.6,-31.27 16.8,-45.58 26,-23.05 68.7,-29.75 108.8,-17.03 35.3,11.16 59.6,34.38 66.5,63.66 19.8,83.49 -58,112.73 -126.7,138.49 -10.1,3.8 -19.9,7.46 -28.9,11.12 -30,12.36 -46.9,27.65 -51.8,46.71 -7.3,28.7 15,61.09 37.7,89.03 1.8,2.21 5.1,2.54 7.3,0.73 2.2,-1.82 2.5,-5.04 0.7,-7.29 -29.9,-36.74 -40.5,-60.66 -35.6,-79.93 4,-15.66 18.9,-28.66 45.7,-39.68 8.9,-3.66 18.5,-7.25 28.5,-11.02 65.5,-24.56 155.1,-58.19 133.2,-150.55 -7.7,-32.43 -35.1,-59.03 -73.5,-71.13 -14.4,-4.6 -29.2,-6.81 -43.6,-6.81" /></g><g
         transform="matrix(0.09423013,0,0,-0.09423013,-1060.5106,885.06883)"
         id="g1950"><path
           id="path1952"
           style="fill:#95a6b3;fill-opacity:1;fill-rule:nonzero;stroke:none"
           d="m 16293.7,5885.01 c -0.1,0 -0.3,0 -0.4,0.04 -2.9,0.22 -5.1,2.77 -4.9,5.73 0.7,9.69 -1.8,17.18 -7.5,22.8 -19.5,19.01 -71.3,13.92 -105.5,10.55 -9.8,-0.97 -18.3,-1.79 -24.4,-1.94 -67.8,-1.16 -136,3.74 -174.8,47.84 -19.8,22.61 -24.6,48.56 -13.8,75.06 19.7,48.37 88,88.66 135.9,92.36 3,0.3 5.5,-1.94 5.8,-4.9 0.2,-2.92 -2,-5.5 -5,-5.73 -43.9,-3.41 -108.8,-41.63 -126.8,-85.73 -9.3,-22.84 -5.3,-44.37 11.9,-64.02 35.9,-40.81 101.2,-45.45 166.6,-44.18 5.7,0.12 14,0.9 23.6,1.87 36.1,3.56 90.9,8.95 113.9,-13.51 8.1,-7.86 11.7,-18.38 10.8,-31.26 -0.3,-2.81 -2.6,-4.98 -5.4,-4.98" /></g><g
         transform="matrix(0.09435889,0,0,-0.09435889,-1060.5106,885.06883)"
         id="g1954"><path
           id="path1956"
           style="fill:#95a6b3;fill-opacity:1;fill-rule:nonzero;stroke:none"
           d="m 16292.3,5962.67 c -0.5,0 -0.9,0.04 -1.4,0.15 -2.8,0.74 -4.5,3.66 -3.8,6.5 1.7,6.69 1.1,11.7 -1.9,15.26 -11.1,13.19 -53.5,9.9 -90.9,6.99 -42,-3.29 -81.7,-6.36 -99,8.15 -16.2,13.64 -22.5,30.88 -18.4,49.91 7.6,34.28 49.1,67.97 81.6,76.68 2.8,0.79 5.7,-0.9 6.5,-3.74 0.8,-2.88 -0.9,-5.79 -3.8,-6.54 -29.4,-7.97 -67.2,-39 -73.8,-68.72 -3.3,-15.1 1.6,-28.37 14.8,-39.4 13.9,-11.74 53.3,-8.68 91.3,-5.69 43.8,3.4 85.2,6.62 99.8,-10.76 5.4,-6.32 6.7,-14.62 4.1,-24.79 -0.6,-2.39 -2.8,-4 -5.1,-4" /></g><g
         transform="matrix(0.09595697,0,0,-0.09595697,-1060.5106,885.06883)"
         id="g1958"><path
           id="path1960"
           style="fill:#95a6b3;fill-opacity:1;fill-rule:nonzero;stroke:none"
           d="m 16294.1,5840.39 c -1.2,0 -2.3,0.36 -3.3,1.14 -17.8,14.08 -38.1,14.11 -57.7,14.15 -17.8,0.07 -34.8,0.11 -46.2,11.99 -9.9,10.22 -14,27.57 -13.1,54.55 0.3,8.17 2.2,17.21 4.3,26.8 4.7,22.17 9.6,45.11 -4.9,59.27 -18.7,18.2 -69.9,10.48 -99.6,0.84 -2.8,-0.88 -5.7,0.63 -6.6,3.39 -0.9,2.75 0.6,5.69 3.4,6.61 27.7,8.97 86.3,19.82 110.1,-3.31 18.7,-18.23 13,-45.22 7.8,-69 -1.9,-9.12 -3.7,-17.72 -4,-24.97 -0.8,-23.63 2.5,-38.97 10.1,-46.87 8.4,-8.71 22.5,-8.75 38.8,-8.79 20.4,-0.03 43.5,-0.11 64.2,-16.43 2.2,-1.8 2.6,-5.11 0.8,-7.39 -1,-1.29 -2.6,-1.98 -4.1,-1.98" /></g><g
         transform="matrix(0.09550154,0,0,-0.09550154,-1060.5106,885.06883)"
         id="g1962"><path
           id="path1964"
           style="fill:#f59a79;fill-opacity:1;fill-rule:nonzero;stroke:none"
           d="m 14901.2,3947.97 c 404.7,112.04 890.1,254.67 999.3,736.65 29.8,131.58 112.5,280.85 240.8,224 158.7,-70.29 106.2,-294.85 52,-408.18 -210.1,-439.13 -730.7,-655.82 -1270.1,-719.36 l -22,166.89" /></g><g
         transform="matrix(0.08727511,0,0,-0.08727511,-1060.5106,885.06883)"
         id="g1966"><path
           id="path1968"
           style="fill:#f59a79;fill-opacity:1;fill-rule:nonzero;stroke:none"
           d="m 16051.2,4293.64 c -37.6,6.47 -68.8,14.83 -86.5,23.89 -11.7,6.02 -16.4,20.45 -10.3,32.17 6,11.73 20.3,16.37 32.1,10.31 38.4,-19.64 187.3,-40.62 284.8,-27.48 13.1,1.85 25.1,-7.36 26.9,-20.46 1.8,-13.05 -7.4,-25.1 -20.5,-26.84 -66.1,-8.97 -157.1,-3.55 -226.5,8.41" /></g><g
         transform="matrix(0.08674453,0,0,-0.08674453,-1060.5106,885.06883)"
         id="g1970"><path
           id="path1972"
           style="fill:#f59a79;fill-opacity:1;fill-rule:nonzero;stroke:none"
           d="m 16094.7,4273.59 c -35.1,6.06 -64.4,13.46 -77.3,20.57 -11.6,6.43 -15.8,21.07 -9.4,32.66 6.5,11.63 21.1,15.9 32.7,9.4 24.8,-13.75 176.9,-35.22 228.8,-25.5 13.1,2.48 25.6,-6.15 28,-19.2 2.5,-13.05 -6.1,-25.58 -19.1,-28.02 -38.8,-7.28 -120.6,-0.77 -183.7,10.09" /></g><g
         transform="matrix(0.08667892,0,0,-0.08667892,-1060.5106,885.06883)"
         id="g1974"><path
           id="path1976"
           style="fill:#f59a79;fill-opacity:1;fill-rule:nonzero;stroke:none"
           d="m 16078.9,4221.3 c -14.2,2.49 -25.7,5.46 -32.7,8.88 -11.9,5.82 -16.9,20.23 -11,32.19 5.8,11.88 20.2,16.89 32.2,11.03 20.1,-9.85 151.9,-18.6 198,-3.26 12.5,4.2 26.2,-2.6 30.4,-15.18 4.2,-12.65 -2.6,-26.25 -15.2,-30.44 -42.7,-14.24 -144.7,-13.02 -201.7,-3.22" /></g><g
         transform="matrix(0.08665846,0,0,-0.08665846,-1060.5106,885.06883)"
         id="g1978"><path
           id="path1980"
           style="fill:#f59a79;fill-opacity:1;fill-rule:nonzero;stroke:none"
           d="m 16106.3,4161.11 c -3.9,0.69 -7.3,1.51 -10,2.4 -12.6,4.24 -19.3,17.91 -15.1,30.53 4.3,12.58 17.8,19.38 30.5,15.07 20.7,-7.01 119,-1.18 147.8,17.54 11.1,7.25 26,4.11 33.3,-7 7.2,-11.16 4.1,-26.06 -7,-33.3 -39,-25.48 -138.7,-32.24 -179.5,-25.24" /></g><g
         transform="matrix(0.08776371,0,0,-0.08776371,-1060.5106,885.06883)"
         id="g1982"><path
           id="path1984"
           style="fill:#f59a79;fill-opacity:1;fill-rule:nonzero;stroke:none"
           d="m 16167.7,4392.33 c -28.1,8.96 -60.4,14.11 -82.5,35.37 -9.5,9.05 -24.6,8.77 -33.6,-0.76 -9.1,-9.45 -8.8,-24.52 0.7,-33.56 16.9,-16.2 35.6,-25.33 54.7,-32.08 8,-5.79 23.9,-19.13 18.7,-31.56 -6.5,-15.79 -43.4,-32.76 -106.5,-20.25 l -22.4,4.42 -5.3,-22.31 c -17.2,-73.12 -11.5,-126.06 17.5,-161.75 18.5,-22.91 45.4,-37.34 81.4,-43.53 45.6,-7.84 144.7,8.44 168.4,40.67 24,32.81 41.2,71.68 39.4,125.34 -1.8,56.75 -57.9,116.97 -130.5,140" /></g><g
         transform="matrix(0.08842164,0,0,-0.08842164,-1060.5106,885.06883)"
         id="g1986"><path
           id="path1988"
           style="fill:#e5f6fb;fill-opacity:1;fill-rule:nonzero;stroke:none"
           d="m 16218.7,4312.62 c -22.8,14.04 -74.7,33.39 -81.2,4.31 -5.8,-26.01 7.3,-36.39 37.1,-51.99 3.2,-2.19 3.2,-2.03 0,0.48 -51.9,-7.74 -51.7,-43.09 -2.9,-57.81 -41.4,-37.34 -24.8,-85.82 30.4,-62 -31.5,-24.78 -45.4,-65.71 -16.1,-89.21 33,-26.49 76.1,22.14 114,42.97 l -81.3,213.25" /></g><g
         transform="matrix(0.09605504,0,0,-0.09605504,-1060.5106,885.06883)"
         id="g1990"><path
           id="path1992"
           style="fill:#59c59b;fill-opacity:1;fill-rule:nonzero;stroke:none"
           d="m 14950.5,4004.57 c -83,-45.58 -36.5,-242.22 101.1,-267.92 314.1,-58.77 1089.3,403.95 1195.4,954.63 53,274.87 -257.4,422.07 -383.2,172.03 -217.2,-556.04 -561.5,-665.6 -913.3,-858.74" /></g><g
         transform="matrix(0.09455151,0,0,-0.09455151,-1060.5106,885.06883)"
         id="g1994"><path
           id="path1996"
           style="fill:#ffffff;fill-opacity:1;fill-rule:nonzero;stroke:none"
           d="m 16209.4,5746.74 c 13.1,2.13 23,1.83 30.5,-0.93 21.5,-8.06 35.1,-21.56 40.5,-40.15 7.9,-27.57 -3.5,-66.15 -29.9,-100.7 -18.3,-23.99 -39.7,-46.41 -63.7,-66.67 -29.4,32.05 -77.6,101.78 -102.8,169.13 17.3,4.74 35.8,11.38 53.9,17.79 24.9,8.92 50.7,18.14 71.5,21.53 z m -23.5,-223.53 4,3.25 c 26.2,21.71 49.5,45.86 69.4,71.86 28.8,37.8 40.7,79.06 31.7,110.37 -6.3,21.82 -22.7,38.24 -47.3,47.46 -9.3,3.43 -21.1,3.91 -36.1,1.45 -21.8,-3.51 -48,-12.87 -73.4,-21.98 -19.9,-7.08 -40.4,-14.44 -58.8,-19.06 l -5.9,-1.46 2,-5.7 c 26.1,-73.36 80.5,-150.89 110.9,-182.49 l 3.5,-3.7" /></g><g
         transform="matrix(0.09392462,0,0,-0.09392462,-1060.5106,885.06883)"
         id="g1998"><path
           id="path2000"
           style="fill:#ffffff;fill-opacity:1;fill-rule:nonzero;stroke:none"
           d="m 15927,5774.54 c 1.9,2.37 5.4,2.59 7.7,0.67 24.9,-20.69 118.1,-41.76 221.8,-25.91 l 2.1,0.34 c 7.1,1.12 14.9,2.81 24.1,5.07 3,0.86 5.6,-0.79 6.6,-3.5 25.6,-72.3 79.2,-148.62 109.1,-179.76 1,-1.12 1.6,-2.59 1.5,-4.17 -0.1,-1.54 -0.8,-2.96 -2,-3.94 -75.6,-62.57 -166.6,-98.97 -253.7,-128.98 -0.3,-0.07 -0.6,-0.15 -0.9,-0.19 -1.7,-0.3 -3.4,0.23 -4.7,1.39 -53.6,50.03 -121.7,129.62 -141.7,224.91 -8.9,41.77 -6.6,70.87 30.1,114.07" /></g><g
         transform="matrix(0.09457585,0,0,-0.09457585,-1060.5106,885.06883)"
         id="g2002"><path
           id="path2004"
           style="fill:#f59a79;fill-opacity:1;fill-rule:nonzero;stroke:none"
           d="m 16152.5,5705.61 c -25.1,-50.88 -18,-105.72 15.8,-122.39 33.8,-16.63 81.5,11.16 106.6,62.11 25.1,50.95 18.1,105.71 -15.7,122.38 -33.8,16.68 -81.6,-11.15 -106.7,-62.1" /></g></g></g></svg>
