<?xml version="1.0" encoding="UTF-8" standalone="no"?>
<!-- Created with Inkscape (http://www.inkscape.org/) -->

<svg
   width="777.59027mm"
   height="610.64838mm"
   viewBox="0 0 777.59027 610.64838"
   version="1.1"
   id="svg5"
   xml:space="preserve"
   xmlns="http://www.w3.org/2000/svg"
   xmlns:svg="http://www.w3.org/2000/svg"><defs
     id="defs2"><clipPath
       id="clipPath1120"
       clipPathUnits="userSpaceOnUse"><path
         id="path1118"
         d="m 24582.3,13204.8 c -1705.4,223.9 -2231.9,333.3 -2556.6,2360.6 -315,1967.1 -1749.1,3422.9 -4041.6,3706 -1299.1,160.5 -3510.5,-691.8 -4519,-2939.7 -1333.1,117 -3030,-361 -4240.28,-1222.3 -1298.3,-924 -3246.46,-4257.1 -1283.47,-5588.6 1283.51,-870.4 3109.75,163.2 4425.75,-624.1 1186.5,-709.8 1178,-2471 1933.5,-3526.9 3026.1,-4229.1 9753,280.7 11709.9,3304.4 1319.4,2038.7 1297.1,4172.7 -1428.2,4530.6 z" /></clipPath></defs><g
     id="layer1"
     transform="translate(890.43536,-204.54964)"><g
       id="g20600"><path
         id="path1472"
         style="fill:#fcd457;fill-opacity:1;fill-rule:nonzero;stroke:none;stroke-width:0.0352778"
         d="m -703.37599,390.36852 c -9.53947,0 -14.37641,-2.30011 -19.05424,-4.52261 -4.6736,-2.2225 -9.09038,-4.32153 -18.15571,-4.32153 -9.06533,0 -13.4807,2.09903 -18.15324,4.32153 -4.67677,2.2225 -9.513,4.52261 -19.04929,4.52261 -9.53629,0 -14.37288,-2.30011 -19.0493,-4.52261 -4.67395,-2.2225 -9.08685,-4.32153 -18.15183,-4.32153 -9.06533,0 -13.4807,2.09903 -18.155,4.32153 -4.67466,2.2225 -9.51089,4.52261 -19.04648,4.52261 -9.53558,0 -14.37216,-2.30011 -19.04788,-4.52261 -4.67325,-2.2225 -9.09038,-4.32153 -18.15324,-4.32153 -0.5775,0 -1.04316,-0.46567 -1.04316,-1.03717 0,-0.57855 0.46566,-1.04422 1.04316,-1.04422 9.53558,0 14.37076,2.29659 19.04753,4.52261 4.6729,2.21898 9.09003,4.318 18.15359,4.318 9.06534,0 13.48,-2.09902 18.15113,-4.318 4.67854,-2.22602 9.51336,-4.52261 19.05035,-4.52261 9.53559,0 14.37111,2.29659 19.04683,4.52261 4.67254,2.21898 9.08967,4.318 18.1543,4.318 9.06462,0 13.48069,-2.09902 18.15218,-4.318 4.67748,-2.22602 9.51406,-4.52261 19.05035,-4.52261 9.5377,0 14.37499,2.29659 19.05036,4.52261 4.6743,2.21898 9.09179,4.318 18.15959,4.318 9.06639,0 13.47964,-2.09902 18.15394,-4.318 4.67784,-2.22602 9.51442,-4.52261 19.05353,-4.52261 0.57503,0 1.04069,0.46567 1.04069,1.04422 0,0.5715 -0.46566,1.03717 -1.04069,1.03717 -9.06639,0 -13.48317,2.09903 -18.15747,4.32153 -4.67784,2.2225 -9.51442,4.52261 -19.05,4.52261" /><g
         id="g9608"><g
           transform="matrix(0.05310505,0,0,-0.05310505,-1060.5106,885.06883)"
           id="g1106"><path
             id="path1108"
             style="fill:#76c19c;fill-opacity:1;fill-rule:nonzero;stroke:none"
             d="m 16300,1850.41 c 0,-295.28 -1992.4,-534.7 -4450.1,-534.7 -2457.82,0 -4450.13,239.42 -4450.13,534.7 0,295.35 1992.31,534.83 4450.13,534.83 2457.7,0 4450.1,-239.48 4450.1,-534.83" /></g><g
           transform="matrix(0.05914955,0,0,-0.05914955,-1060.5106,885.06883)"
           id="g1110"><path
             id="path1112"
             style="fill:#a6e2f8;fill-opacity:1;fill-rule:nonzero;stroke:none"
             d="m 14661.3,7875.56 c -1017.1,133.54 -1331.2,198.78 -1524.8,1407.9 -187.9,1173.24 -1043.2,2041.44 -2410.5,2210.34 -774.79,95.7 -2093.71,-412.6 -2695.19,-1753.31 -795.09,69.78 -1807.15,-215.3 -2528.98,-729 -774.32,-551.08 -1936.24,-2539 -765.48,-3333.13 765.51,-519.12 1854.71,97.34 2639.59,-372.22 707.65,-423.34 702.58,-1473.75 1153.17,-2103.5 1804.79,-2522.308 5816.89,167.41 6983.99,1970.79 786.9,1215.92 773.6,2488.67 -851.8,2702.13" /></g><g
           id="g1114"
           transform="matrix(0.03527778,0,0,-0.03527778,-1060.5106,885.06883)"><g
             clip-path="url(#clipPath1120)"
             id="g1116"><g
               transform="scale(1.35127)"
               id="g1122"><path
                 id="path1124"
                 style="fill:#7fd6f6;fill-opacity:1;fill-rule:nonzero;stroke:none"
                 d="m 16300,4773.8 h -1750.5 v 6745.3 H 16300 V 4773.8" /></g><g
               transform="scale(1.06145)"
               id="g1126"><path
                 id="path1128"
                 style="fill:#7fd6f6;fill-opacity:1;fill-rule:nonzero;stroke:none"
                 d="M 16300,6077.26 H 14071.5 V 15776.2 H 16300 V 6077.26" /></g><g
               transform="scale(1.57462)"
               id="g1130"><path
                 id="path1132"
                 style="fill:#7fd6f6;fill-opacity:1;fill-rule:nonzero;stroke:none"
                 d="M 16300,4096.67 H 13828.3 V 7769.75 H 16300 V 4096.67" /></g><g
               transform="scale(1.27766)"
               id="g1134"><path
                 id="path1136"
                 style="fill:#7fd6f6;fill-opacity:1;fill-rule:nonzero;stroke:none"
                 d="M 16300,5048.83 H 13253.9 V 10113.6 H 16300 V 5048.83" /></g><g
               transform="scale(1.58773)"
               id="g1138"><path
                 id="path1140"
                 style="fill:#7fd6f6;fill-opacity:1;fill-rule:nonzero;stroke:none"
                 d="m 16300,7707.92 h -2720.6 l 1360.3,507.52 1360.3,-507.52" /></g><g
               transform="scale(1.64804)"
               id="g1142"><path
                 id="path1144"
                 style="fill:#7fd6f6;fill-opacity:1;fill-rule:nonzero;stroke:none"
                 d="m 17058.5,3914.17 h -2361.6 v 3263.89 h 2361.6 V 3914.17" /></g><g
               transform="scale(1.64804)"
               id="g1146"><path
                 id="path1148"
                 style="fill:#7fd6f6;fill-opacity:1;fill-rule:nonzero;stroke:none"
                 d="m 17188.1,7180.24 h -2620.9 l 1310.5,488.95 1310.4,-488.95" /></g><path
               id="path1150"
               style="fill:#7fd6f6;fill-opacity:1;fill-rule:nonzero;stroke:none"
               d="m 10611.5,6450.7 h -3892 v 5379 h 3892 v -5379" /><path
               id="path1152"
               style="fill:#7fd6f6;fill-opacity:1;fill-rule:nonzero;stroke:none"
               d="M 10825.2,11833.3 H 6505.81 l 2159.68,805.8 z" /><path
               id="path1154"
               style="fill:#7fd6f6;fill-opacity:1;fill-rule:nonzero;stroke:none"
               d="m 15905.1,6450.7 h -3891.9 v 5783.7 h 3891.9 V 6450.7" /><path
               id="path1156"
               style="fill:#66cbd6;fill-opacity:1;fill-rule:nonzero;stroke:none"
               d="m 16118.9,12238.1 h -4319.5 l 2159.8,805.8 z" /><path
               id="path1158"
               style="fill:#7fd6f6;fill-opacity:1;fill-rule:nonzero;stroke:none"
               d="m 14202.4,6450.7 h -3892 v 7320.7 h 3892 V 6450.7" /><path
               id="path1160"
               style="fill:#7fd6f6;fill-opacity:1;fill-rule:nonzero;stroke:none"
               d="m 14416.1,13775.1 h -4319.5 l 2159.7,805.9 z" /><g
               transform="scale(1.23324)"
               id="g1162"><path
                 id="path1164"
                 style="fill:#7fd6f6;fill-opacity:1;fill-rule:nonzero;stroke:none"
                 d="M 16300,9538.54 H 14318.5 V 11360.4 H 16300 V 9538.54" /></g><g
               transform="scale(1.24147)"
               id="g1166"><path
                 id="path1168"
                 style="fill:#7fd6f6;fill-opacity:1;fill-rule:nonzero;stroke:none"
                 d="m 16300,11286.3 h -2184.6 l 1092.3,252.1 1092.3,-252.1" /></g><g
               transform="scale(1.64804)"
               id="g1170"><path
                 id="path1172"
                 style="fill:#7fd6f6;fill-opacity:1;fill-rule:nonzero;stroke:none"
                 d="M 17058.5,2021.56 H 4077.28 V 3914.17 H 17058.5 V 2021.56" /></g></g></g><g
           transform="matrix(0.04025759,0,0,-0.04025759,-1060.5106,885.06883)"
           id="g1174"><path
             id="path1176"
             style="fill:#2c2b2f;fill-opacity:1;fill-rule:nonzero;stroke:none"
             d="m 16182.1,5221.09 c -13.5,0 -27.5,2.72 -40.8,8.41 l -671.8,288.75 c -52.5,22.52 -76.8,83.51 -54.2,136.09 22.6,52.57 83.7,76.76 136.1,54.24 l 671.7,-288.74 c 52.5,-22.61 76.9,-83.51 54.3,-136.09 -16.9,-39.17 -55,-62.66 -95.3,-62.66" /></g><g
           transform="matrix(0.04062801,0,0,-0.04062801,-1060.5106,885.06883)"
           id="g1178"><path
             id="path1180"
             style="fill:#2f635f;fill-opacity:1;fill-rule:nonzero;stroke:none"
             d="m 16275.3,5313.36 c 24.7,59.91 -16.3,178.18 -91,262.93 l -564.8,608.94 c -155.3,63.91 -169.7,77.19 -325,141.28 -221.8,-78.68 -368.4,-273.78 -366.6,-469.93 l 1336.4,-569.62 c 3.7,8.52 7.1,17.29 11,26.4" /></g><g
           transform="matrix(0.04053911,0,0,-0.04053911,-1060.5106,885.06883)"
           id="g1182"><path
             id="path1184"
             style="fill:#cfcfcd;fill-opacity:1;fill-rule:nonzero;stroke:none"
             d="m 14960.7,5869.43 c 0.2,-34.38 4.6,-68.84 14.3,-102.69 457.5,-188.4 833.7,-362.44 1291,-550.76 0,0 14.6,35.33 34,82.58 l -1339.3,570.87" /></g><g
           transform="matrix(0.04035531,0,0,-0.04035531,-1060.5106,885.06883)"
           id="g1186"><path
             id="path1188"
             style="fill:#aa6e43;fill-opacity:1;fill-rule:nonzero;stroke:none"
             d="m 16300,8242.57 c -790.8,28.5 -1256.2,744.81 -943.1,1298.34 -211.5,79.03 -447.7,167.58 -727.8,280.44 l -752.8,-1273.33 c 430,-256.23 1470.8,-324.5 2104.4,-337.53 -124.4,-85.75 -242,-221.34 -349.4,-424.06 96.7,166.62 289.9,343.46 668.7,456.14" /></g><g
           transform="matrix(0.04226842,0,0,-0.04226842,-1060.5106,885.06883)"
           id="g1190"><path
             id="path1192"
             style="fill:#cc7e4c;fill-opacity:1;fill-rule:nonzero;stroke:none"
             d="m 15884.9,8569.9 c -426.8,242.78 -763.6,367.39 -1223.1,539.16 -298.9,-528.48 145.4,-1212.36 900.4,-1239.57 -361.6,-107.58 -546.1,-276.43 -638.5,-435.5 -155,-292.79 -288.1,-732.71 -387.8,-1379.12 l 613.8,-200.89 c 116.5,325.58 346.1,879.01 793.3,1570.16 232.5,359.3 357,909.56 -58.1,1145.76" /></g><g
           transform="matrix(0.04689158,0,0,-0.04689158,-1060.5106,885.06883)"
           id="g1194"><path
             id="path1196"
             style="fill:#f69b35;fill-opacity:1;fill-rule:nonzero;stroke:none"
             d="m 16116.4,7837.79 c -13.7,-9.18 -28.6,-17.16 -44.6,-23.63 l -928.4,-373 c -83.6,-31.3 -120.4,-88.4 -127.2,-131.66 -4.4,-27.23 2.6,-50.4 19.1,-63.57 25.5,-20.31 73.2,-18.73 130.9,4.52 l 928.4,373.07 c 68.2,27.39 104.5,97.66 80.9,156.56 -10.4,25.81 -31.2,46.12 -59.1,57.71 z m -1031.9,-694.85 c -52.2,0 -85.9,18.43 -104.7,33.48 -41.6,33.18 -60.8,88.17 -51.5,147.08 13.8,86.66 83.9,163.55 183,200.57 l 754.5,303.18 -16.7,41.45 126.5,50.86 c 38.4,15.35 78.9,20.54 118.3,15.5 30.2,33.33 41.6,78.39 25.6,118.19 -11,27.46 -33.9,48.67 -64.4,59.81 -32.3,11.66 -68.5,10.68 -102.3,-2.86 l -126.5,-50.86 -33.1,82.53 126.4,50.86 c 54.1,21.74 113,23.17 165.8,3.84 54.7,-19.79 96,-58.91 116.6,-110.22 24.6,-61.01 14.8,-128.04 -20.4,-182.44 34.7,-21.74 61.2,-52.96 76.4,-90.8 42,-104.27 -16.5,-226.38 -130.2,-272.12 l -928.5,-373.08 c -45.3,-18.27 -83.5,-24.97 -114.8,-24.97" /></g><g
           transform="matrix(0.04593731,0,0,-0.04593731,-1060.5106,885.06883)"
           id="g1198"><path
             id="path1200"
             style="fill:#373e4b;fill-opacity:1;fill-rule:nonzero;stroke:none"
             d="m 16300,8269.5 c 0,-89.32 -72.3,-161.66 -161.7,-161.66 -89.2,0 -161.5,72.34 -161.5,161.66 0,89.23 72.3,161.65 161.5,161.65 89.4,0 161.7,-72.42 161.7,-161.65" /></g><g
           transform="matrix(0.04622906,0,0,-0.04622906,-1060.5106,885.06883)"
           id="g1202"><path
             id="path1204"
             style="fill:#f47673;fill-opacity:1;fill-rule:nonzero;stroke:none"
             d="m 16279.2,8070.94 c 12.6,42.2 20.3,85.93 20.5,128.59 0.3,64.02 -11.4,132.85 -48,186.73 -20.6,30.22 -50.4,60.59 -80.9,80.97 -60.9,40.44 -140.5,44.94 -212.1,45.4 -213.8,1.22 -297,-134.69 -270.6,-253.2 13.5,-60.51 35.4,-119.27 70.3,-170.94 21.6,-31.89 47.6,-60.21 79.5,-82.03 44.7,-30.75 95.8,-46.17 152.8,-46.17 36.3,0 75,6.26 115.8,18.7 23.8,7.17 37.2,32.43 30,56.24 -7.3,23.81 -32.5,37.31 -56.4,29.99 -49.9,-15.26 -115.3,-11.75 -153.7,27.24 -10.2,10.3 -18.7,23.58 -24.7,36.71 -17.3,38.15 -20.3,98.44 28.3,142.7 70.5,64.33 134.4,45.71 175.8,18.85 61.8,-40.37 100.2,-117.67 90.6,-176.97 -8,-33.42 -19.9,-66.23 -34.7,-96.45 -10.9,-22.36 -1.7,-49.38 20.8,-60.29 22.1,-10.76 49.5,-1.45 60.3,20.76 14.2,29.3 26.8,60.82 36.4,93.17" /></g><g
           transform="matrix(0.04518731,0,0,-0.04518731,-1060.5106,885.06883)"
           id="g1206"><path
             id="path1208"
             style="fill:#f47673;fill-opacity:1;fill-rule:nonzero;stroke:none"
             d="m 16300,8628.26 c -808.7,451.48 -1846.2,1101.49 -2452.6,1974.34 -165.4,238.2 -460.4,471.8 -699.2,262.8 -295,-258.4 -8.8,-663.9 196.4,-847.6 795.1,-712.2 1781.9,-1329.74 2813.4,-1575.89 l 142,186.35" /></g><g
           transform="matrix(0.04705985,0,0,-0.04705985,-1060.5106,885.06883)"
           id="g1210"><path
             id="path1212"
             style="fill:#b9bbba;fill-opacity:1;fill-rule:nonzero;stroke:none"
             d="m 16300,2088.2 h -31.3 v 3499.01 h 31.3 V 2088.2" /></g><g
           transform="matrix(0.04878458,0,0,-0.04878458,-1060.5106,885.06883)"
           id="g1214"><path
             id="path1216"
             style="fill:#b9bbba;fill-opacity:1;fill-rule:nonzero;stroke:none"
             d="m 16271.7,2110.97 -1154.5,3171.73 28.4,10.27 1154.4,-3171.73 -28.3,-10.27" /></g><g
           transform="matrix(0.05029588,0,0,-0.05029588,-1060.5106,885.06883)"
           id="g1218"><path
             id="path1220"
             style="fill:#b9bbba;fill-opacity:1;fill-rule:nonzero;stroke:none"
             d="m 16277.6,2327.4 -2104.4,2507.94 22.4,18.8 2104.4,-2507.94 -22.4,-18.8" /></g><g
           transform="matrix(0.05141172,0,0,-0.05141172,-1060.5106,885.06883)"
           id="g1222"><path
             id="path1224"
             style="fill:#b9bbba;fill-opacity:1;fill-rule:nonzero;stroke:none"
             d="m 16285.7,2699.72 -2773.8,1601.48 14.3,24.77 2773.8,-1601.48 -14.3,-24.77" /></g><g
           transform="matrix(0.05199698,0,0,-0.05199698,-1060.5106,885.06883)"
           id="g1226"><path
             id="path1228"
             style="fill:#b9bbba;fill-opacity:1;fill-rule:nonzero;stroke:none"
             d="m 16295,3184.35 -3118.6,550.03 4.9,27.82 3118.7,-549.9 -5,-27.95" /></g><g
           transform="matrix(0.05199698,0,0,-0.05199698,-1060.5106,885.06883)"
           id="g1230"><path
             id="path1232"
             style="fill:#b9bbba;fill-opacity:1;fill-rule:nonzero;stroke:none"
             d="m 13181.3,3184.49 -4.9,27.81 3118.7,549.9 4.9,-27.89 -3118.7,-549.82" /></g><g
           transform="matrix(0.05141172,0,0,-0.05141172,-1060.5106,885.06883)"
           id="g1234"><path
             id="path1236"
             style="fill:#b9bbba;fill-opacity:1;fill-rule:nonzero;stroke:none"
             d="m 13526.2,2699.79 -14.3,24.77 2773.8,1601.34 14.3,-24.77 -2773.8,-1601.34" /></g><g
           transform="matrix(0.05029624,0,0,-0.05029624,-1060.5106,885.06883)"
           id="g1238"><path
             id="path1240"
             style="fill:#b9bbba;fill-opacity:1;fill-rule:nonzero;stroke:none"
             d="m 14195.4,2327.39 -22.3,18.8 2104.5,2507.93 22.4,-18.8 -2104.6,-2507.93" /></g><g
           transform="matrix(0.04878494,0,0,-0.04878494,-1060.5106,885.06883)"
           id="g1242"><path
             id="path1244"
             style="fill:#b9bbba;fill-opacity:1;fill-rule:nonzero;stroke:none"
             d="m 15145.4,2110.96 -28.3,10.27 1154.6,3171.79 28.3,-10.27 -1154.6,-3171.79" /></g><path
           id="path1246"
           style="fill:#b9bbba;fill-opacity:1;fill-rule:nonzero;stroke:none;stroke-width:0.0352778"
           d="m -572.69651,786.79905 h -1.47461 V 622.13648 h 1.47461 v 164.66257" /><path
           id="path1248"
           style="fill:#b9bbba;fill-opacity:1;fill-rule:nonzero;stroke:none;stroke-width:0.0352778"
           d="m -545.96654,782.08593 -56.31745,-154.73187 1.38289,-0.50094 56.31745,154.73187 -1.38289,0.50094" /><path
           id="path1250"
           style="fill:#b9bbba;fill-opacity:1;fill-rule:nonzero;stroke:none;stroke-width:0.0352778"
           d="m -521.07454,768.0101 -105.84392,-126.13923 1.12536,-0.94544 105.84392,126.13923 -1.12536,0.94544" /><path
           id="path1252"
           style="fill:#b9bbba;fill-opacity:1;fill-rule:nonzero;stroke:none;stroke-width:0.0352778"
           d="m -502.50079,746.27193 -142.60337,-82.33481 0.73731,-1.27353 142.60337,82.33481 -0.73731,1.27353" /><path
           id="path1254"
           style="fill:#b9bbba;fill-opacity:1;fill-rule:nonzero;stroke:none;stroke-width:0.0352778"
           d="m -492.47837,719.49257 -162.1649,-28.5997 0.25753,-1.44639 162.16137,28.59265 -0.254,1.45344" /><path
           id="path1256"
           style="fill:#b9bbba;fill-opacity:1;fill-rule:nonzero;stroke:none;stroke-width:0.0352778"
           d="m -654.38574,719.48551 -0.25753,-1.44638 162.1649,-28.59265 0.25753,1.44992 -162.1649,28.58911" /><path
           id="path1258"
           style="fill:#b9bbba;fill-opacity:1;fill-rule:nonzero;stroke:none;stroke-width:0.0352778"
           d="m -644.36685,746.2684 -0.73731,-1.27352 142.6069,-82.32776 0.73378,1.27353 -142.60337,82.32775" /><path
           id="path1260"
           style="fill:#b9bbba;fill-opacity:1;fill-rule:nonzero;stroke:none;stroke-width:0.0352778"
           d="m -625.7931,768.0101 -1.12889,-0.94544 105.85098,-126.13923 1.12536,0.94544 -105.84745,126.13923" /><path
           id="path1262"
           style="fill:#b9bbba;fill-opacity:1;fill-rule:nonzero;stroke:none;stroke-width:0.0352778"
           d="m -600.90463,782.08593 -1.38289,-0.50094 56.32451,-154.7354 1.38289,0.50095 -56.32451,154.73539" /><g
           transform="matrix(0.03557164,0,0,-0.03557164,-1060.5106,885.06883)"
           id="g1264"><path
             id="path1266"
             style="fill:#373e4b;fill-opacity:1;fill-rule:nonzero;stroke:none"
             d="m 13692.9,2864.35 c -1222,0 -2212.7,990.76 -2212.7,2212.78 0,1222.03 990.7,2212.68 2212.7,2212.68 1222,0 2212.8,-990.65 2212.8,-2212.68 0,-1222.02 -990.8,-2212.78 -2212.8,-2212.78 z m 0,4819.78 c -1439.8,0 -2607,-1167.18 -2607,-2607 0,-1439.81 1167.2,-2607.09 2607,-2607.09 1439.9,0 2607.1,1167.28 2607.1,2607.09 0,1439.82 -1167.2,2607 -2607.1,2607" /></g><g
           transform="matrix(0.03770277,0,0,-0.03770277,-1060.5106,885.06883)"
           id="g1268"><path
             id="path1270"
             style="fill:#2c2b2f;fill-opacity:1;fill-rule:nonzero;stroke:none"
             d="m 16295.6,4131.42 -3378.8,387.56 4.3,38.83 3378.9,-387.65 -4.4,-38.74" /></g><g
           transform="matrix(0.03770277,0,0,-0.03770277,-1060.5106,885.06883)"
           id="g1272"><path
             id="path1274"
             style="fill:#2c2b2f;fill-opacity:1;fill-rule:nonzero;stroke:none"
             d="m 12921.1,5031.36 -4.3,38.84 3378.9,378.67 4.3,-38.84 -3378.9,-378.67" /></g><path
           id="path1276"
           style="fill:#373e4b;fill-opacity:1;fill-rule:nonzero;stroke:none;stroke-width:0.0352778"
           d="m -563.00571,704.46776 c 0,5.76439 -4.66372,10.42811 -10.42811,10.42811 -5.75733,0 -10.42458,-4.66372 -10.42458,-10.42811 0,-5.75733 4.66725,-10.42811 10.42458,-10.42811 5.76439,0 10.42811,4.67078 10.42811,10.42811" /><g
           transform="matrix(0.03822171,0,0,-0.03822171,-1060.5106,885.06883)"
           id="g1278"><path
             id="path1280"
             style="fill:#f69b35;fill-opacity:1;fill-rule:nonzero;stroke:none"
             d="m 16245.5,4670.55 h -3500.9 c -30.2,0 -54.6,24.37 -54.6,54.55 0,30.09 24.4,54.55 54.6,54.55 h 3500.9 c 30,0 54.5,-24.46 54.5,-54.55 0,-30.18 -24.5,-54.55 -54.5,-54.55" /></g><g
           transform="matrix(0.03567289,0,0,-0.03567289,-1060.5106,885.06883)"
           id="g1282"><path
             id="path1284"
             style="fill:#f69b35;fill-opacity:1;fill-rule:nonzero;stroke:none"
             d="m 13653.8,4945.7 c -25.2,0 -50.6,8.2 -72,25.01 -50.9,40.05 -59.7,113.44 -19.7,164.16 l 2514.1,3196.7 c 40.1,50.73 113.4,59.43 164.3,19.57 50.7,-39.95 59.5,-113.42 19.5,-164.06 L 13745.9,4990.39 c -23,-29.37 -57.3,-44.69 -92.1,-44.69" /></g><g
           transform="matrix(0.04454666,0,0,-0.04454666,-1060.5106,885.06883)"
           id="g1286"><path
             id="path1288"
             style="fill:#f69b35;fill-opacity:1;fill-rule:nonzero;stroke:none"
             d="m 13084.2,6520.44 886.7,-2290.03 2049.9,2290.03 z m 924.4,-2528.71 -157.1,28.67 -991.3,2559.83 87.3,127.43 h 3282.7 l 69.8,-156.09 -2291.4,-2559.84" /></g><g
           transform="matrix(0.03720501,0,0,-0.03720501,-1060.5106,885.06883)"
           id="g1290"><path
             id="path1292"
             style="fill:#2f635f;fill-opacity:1;fill-rule:nonzero;stroke:none"
             d="m 16300,9430.59 c 0,-79.75 -97.1,-172.1 -215.9,-205.19 l -1544.5,-430.77 c -118.8,-33.09 -245.1,36.32 -280.9,154.37 l -124.8,412.09 c -35.6,117.95 36.1,214.57 159.3,214.57 h 1782.6 c 123.3,0 224.2,-65.23 224.2,-145.07" /></g><g
           transform="matrix(0.05270394,0,0,-0.05270394,-1060.5106,885.06883)"
           id="g1294"><path
             id="path1296"
             style="fill:#373e4b;fill-opacity:1;fill-rule:nonzero;stroke:none"
             d="m 14540.4,1933.24 c -824.7,0 -1493.4,668.69 -1493.4,1493.47 0,824.78 668.7,1493.4 1493.4,1493.4 824.8,0 1493.5,-668.62 1493.5,-1493.4 0,-824.78 -668.7,-1493.47 -1493.5,-1493.47 z m 0,3253.01 c -971.7,0 -1759.5,-787.76 -1759.5,-1759.54 0,-971.77 787.8,-1759.61 1759.5,-1759.61 971.8,0 1759.6,787.84 1759.6,1759.61 0,971.78 -787.8,1759.54 -1759.6,1759.54" /></g><g
           transform="matrix(0.05238539,0,0,-0.05238539,-1060.5106,885.06883)"
           id="g1298"><path
             id="path1300"
             style="fill:#525660;fill-opacity:1;fill-rule:nonzero;stroke:none"
             d="m 16235,3703.77 c -27.9,0 -52.9,19.73 -58.5,48.15 -81.4,413.42 -318.8,770.4 -668.6,1005.22 -349.8,234.83 -770.1,319.35 -1183.5,237.99 -32.6,-6.32 -63.8,14.75 -70.2,47.08 -6.3,32.32 14.7,63.77 47.1,70.1 444.7,87.55 896.9,-3.43 1273.1,-255.97 376.4,-252.67 631.8,-636.65 719.3,-1081.32 6.3,-32.39 -14.7,-63.77 -47.1,-70.1 -3.9,-0.81 -7.7,-1.15 -11.6,-1.15" /></g><g
           transform="matrix(0.04823884,0,0,-0.04823884,-1060.5106,885.06883)"
           id="g1302"><path
             id="path1304"
             style="fill:#525660;fill-opacity:1;fill-rule:nonzero;stroke:none"
             d="m 15885.7,1901.05 c -862.3,0 -1634.6,609.85 -1807.3,1487.21 -6.9,35.1 16,69.18 51.1,76.13 35.4,6.87 69.3,-16.02 76.2,-51.12 182.3,-926.72 1084.3,-1532.33 2011.3,-1350.08 35.3,6.94 69.3,-16.02 76.1,-51.12 6.9,-35.18 -16,-69.26 -51.1,-76.13 -119.6,-23.55 -238.8,-34.89 -356.3,-34.89" /></g><g
           transform="matrix(0.05358801,0,0,-0.05358801,-1060.5106,885.06883)"
           id="g1306"><path
             id="path1308"
             style="fill:#fcd457;fill-opacity:1;fill-rule:nonzero;stroke:none"
             d="m 16280.5,3359.9 c -10.7,0 -19.4,8.63 -19.5,19.36 -0.6,149.31 -18.2,298.09 -52.1,442.13 -2.5,10.46 4,20.93 14.5,23.37 10.5,2.56 20.9,-4.02 23.3,-14.42 34.7,-147 52.6,-298.61 53.3,-450.88 0,-10.8 -8.7,-19.49 -19.4,-19.56 -0.1,0 -0.1,0 -0.1,0" /></g><g
           transform="matrix(0.05331108,0,0,-0.05331108,-1060.5106,885.06883)"
           id="g1310"><path
             id="path1312"
             style="fill:#fcd457;fill-opacity:1;fill-rule:nonzero;stroke:none"
             d="m 16278.2,3951.75 c -8.4,0 -16.2,5.5 -18.8,13.9 -99.4,324.85 -286,621.3 -539.5,857.28 -8,7.34 -8.4,19.65 -1,27.59 7.3,7.94 19.7,8.34 27.6,0.99 258.6,-240.6 448.9,-543.02 550.3,-874.41 3.2,-10.39 -2.6,-21.31 -12.9,-24.49 -2,-0.59 -3.9,-0.86 -5.7,-0.86" /></g><g
           transform="matrix(0.05116301,0,0,-0.05116301,-1060.5106,885.06883)"
           id="g1314"><path
             id="path1316"
             style="fill:#fcd457;fill-opacity:1;fill-rule:nonzero;stroke:none"
             d="m 16277.1,5120.78 c -4.5,0 -9,1.51 -12.8,4.55 -367.8,295.45 -824.3,457.98 -1286.2,457.98 -3.1,0 -5.5,-0.56 -9.4,0 -11.1,0 -20.3,9.03 -20.3,20.27 -0.1,11.24 9,20.4 20.3,20.47 3.1,0 6.3,0 9.4,0 471.2,0 936.7,-165.62 1311.8,-466.94 8.7,-7.03 10.1,-19.92 3.1,-28.68 -4.1,-5.03 -10,-7.65 -15.9,-7.65" /></g><g
           transform="matrix(0.04157028,0,0,-0.04157028,-1060.5106,885.06883)"
           id="g1318"><path
             id="path1320"
             style="fill:#fcd457;fill-opacity:1;fill-rule:nonzero;stroke:none"
             d="m 16271.4,2968.16 c -8.4,0 -16.5,4.24 -21.3,11.88 -254.8,409.12 -390.5,876.71 -392.7,1352.37 -0.1,13.92 11.1,25.2 24.9,25.29 h 0.1 c 13.8,0 25,-11.2 25.1,-24.95 2.1,-466.49 135.4,-925 385.2,-1326.23 7.3,-11.8 3.7,-27.16 -8.1,-34.54 -4.1,-2.55 -8.6,-3.82 -13.2,-3.82" /></g><g
           transform="matrix(0.04309498,0,0,-0.04309498,-1060.5106,885.06883)"
           id="g1322"><path
             id="path1324"
             style="fill:#fcd457;fill-opacity:1;fill-rule:nonzero;stroke:none"
             d="m 16272.7,2221.61 c -5.2,0 -10.4,1.72 -14.8,5.16 -191.1,148.58 -359.5,324.99 -500.6,524.32 -7.7,10.97 -5.1,26.03 5.8,33.72 10.9,7.7 26,5.16 33.7,-5.81 138.3,-195.4 303.5,-368.37 490.8,-514 10.6,-8.19 12.4,-23.41 4.2,-33.89 -4.7,-6.14 -11.9,-9.5 -19.1,-9.5" /></g><path
           id="path1326"
           style="fill:#fcd457;fill-opacity:1;fill-rule:nonzero;stroke:none;stroke-width:0.0352778"
           d="m -679.53527,705.0181 v 0 c -0.57856,-0.004 -1.04422,-0.4692 -1.04069,-1.04775 0.0388,-8.15975 0.99836,-16.28423 2.85044,-24.16176 0.13053,-0.55738 0.69144,-0.91369 1.25236,-0.77258 0.56092,0.13053 0.91017,0.69145 0.77611,1.25236 -1.8168,7.71878 -2.75519,15.69156 -2.794,23.69256 -0.004,0.57503 -0.46919,1.03717 -1.04422,1.03717" /><path
           id="path1328"
           style="fill:#fcd457;fill-opacity:1;fill-rule:nonzero;stroke:none;stroke-width:0.0352778"
           d="m -674.89977,674.39698 c -0.0988,0 -0.20108,-0.0141 -0.30339,-0.0459 -0.55033,-0.16933 -0.86078,-0.75141 -0.69144,-1.30528 5.41161,-17.66711 15.55397,-33.78905 29.34053,-46.61605 0.41627,-0.39159 1.0795,-0.37042 1.47108,0.0529 0.39158,0.42334 0.37042,1.0795 -0.0529,1.47109 -13.51491,12.58005 -23.45972,28.3845 -28.7655,45.70236 -0.13758,0.44803 -0.55033,0.74083 -0.99836,0.74083" /><path
           id="path1330"
           style="fill:#fcd457;fill-opacity:1;fill-rule:nonzero;stroke:none;stroke-width:0.0352778"
           d="m -639.87599,623.07487 c -0.30692,0 -0.60678,-0.13406 -0.81492,-0.39158 -0.35983,-0.44803 -0.28927,-1.10773 0.15875,-1.46756 19.19112,-15.41639 43.00714,-23.89011 67.11598,-23.89011 0.16228,0 0.32103,0 0.48331,0 0.57502,0.004 1.04069,0.47272 1.03716,1.04775 -0.004,0.57503 -0.46919,1.03716 -1.04422,1.03716 -0.13053,0.0106 -0.3175,0 -0.47625,0 -23.63611,0 -46.98648,8.31145 -65.80717,23.43151 -0.19403,0.15522 -0.42333,0.23283 -0.65264,0.23283" /><path
           id="path1332"
           style="fill:#fcd457;fill-opacity:1;fill-rule:nonzero;stroke:none;stroke-width:0.0352778"
           d="m -508.36395,789.32846 c -0.31398,0 -0.62089,-0.14464 -0.8255,-0.40922 -0.35631,-0.45155 -0.27164,-1.10772 0.18344,-1.4605 8.07156,-6.27592 15.18708,-13.73011 21.14903,-22.15092 0.33161,-0.47272 0.98425,-0.58208 1.45344,-0.25047 0.4692,0.33161 0.58209,0.98072 0.24695,1.45344 -6.07836,8.59014 -13.33853,16.19251 -21.57236,22.59542 -0.18698,0.14817 -0.41628,0.22225 -0.635,0.22225" /><path
           id="path1334"
           style="fill:#525660;fill-opacity:1;fill-rule:nonzero;stroke:none;stroke-width:0.0352778"
           d="m -573.42324,793.39952 c -11.27477,0 -22.55308,-2.16958 -33.32339,-6.52639 -1.60161,-0.64558 -2.37419,-2.46945 -1.72508,-4.07106 0.64558,-1.59808 2.46944,-2.37419 4.07106,-1.72861 20.46464,8.27617 42.92247,8.08214 63.23894,-0.53975 20.32001,-8.62189 36.06095,-24.638 44.33359,-45.09911 0.64911,-1.60161 2.46592,-2.37772 4.07458,-1.72861 1.60161,0.64558 2.37067,2.46944 1.72509,4.07105 -8.89706,22.01334 -25.83392,39.24301 -47.68851,48.51753 -11.16541,4.73428 -22.93408,7.10495 -34.70628,7.10495" /><path
           id="path1336"
           style="fill:#525660;fill-opacity:1;fill-rule:nonzero;stroke:none;stroke-width:0.0352778"
           d="m -652.94288,675.45884 c -0.38806,0 -0.78669,-0.0741 -1.17122,-0.2293 -1.60161,-0.64558 -2.3742,-2.46945 -1.72509,-4.07106 18.36209,-45.43778 70.27687,-67.46875 115.71465,-49.09608 1.60161,0.64558 2.3742,2.46944 1.72861,4.07105 -0.64911,1.60161 -2.46239,2.3742 -4.07458,1.72861 -42.23103,-17.07091 -90.49456,3.40078 -107.56901,45.6424 -0.49389,1.21355 -1.66511,1.95438 -2.90336,1.95438" /><g
           transform="matrix(0.04765428,0,0,-0.04765428,-1060.5106,885.06883)"
           id="g1338"><path
             id="path1340"
             style="fill:#373e4b;fill-opacity:1;fill-rule:nonzero;stroke:none"
             d="m 16300,3789.82 c 0,-120.96 -97.9,-218.83 -218.8,-218.83 -120.8,0 -218.7,97.87 -218.7,218.83 0,120.89 97.9,218.83 218.7,218.83 120.9,0 218.8,-97.94 218.8,-218.83" /></g><g
           transform="matrix(0.04730433,0,0,-0.04730433,-1060.5106,885.06883)"
           id="g1342"><path
             id="path1344"
             style="fill:#f69b35;fill-opacity:1;fill-rule:nonzero;stroke:none"
             d="m 16200.2,3729.62 c -35.4,0 -68.7,21.48 -82.3,56.38 L 14813,7156.83 c -17.6,45.42 5,96.43 50.4,114.03 45.5,17.6 96.5,-4.99 114,-50.34 l 1305,-3370.83 c 17.6,-45.42 -5,-96.5 -50.4,-114.11 -10.5,-4.02 -21.3,-5.96 -31.8,-5.96" /></g><g
           transform="matrix(0.03833213,0,0,-0.03833213,-1060.5106,885.06883)"
           id="g1346"><path
             id="path1348"
             style="fill:#f69b35;fill-opacity:1;fill-rule:nonzero;stroke:none"
             d="m 16097.1,4672.17 -1589.9,4106.73 203,78.59 1589.8,-4106.72 -202.9,-78.6" /></g><g
           transform="matrix(0.03918303,0,0,-0.03918303,-1060.5106,885.06883)"
           id="g1350"><path
             id="path1352"
             style="fill:#2c2b2f;fill-opacity:1;fill-rule:nonzero;stroke:none"
             d="m 15428.1,3592.6 -34.5,14.95 871.9,2018.1 34.5,-14.86 -871.9,-2018.19" /></g><g
           transform="matrix(0.03962436,0,0,-0.03962436,-1060.5106,885.06883)"
           id="g1354"><path
             id="path1356"
             style="fill:#373e4b;fill-opacity:1;fill-rule:nonzero;stroke:none"
             d="m 15670.3,4062.65 c -273.4,0 -495.2,221.68 -495.2,495.18 0,273.51 221.8,495.2 495.2,495.2 273.5,0 495.3,-221.69 495.3,-495.2 0,-273.5 -221.8,-495.18 -495.3,-495.18 z m 0,1124.81 c -347.8,0 -629.6,-281.87 -629.6,-629.63 0,-347.75 281.8,-629.71 629.6,-629.71 347.8,0 629.7,281.96 629.7,629.71 0,347.76 -281.9,629.63 -629.7,629.63" /></g><g
           transform="matrix(0.03813881,0,0,-0.03813881,-1060.5106,885.06883)"
           id="g1358"><path
             id="path1360"
             style="fill:#2c2b2f;fill-opacity:1;fill-rule:nonzero;stroke:none"
             d="m 16300,4145.51 h -38.6 v 1179.63 h 38.6 V 4145.51" /></g><g
           transform="matrix(0.03931144,0,0,-0.03931144,-1060.5106,885.06883)"
           id="g1362"><path
             id="path1364"
             style="fill:#2c2b2f;fill-opacity:1;fill-rule:nonzero;stroke:none"
             d="m 16281.2,4291.76 -991.1,572.27 18.7,32.31 991.2,-572.18 -18.8,-32.4" /></g><g
           transform="matrix(0.03931144,0,0,-0.03931144,-1060.5106,885.06883)"
           id="g1366"><path
             id="path1368"
             style="fill:#2c2b2f;fill-opacity:1;fill-rule:nonzero;stroke:none"
             d="m 15308.8,4291.86 -18.7,32.3 991.1,572.18 18.8,-32.31 -991.2,-572.17" /></g><g
           transform="matrix(0.03848947,0,0,-0.03848947,-1060.5106,885.06883)"
           id="g1370"><path
             id="path1372"
             style="fill:#373e4b;fill-opacity:1;fill-rule:nonzero;stroke:none"
             d="m 16300,4692.21 c 0,-92.67 -75.1,-167.73 -167.7,-167.73 -92.6,0 -167.7,75.06 -167.7,167.73 0,92.66 75.1,167.73 167.7,167.73 92.6,0 167.7,-75.07 167.7,-167.73" /></g><g
           transform="matrix(0.0380612,0,0,-0.0380612,-1060.5106,885.06883)"
           id="g1374"><path
             id="path1376"
             style="fill:#2c2b2f;fill-opacity:1;fill-rule:nonzero;stroke:none"
             d="m 16186.9,3593.1 c -2.3,0 -4.5,0.09 -6.8,0.18 l -771.9,48.39 c -60.5,3.8 -106.3,55.79 -102.5,116.22 3.7,60.44 56.6,106.5 116.1,102.52 l 771.9,-48.29 c 60.3,-3.89 106.3,-55.89 102.5,-116.23 -3.6,-58.12 -51.9,-102.79 -109.3,-102.79" /></g><g
           transform="matrix(0.04609818,0,0,-0.04609818,-1060.5106,885.06883)"
           id="g1378"><path
             id="path1380"
             style="fill:#373e4b;fill-opacity:1;fill-rule:nonzero;stroke:none"
             d="m 16300,7962.66 c 0,-88.92 -72.1,-161.01 -161,-161.01 -89,0 -161.2,72.09 -161.2,161.01 0,88.93 72.2,161.09 161.2,161.09 88.9,0 161,-72.16 161,-161.09" /></g><g
           transform="matrix(0.04368306,0,0,-0.04368306,-1060.5106,885.06883)"
           id="g1382"><path
             id="path1384"
             style="fill:#373e4b;fill-opacity:1;fill-rule:nonzero;stroke:none"
             d="m 16300,7784.61 c 0,-93.84 -76.2,-170 -170,-170 -93.8,0 -170,76.16 -170,170 0,93.92 76.2,170 170,170 93.8,0 170,-76.08 170,-170" /></g><g
           transform="matrix(0.03902075,0,0,-0.03902075,-1060.5106,885.06883)"
           id="g1386"><path
             id="path1388"
             style="fill:#356e6a;fill-opacity:1;fill-rule:nonzero;stroke:none"
             d="m 16296.8,3727.7 c 3.2,67.26 -78.3,169.06 -181.1,225.93 l -767,399.42 c -174.7,8.41 -193.4,16.46 -368.2,24.86 -189.9,-154.77 -265.4,-397.43 -195.1,-589.19 l 1509.9,-90.86 c 0.5,9.68 1,19.44 1.5,29.84" /></g><g
           transform="matrix(0.03900946,0,0,-0.03900946,-1060.5106,885.06883)"
           id="g1390"><path
             id="path1392"
             style="fill:#cfcfcd;fill-opacity:1;fill-rule:nonzero;stroke:none"
             d="m 14789.7,3789.82 c 12.4,-33.55 28.5,-65.75 50,-95.32 513.5,-24.78 942.4,-63.58 1455.9,-88.27 0,0 2,39.62 4.4,92.7 l -1510.3,90.89" /></g><g
           transform="matrix(0.03725969,0,0,-0.03725969,-1060.5106,885.06883)"
           id="g1394"><path
             id="path1396"
             style="fill:#cc7e4c;fill-opacity:1;fill-rule:nonzero;stroke:none"
             d="m 16144.9,10171.2 c 1.4,21.4 2.4,43 2.4,64.8 0,544.2 -441.1,985.4 -985.3,985.4 -544.1,0 -985.3,-441.2 -985.3,-985.4 0,-148.9 33.4,-290.01 92.7,-416.59 64.3,-137.39 159.1,-257.73 276.1,-351.65 145.7,-794.27 566.8,-1535.9 811.5,-2318.44 -172.4,-980.79 -251.8,-1792.96 125.9,-2749.42 l 728.1,126.97 c -4.1,957.78 89,1755.18 65,2622.45 -23.7,860.17 -135.2,2912.58 -131.1,3021.88" /></g><path
           id="path1398"
           style="fill:#fabc3f;fill-opacity:1;fill-rule:nonzero;stroke:none;stroke-width:0.0352778"
           d="m -488.31206,382.71324 c -3.28084,2.55411 -6.35706,5.55625 -9.10873,9.00289 -21.61469,27.05806 -35.47886,87.72173 -40.53064,121.57076 19.75909,-23.02581 26.09498,-54.87459 33.61267,-84.55731 3.81706,-15.08125 6.70631,-32.84009 16.0267,-46.01634" /><g
           transform="matrix(0.03893115,0,0,-0.03893115,-1060.5106,885.06883)"
           id="g1400"><path
             id="path1402"
             style="fill:#fcd457;fill-opacity:1;fill-rule:nonzero;stroke:none"
             d="m 15510.5,12458.3 c 235.4,2.8 528.6,-350.5 746.5,-568.4 43,444.4 -66.8,820.8 -352.4,1084.7 -307.9,284.4 -814,235.4 -1207,-71 -239.4,-338.4 -313.6,-794.6 -411.6,-1181.9 -193.1,-762.5 -355.9,-1580.6 -863.4,-2172.01 -2.5,-17.03 -5.2,-34.43 -7.5,-50.92 455.3,-180.06 1009.8,-162.84 1464.5,-82.01 272.8,48.48 682.7,202.52 938.3,502.1 -8.4,48.48 -12.8,100.34 -14.4,154.34 -68,459.7 -369.1,842.5 -526.9,1125.8 -375.7,674.2 -391.8,1251.6 233.9,1259.3" /></g><g
           transform="matrix(0.03882849,0,0,-0.03882849,-1060.5106,885.06883)"
           id="g1404"><path
             id="path1406"
             style="fill:#fabc3f;fill-opacity:1;fill-rule:nonzero;stroke:none"
             d="m 16300,11921.4 c -218.4,218.4 -512.4,572.7 -748.5,569.9 -627.3,-7.8 -611.2,-586.7 -234.5,-1262.7 158.3,-284 460.1,-667.8 528.4,-1128.8 -7.3,281.2 76.5,629.2 218.4,961.6 130.1,304.5 210.3,594.4 236.2,860" /></g><g
           transform="matrix(0.03843373,0,0,-0.03843373,-1060.5106,885.06883)"
           id="g1408"><path
             id="path1410"
             style="fill:#f59a79;fill-opacity:1;fill-rule:nonzero;stroke:none"
             d="m 15654.1,12941.3 c -39.4,0 -79.3,7.1 -118.2,22.3 -167.6,65.3 -250.3,254.1 -185.1,421.6 l 277.2,710.8 c 65.4,167.5 254.3,250.3 421.6,185 167.5,-65.3 250.4,-254.1 185,-421.6 l -277.2,-710.9 c -50.2,-128.6 -173.2,-207.2 -303.3,-207.2" /></g><g
           transform="matrix(0.03834624,0,0,-0.03834624,-1060.5106,885.06883)"
           id="g1412"><path
             id="path1414"
             style="fill:#2f635f;fill-opacity:1;fill-rule:nonzero;stroke:none"
             d="m 14445.1,12338.6 -107.8,-364.6 c 927.8,960.5 1707.8,713.2 1825.3,279.9 137.4,534.5 -758.6,1012.1 -1717.5,84.7" /></g><g
           transform="matrix(0.03810318,0,0,-0.03810318,-1060.5106,885.06883)"
           id="g1416"><path
             id="path1418"
             style="fill:#2f635f;fill-opacity:1;fill-rule:nonzero;stroke:none"
             d="m 16265.7,12332.1 c -14.2,-55.7 -39.8,-112 -77.4,-167.5 -512.2,-752.6 -1815.9,-1543.8 -2293.9,-1911.3 l -77.7,-262.76 c 478,367.56 1859.4,1187.96 2371.6,1940.66 90.2,132.7 111.7,274.6 77.4,400.9" /></g><g
           transform="matrix(0.04489944,0,0,-0.04489944,-1060.5106,885.06883)"
           id="g1420"><path
             id="path1422"
             style="fill:#f59a79;fill-opacity:1;fill-rule:nonzero;stroke:none"
             d="m 16300,8454.54 c -813.9,454.45 -1858.1,1108.63 -2468.2,1987.06 -166.6,239.7 -463.5,474.8 -703.8,264.4 -296.9,-260 -8.9,-668.1 197.6,-853.06 800.3,-716.64 1781.7,-1336.01 2819.7,-1583.75 l 154.7,185.35" /></g><g
           transform="matrix(0.03876781,0,0,-0.03876781,-1060.5106,885.06883)"
           id="g1424"><path
             id="path1426"
             style="fill:#fcd457;fill-opacity:1;fill-rule:nonzero;stroke:none"
             d="m 16300,11845.7 c -250.2,-226.4 -500.4,-452.9 -750.6,-679.5 -150.9,166.7 -302.1,333.6 -453,500.3 -453.1,500.4 297.4,1180 750.5,679.6 151.1,-166.8 302,-333.5 453.1,-500.4" /></g><g
           transform="matrix(0.03800158,0,0,-0.03800158,-1060.5106,885.06883)"
           id="g1428"><path
             id="path1430"
             style="fill:#f47673;fill-opacity:1;fill-rule:nonzero;stroke:none"
             d="m 16124.9,13901.8 c 129.5,-124.2 175.1,-287.1 101.9,-363.5 -73.4,-76.4 -237.8,-37.6 -367.4,86.8 -129.5,124.2 -175.1,286.8 -101.8,363.3 73.3,76.4 237.7,37.6 367.3,-86.6" /></g><g
           transform="matrix(0.03968009,0,0,-0.03968009,-1060.5106,885.06883)"
           id="g1432"><path
             id="path1434"
             style="fill:#f59a79;fill-opacity:1;fill-rule:nonzero;stroke:none"
             d="m 16107.8,14215.8 c 192.2,-468.3 28.8,-979 -365.1,-1140.7 -393.9,-161.6 -869,86.8 -1061.3,555.1 -192.2,468.3 -28.8,979.1 365.2,1140.8 393.9,161.6 869,-87 1061.2,-555.2" /></g><g
           transform="matrix(0.03964976,0,0,-0.03964976,-1060.5106,885.06883)"
           id="g1436"><path
             id="path1438"
             style="fill:#b04027;fill-opacity:1;fill-rule:nonzero;stroke:none"
             d="m 16226.7,14315.3 c -121.2,-195.1 -453.9,-98.2 -497.2,-295.4 -134.8,-614 -388.8,-103.2 -456.3,-300.3 -129.3,-377.4 -175.3,-625.7 -520.5,-340.9 -286.6,236.2 -371.3,1154.5 235.4,1428.9 456.2,206.3 821,23 1042.8,-146.2 176.5,-134.9 269.1,-228 195.8,-346.1" /></g><g
           transform="matrix(0.04108768,0,0,-0.04108768,-1060.5106,885.06883)"
           id="g1440"><path
             id="path1442"
             style="fill:#2f635f;fill-opacity:1;fill-rule:nonzero;stroke:none"
             d="m 15373.9,14124.7 c 421.2,108.7 809.8,140.3 868,70.5 58.1,-69.6 -236.4,-214.1 -657.7,-322.8 l -210.3,252.3" /></g><g
           transform="matrix(0.03779838,0,0,-0.03779838,-1060.5106,885.06883)"
           id="g1444"><path
             id="path1446"
             style="fill:#f59a79;fill-opacity:1;fill-rule:nonzero;stroke:none"
             d="m 16226.1,14438.6 c 73.9,-121.3 68.7,-259.5 -11.9,-308.6 -80.4,-49 -205.7,9.6 -279.6,130.8 -74,121.4 -68.7,259.5 11.8,308.6 80.5,49 205.7,-9.6 279.7,-130.8" /></g><g
           transform="matrix(0.03912235,0,0,-0.03912235,-1060.5106,885.06883)"
           id="g1448"><path
             id="path1450"
             style="fill:#b04027;fill-opacity:1;fill-rule:nonzero;stroke:none"
             d="m 16063.7,14143.5 c -3.6,0 -7.2,1 -10.4,3.2 -8.7,5.6 -11,17.3 -5.3,25.9 46,69.9 136.8,132.4 235,114.6 10.2,-1.8 17,-11.7 15.1,-21.9 -1.9,-10.2 -12.1,-16.8 -21.8,-15.1 -81.9,15 -157.7,-38.8 -197,-98.2 -3.6,-5.6 -9.5,-8.5 -15.6,-8.5" /></g><g
           transform="matrix(0.03903627,0,0,-0.03903627,-1060.5106,885.06883)"
           id="g1452"><path
             id="path1454"
             style="fill:#b04027;fill-opacity:1;fill-rule:nonzero;stroke:none"
             d="m 16294.2,14128.4 c 5.8,-45 -8.3,-83.5 -31.3,-86.5 -23.1,-2.8 -46.4,31 -52.1,75.7 -5.7,44.8 8.4,83.4 31.4,86.4 23.1,3 46.4,-30.9 52,-75.6" /></g><g
           transform="matrix(0.03920384,0,0,-0.03920384,-1060.5106,885.06883)"
           id="g1456"><path
             id="path1458"
             style="fill:#ffffff;fill-opacity:1;fill-rule:nonzero;stroke:none"
             d="m 16051.6,13700.2 c 26.9,-159 189.8,-112.6 248.4,-14.5 l -248.4,14.5" /></g><g
           transform="matrix(0.0396935,0,0,-0.0396935,-1060.5106,885.06883)"
           id="g1460"><path
             id="path1462"
             style="fill:#f59a79;fill-opacity:1;fill-rule:nonzero;stroke:none"
             d="m 16124.9,13924.5 c 0,0 175.1,-173.3 135.8,-222.7 -53.8,-67.5 -145.7,-47.8 -145.7,-47.8 l 9.9,270.5" /></g><g
           transform="matrix(0.03928357,0,0,-0.03928357,-1060.5106,885.06883)"
           id="g1464"><path
             id="path1466"
             style="fill:#58c59d;fill-opacity:1;fill-rule:nonzero;stroke:none"
             d="m 14611.9,14074 c -134.5,521.5 134.4,1041.7 600.5,1161.9 466.2,120.2 953.1,-204.9 1087.6,-726.3 L 14611.9,14074" /></g><g
           transform="matrix(0.04656596,0,0,-0.04656596,-1060.5106,885.06883)"
           id="g1468"><path
             id="path1470"
             style="fill:#f59a79;fill-opacity:1;fill-rule:nonzero;stroke:none"
             d="m 16139.1,8189.55 c -136.2,90.68 -411.8,30.3 -521.8,-21.6 -147.7,-69.54 -139.1,-221.51 -110.8,-275.68 28.4,-54.17 76.4,-92.13 131.7,-104.32 108.9,-23.87 192,36.82 265.5,90.23 48.4,35.22 94.1,68.56 144.6,79.62 25.9,5.76 52.4,-4.32 65.8,-25.08 16.3,-24.92 10.2,-60 -16.5,-96.21 -14.8,-19.85 -10.6,-47.95 9.3,-62.65 7.9,-5.91 17.3,-8.72 26.6,-8.72 2.3,0 4.7,0.38 7,0.76 -3.3,-7.8 -6.7,-15.45 -10.4,-22.95 -10.9,-22.2 -1.6,-49.09 20.6,-59.93 6.3,-3.1 13,-4.54 19.6,-4.54 16.6,0 32.5,9.24 40.3,25.15 80.3,164.7 89.4,378.87 -71.5,485.92" /></g><path
           id="path1474"
           style="fill:#fcd457;fill-opacity:1;fill-rule:nonzero;stroke:none;stroke-width:0.0352778"
           d="m -674.48702,420.82383 c -9.53558,0 -14.37217,-2.30364 -19.05,-4.52261 -4.67431,-2.2225 -9.09109,-4.32153 -18.15783,-4.32153 -9.06462,0 -13.47893,2.09903 -18.15288,4.32153 -4.67678,2.21897 -9.51266,4.52261 -19.04859,4.52261 -9.53594,0 -14.37288,-2.30364 -19.05071,-4.52261 -4.67149,-2.2225 -9.08791,-4.32153 -18.15077,-4.32153 -9.06604,0 -13.4807,2.09903 -18.15395,4.32153 -4.67677,2.21897 -9.51089,4.52261 -19.04894,4.52261 -9.53453,0 -14.37146,-2.30364 -19.04789,-4.52261 -4.67289,-2.2225 -9.08685,-4.32153 -18.15253,-4.32153 -0.57644,0 -1.04316,-0.46567 -1.04316,-1.0407 0,-0.57855 0.46672,-1.04422 1.04316,-1.04422 9.53629,0 14.37287,2.30011 19.05035,4.51909 4.67184,2.2225 9.0858,4.32505 18.15007,4.32505 9.06568,0 13.4814,-2.10255 18.15465,-4.32505 4.67607,-2.21898 9.5123,-4.51909 19.04824,-4.51909 9.53452,0 14.37111,2.30011 19.04718,4.51909 4.67395,2.2225 9.08932,4.32505 18.1543,4.32505 9.06321,0 13.48069,-2.10255 18.15288,-4.32505 4.67642,-2.21898 9.51336,-4.51909 19.04859,-4.51909 9.53947,0 14.37605,2.30011 19.05036,4.51909 4.67783,2.2225 9.09108,4.32505 18.15747,4.32505 9.06639,0 13.48317,-2.10255 18.15747,-4.32505 4.67784,-2.21898 9.51442,-4.51909 19.05353,-4.51909 0.57503,0 1.0407,0.46567 1.0407,1.04422 0,0.57503 -0.46567,1.0407 -1.0407,1.0407 -9.06992,0 -13.48317,2.09903 -18.15747,4.32153 -4.67783,2.21897 -9.51442,4.52261 -19.05353,4.52261" /><path
           id="path1476"
           style="fill:#fcd457;fill-opacity:1;fill-rule:nonzero;stroke:none;stroke-width:0.0352778"
           d="m -618.16604,559.07392 c -9.53559,0 -14.37217,-2.29658 -19.05001,-4.52261 -4.6743,-2.2225 -9.08755,-4.318 -18.15394,-4.318 -9.06639,0 -13.48317,2.0955 -18.15395,4.318 -4.67783,2.22603 -9.51441,4.52261 -19.05353,4.52261 -9.53205,0 -14.36864,-2.29658 -19.04612,-4.52261 -4.67289,-2.2225 -9.08649,-4.318 -18.15077,-4.318 -9.06603,0 -13.4807,2.0955 -18.15394,4.318 -4.67713,2.22603 -9.51336,4.52261 -19.05036,4.52261 -9.53593,0 -14.37216,-2.29658 -19.04859,-4.52261 -4.67148,-2.2225 -9.08614,-4.318 -18.15041,-4.318 -0.57856,0 -1.04317,-0.4692 -1.04317,-1.04422 0,-0.57856 0.46461,-1.0407 1.04317,-1.0407 9.53417,0 14.3704,2.29659 19.04541,4.52261 4.67536,2.21898 9.09003,4.318 18.15359,4.318 9.06463,0 13.48105,-2.09902 18.15395,-4.318 4.67677,-2.22602 9.5123,-4.52261 19.05035,-4.52261 9.53347,0 14.37041,2.29659 19.04683,4.52261 4.67395,2.21898 9.0872,4.318 18.15006,4.318 9.06639,0 13.48317,-2.09902 18.15748,-4.318 4.67783,-2.22602 9.51089,-4.52261 19.05,-4.52261 9.53558,0 14.37217,2.29659 19.05,4.52261 4.67431,2.21898 9.08756,4.318 18.15395,4.318 9.06639,0 13.48316,-2.09902 18.15747,-4.318 4.67783,-2.22602 9.51442,-4.52261 19.05,-4.52261 0.57856,0 1.04422,0.46214 1.04422,1.0407 0,0.57502 -0.46566,1.04422 -1.04422,1.04422 -9.06286,0 -13.47964,2.0955 -18.15395,4.318 -4.67783,2.22603 -9.51441,4.52261 -19.05352,4.52261" /><path
           id="path1478"
           style="fill:#fcd457;fill-opacity:1;fill-rule:nonzero;stroke:none;stroke-width:0.0352778"
           d="m -589.27354,589.52923 c -9.53559,0 -14.37217,-2.30011 -19.05353,-4.52261 -4.67078,-2.2225 -9.08756,-4.32153 -18.15395,-4.32153 -9.06639,0 -13.47964,2.09903 -18.15394,4.32153 -4.67784,2.2225 -9.51089,4.52261 -19.05,4.52261 -9.53559,0 -14.37217,-2.30011 -19.05001,-4.52261 -4.67077,-2.2225 -9.08402,-4.32153 -18.15041,-4.32153 -9.06463,0 -13.47894,2.09903 -18.1536,4.32153 -4.67607,2.2225 -9.51265,4.52261 -19.04682,4.52261 -9.537,0 -14.37252,-2.30011 -19.04894,-4.52261 -4.67396,-2.2225 -9.08862,-4.32153 -18.15501,-4.32153 -0.57503,0 -1.0414,-0.46567 -1.0414,-1.0407 0,-0.57855 0.46637,-1.04422 1.0414,-1.04422 9.53805,0 14.37323,2.30011 19.05071,4.52261 4.67325,2.21898 9.08861,4.318 18.15324,4.318 9.06603,0 13.47858,-2.09902 18.15112,-4.318 4.67748,-2.2225 9.51371,-4.52261 19.0493,-4.52261 9.53558,0 14.37216,2.30011 19.04647,4.52261 4.67431,2.21898 9.09108,4.318 18.15395,4.318 9.06639,0 13.47964,-2.09902 18.15394,-4.318 4.67784,-2.2225 9.51442,-4.52261 19.05,-4.52261 9.53911,0 14.37217,2.30011 19.05,4.52261 4.67431,2.21898 9.09109,4.318 18.15748,4.318 9.06639,0 13.48316,-2.09902 18.15747,-4.318 4.67783,-2.2225 9.51442,-4.52261 19.05,-4.52261 0.57856,0 1.04422,0.46567 1.04422,1.04422 0,0.57503 -0.46566,1.0407 -1.04422,1.0407 -9.06639,0 -13.47964,2.09903 -18.15747,4.32153 -4.67431,2.2225 -9.51089,4.52261 -19.05,4.52261" /><path
           id="path1480"
           style="fill:#58c59d;fill-opacity:1;fill-rule:nonzero;stroke:none;stroke-width:0.0352778"
           d="m -506.0074,411.95852 c -1.21708,4.13809 -5.59505,6.52639 -9.73314,5.30931 l -49.36772,-14.52386 c -4.13456,-1.21709 -6.52286,-5.59506 -5.30931,-9.73314 l 9.87425,-33.55976 c 1.21708,-4.13808 5.59506,-6.52638 9.73314,-5.3093 l 49.36773,14.52033 c 4.13808,1.21709 6.52639,5.59859 5.3093,9.73667 l -9.87425,33.55975" /><path
           id="path1482"
           style="fill:#58c59d;fill-opacity:1;fill-rule:nonzero;stroke:none;stroke-width:0.0352778"
           d="m -557.44946,492.19783 c -0.91369,3.10092 -4.19805,4.8895 -7.29897,3.97934 l -32.78717,-9.64495 c -3.10092,-0.91369 -4.89303,-4.19805 -3.98286,-7.29897 l 17.55422,-59.66531 c 0.91017,-3.10092 4.19453,-4.89303 7.29898,-3.97933 l 32.78716,9.64494 c 3.10092,0.91017 4.89303,4.19806 3.97934,7.29897 l -17.5507,59.66531" /><path
           id="path1484"
           style="fill:#2f635f;fill-opacity:1;fill-rule:nonzero;stroke:none;stroke-width:0.0352778"
           d="m -533.74632,506.26308 c -1.06539,3.61598 -4.89655,5.70795 -8.51605,4.64256 l -47.03939,-13.83595 c -3.6195,-1.06538 -5.70795,-4.89655 -4.64256,-8.51605 l 35.03789,-119.10837 c 1.06539,-3.6195 4.89656,-5.71147 8.51606,-4.64608 l 47.03586,13.83594 c 3.6195,1.06539 5.71147,4.89656 4.64608,8.51606 l -35.03789,119.11189" /><path
           id="path1486"
           style="fill:#a6e0d7;fill-opacity:1;fill-rule:nonzero;stroke:none;stroke-width:0.0352778"
           d="m -554.5849,484.77186 c 0.41275,-1.40758 0.35278,-2.64583 -0.18697,-3.71122 -0.53623,-1.06892 -1.47461,-1.79917 -2.81517,-2.19428 -1.34056,-0.39511 -2.52589,-0.28928 -3.556,0.3175 -1.03011,0.60678 -1.75331,1.61572 -2.16606,3.02331 l -0.87841,2.97391 8.72772,2.56822 z m -13.2327,2.87867 1.88031,-6.39234 c 0.44803,-1.52752 1.13947,-2.79047 2.06728,-3.79236 0.9278,-1.00189 2.01789,-1.67216 3.26672,-2.01083 1.24883,-0.33867 2.5788,-0.29986 3.98639,0.11289 1.40758,0.41628 2.54353,1.10419 3.41136,2.06375 0.86783,0.96308 1.42169,2.11314 1.65806,3.46075 0.23988,1.34055 0.13405,2.77989 -0.3175,4.30741 l -1.88031,6.39234 -14.07231,-4.14161" /><path
           id="path1488"
           style="fill:#a6e0d7;fill-opacity:1;fill-rule:nonzero;stroke:none;stroke-width:0.0352778"
           d="m -548.26665,463.52053 2.61408,0.76905 -3.20675,10.89731 -14.0723,-4.14161 3.12561,-10.63273 2.61408,0.76553 -2.17664,7.40128 3.05859,0.89605 1.92263,-6.53344 2.52942,0.74789 -1.91911,6.53344 3.25614,0.95603 2.25425,-7.6588" /><path
           id="path1490"
           style="fill:#a6e0d7;fill-opacity:1;fill-rule:nonzero;stroke:none;stroke-width:0.0352778"
           d="m -558.9664,457.55505 0.95955,-3.25614 11.41942,3.35845 2.07786,-7.05556 2.65289,0.77964 -3.03389,10.31522 -14.07583,-4.14161" /><path
           id="path1492"
           style="fill:#a6e0d7;fill-opacity:1;fill-rule:nonzero;stroke:none;stroke-width:0.0352778"
           d="m -555.39276,445.41244 0.95955,-3.25614 14.07231,4.14161 -0.95956,3.25614 -14.0723,-4.14161" /><path
           id="path1494"
           style="fill:#a6e0d7;fill-opacity:1;fill-rule:nonzero;stroke:none;stroke-width:0.0352778"
           d="m -549.49785,425.36761 12.28373,10.23408 -0.94545,3.21733 -15.86089,1.9297 1.03364,-3.5172 11.31359,-1.32291 -8.77712,-7.3025 0.9525,-3.2385" /><path
           id="path1496"
           style="fill:#a6e0d7;fill-opacity:1;fill-rule:nonzero;stroke:none;stroke-width:0.0352778"
           d="m -534.48715,416.67869 2.61408,0.76905 -3.20675,10.89731 -14.0723,-4.14161 3.12914,-10.63625 2.61055,0.76905 -2.17311,7.39776 3.05506,0.89958 1.92263,-6.53345 2.52942,0.74436 -1.91911,6.53345 3.25614,0.95956 2.25425,-7.65881" /><path
           id="path1498"
           style="fill:#a6e0d7;fill-opacity:1;fill-rule:nonzero;stroke:none;stroke-width:0.0352778"
           d="m -539.50365,403.53772 c -0.5715,0.38452 -1.00189,1.06891 -1.28764,2.04611 l -0.78317,2.65289 4.90714,1.44286 0.77964,-2.65289 c 0.28928,-0.9772 0.29281,-1.78506 0.0141,-2.42006 -0.27869,-0.635 -0.80786,-1.06891 -1.58397,-1.29469 -0.79022,-0.23636 -1.47461,-0.15875 -2.04611,0.22578 z m 11.03136,2.3495 -4.72017,1.55927 -0.0459,0.16228 -0.83608,2.83634 3.91936,1.15005 -0.95603,3.25967 -14.0723,-4.14161 1.78858,-6.09248 c 0.36689,-1.2453 0.89606,-2.26483 1.58044,-3.06211 0.68439,-0.79375 1.48167,-1.32997 2.39184,-1.60161 0.91017,-0.26811 1.88736,-0.25047 2.93511,0.0564 1.04422,0.30691 1.87325,0.82197 2.48003,1.54869 0.6103,0.72672 0.98072,1.60867 1.11125,2.65289 l 5.45041,-1.82739 -1.02658,3.49956" /><path
           id="path1500"
           style="fill:#a6e0d7;fill-opacity:1;fill-rule:nonzero;stroke:none;stroke-width:0.0352778"
           d="m -529.82343,392.0548 4.98828,1.46755 -0.95956,3.25614 -5.02708,-1.47814 -10.65036,2.78695 1.01953,-3.45722 7.35541,-1.91911 -5.1435,-5.59859 0.93839,-3.19616 7.47889,8.13858" /></g></g></g></svg>
