<?xml version="1.0" standalone="no"?>
<!DOCTYPE svg PUBLIC "-//W3C//DTD SVG 20010904//EN"
 "http://www.w3.org/TR/2001/REC-SVG-20010904/DTD/svg10.dtd">
<svg version="1.0" xmlns="http://www.w3.org/2000/svg"
 width="1024.000000pt" height="150.000000pt" viewBox="0 0 1024.000000 150.000000"
 preserveAspectRatio="xMidYMid meet">

<g transform="translate(0.000000,150.000000) scale(0.100000,-0.100000)"
fill="#000000" stroke="none">
<path d="M9758 1281 c-79 -26 -136 -90 -149 -169 -10 -63 -10 -606 0 -660 18
-90 93 -157 189 -169 68 -8 150 29 185 84 46 69 49 97 45 438 l-3 321 -26 49
c-42 83 -156 133 -241 106z m-6 -83 c-54 -57 -62 -91 -62 -258 l0 -150 146 0
145 0 -3 -179 c-3 -164 -5 -182 -24 -208 -74 -99 -204 -99 -278 0 -20 27 -21
42 -24 359 -3 316 -2 332 18 373 18 38 81 95 104 95 6 0 -4 -15 -22 -32z"/>
<path d="M9920 593 c0 -128 -2 -141 -25 -183 l-25 -45 29 32 c41 44 51 89 51
221 0 93 -3 112 -15 112 -13 0 -15 -22 -15 -137z"/>
</g>
</svg>
