<?xml version="1.0" encoding="UTF-8" standalone="no"?>
<svg
   viewBox="0 0 405.35568 305.053"
   height="305.05301"
   width="405.35599"
   xml:space="preserve"
   id="svg2"
   version="1.1"
   sodipodi:docname="Newsletter-logo.svg"
   inkscape:export-filename="Newsletter-logo.svg"
   inkscape:export-xdpi="96"
   inkscape:export-ydpi="96"
   inkscape:version="1.2.1 (9c6d41e410, 2022-07-14)"
   xmlns:inkscape="http://www.inkscape.org/namespaces/inkscape"
   xmlns:sodipodi="http://sodipodi.sourceforge.net/DTD/sodipodi-0.dtd"
   xmlns="http://www.w3.org/2000/svg"
   xmlns:svg="http://www.w3.org/2000/svg"
   xmlns:rdf="http://www.w3.org/1999/02/22-rdf-syntax-ns#"
   xmlns:cc="http://creativecommons.org/ns#"
   xmlns:dc="http://purl.org/dc/elements/1.1/"><sodipodi:namedview
     id="namedview107"
     pagecolor="#ffffff"
     bordercolor="#000000"
     borderopacity="0.25"
     inkscape:showpageshadow="2"
     inkscape:pageopacity="0.0"
     inkscape:pagecheckerboard="0"
     inkscape:deskcolor="#d1d1d1"
     showgrid="false"
     inkscape:zoom="0.8549462"
     inkscape:cx="746.83062"
     inkscape:cy="386.57403"
     inkscape:window-width="1920"
     inkscape:window-height="1001"
     inkscape:window-x="-9"
     inkscape:window-y="-9"
     inkscape:window-maximized="1"
     inkscape:current-layer="svg2" /><metadata
     id="metadata8"><rdf:RDF><cc:Work
         rdf:about=""><dc:format>image/svg+xml</dc:format><dc:type
           rdf:resource="http://purl.org/dc/dcmitype/StillImage" /></cc:Work></rdf:RDF></metadata><defs
     id="defs6" /><g
     id="g568"
     transform="matrix(0.67293594,0,0,0.63459844,-412.06259,-39.340642)"><path
       id="path14"
       style="fill:#f8f8f9;fill-opacity:1;fill-rule:nonzero;stroke:none;stroke-width:0.133333"
       d="m 701.53772,492.35233 c 116.61733,60.92133 305.69198,60.92387 422.30668,0.003 116.6186,-60.92293 116.6186,-159.69599 0,-220.61866 -116.6174,-60.92266 -305.69202,-60.92266 -422.30868,-10e-4 -116.61613,60.92133 -116.61613,159.69706 0.002,220.61746" /><path
       id="path16"
       style="fill:#e3e3e2;fill-opacity:1;fill-rule:nonzero;stroke:none;stroke-width:0.133333"
       d="m 668.98106,392.4562 -37.912,-21.88933 -5.4e-4,-81.3 37.91254,21.88933 v 81.3" /><path
       id="path18"
       style="fill:#eeeeee;fill-opacity:1;fill-rule:nonzero;stroke:none;stroke-width:0.133333"
       d="m 668.98106,311.1562 54.16039,-31.27066 0.001,81.30133 -54.16146,31.26933 v -81.3" /><path
       id="path20"
       style="fill:#f8f8f9;fill-opacity:1;fill-rule:nonzero;stroke:none;stroke-width:0.133333"
       d="m 723.14145,279.88554 -54.16039,31.27066 -37.91254,-21.88933 54.15987,-31.27067 37.91306,21.88934" /><path
       id="path22"
       style="fill:#e3e3e2;fill-opacity:1;fill-rule:nonzero;stroke:none;stroke-width:0.133333"
       d="m 674.39772,314.28154 43.32906,-25.01467 0.99587,0.57467 -0.001,30.11466 -43.32906,25.01467 -0.99586,-0.576 10e-4,-30.11333" /><path
       id="path24"
       style="fill:#f8f8f9;fill-opacity:1;fill-rule:nonzero;stroke:none;stroke-width:0.133333"
       d="m 675.39452,314.85754 43.32813,-25.016 -0.001,30.11466 -43.32906,25.01467 0.002,-30.11333" /><path
       id="path26"
       style="fill:#e3e3e2;fill-opacity:1;fill-rule:nonzero;stroke:none;stroke-width:0.133333"
       d="m 692.37786,310.1562 7.36773,-4.256 c 0.9568,-0.552 1.73227,-0.29866 1.73227,0.564 0,0.864 -0.77547,2.012 -1.73227,2.564 l -7.3688,4.25334 c -0.95667,0.552 -1.73227,0.30133 -1.73173,-0.56267 0,-0.864 0.776,-2.01067 1.7328,-2.56267" /><path
       id="path28"
       style="fill:#e3e3e2;fill-opacity:1;fill-rule:nonzero;stroke:none;stroke-width:0.133333"
       d="m 673.40079,352.38553 43.32919,-25.01466 -0.002,30.11466 0.99693,0.57467 -43.32866,25.016 -0.9964,-0.57733 10e-4,-30.11334" /><path
       id="path30"
       style="fill:#f8f8f9;fill-opacity:1;fill-rule:nonzero;stroke:none;stroke-width:0.133333"
       d="m 674.39719,352.96287 43.32866,-25.01733 -0.001,30.11466 -43.32866,25.016 10e-4,-30.11333" /><path
       id="path32"
       style="fill:#e3e3e2;fill-opacity:1;fill-rule:nonzero;stroke:none;stroke-width:0.133333"
       d="m 691.38106,348.2602 7.36773,-4.25467 c 0.95667,-0.552 1.73227,-0.29866 1.73227,0.564 0,0.864 -0.7756,2.01067 -1.73227,2.564 l -7.36933,4.25334 c -0.95627,0.552 -1.73174,0.3 -1.73067,-0.56267 0,-0.864 0.776,-2.012 1.73227,-2.564" /><path
       id="path34"
       style="fill:#e3e3e2;fill-opacity:1;fill-rule:nonzero;stroke:none;stroke-width:0.133333"
       d="M 668.97999,306.46554 631.06692,284.5762 v -81.30133 l 37.91254,21.88933 5.3e-4,81.30134" /><path
       id="path36"
       style="fill:#eeeeee;fill-opacity:1;fill-rule:nonzero;stroke:none;stroke-width:0.133333"
       d="m 668.97946,225.1642 54.16039,-31.26933 10e-4,81.30133 -54.16093,31.26934 -5.3e-4,-81.30134" /><path
       id="path38"
       style="fill:#f8f8f9;fill-opacity:1;fill-rule:nonzero;stroke:none;stroke-width:0.133333"
       d="m 723.13985,193.89487 -54.16039,31.26933 -37.91254,-21.88933 54.1604,-31.26933 37.91253,21.88933" /><path
       id="path40"
       style="fill:#e3e3e2;fill-opacity:1;fill-rule:nonzero;stroke:none;stroke-width:0.133333"
       d="m 674.39612,228.29087 43.32866,-25.016 0.99587,0.576 -10e-4,30.11333 -43.32812,25.016 -0.99694,-0.576 0.002,-30.11333" /><path
       id="path42"
       style="fill:#e3e3e2;fill-opacity:1;fill-rule:nonzero;stroke:none;stroke-width:0.133333"
       d="m 692.37586,224.1642 7.36813,-4.25466 c 0.95627,-0.552 1.73187,-0.3 1.73187,0.564 0,0.864 -0.7756,2.012 -1.73187,2.564 l -7.36867,4.25333 c -0.9568,0.552 -1.73186,0.3 -1.73186,-0.56267 5.3e-4,-0.864 0.77613,-2.012 1.7324,-2.564" /><path
       id="path44"
       style="fill:#e3e3e2;fill-opacity:1;fill-rule:nonzero;stroke:none;stroke-width:0.133333"
       d="m 673.39919,266.39487 43.32866,-25.01467 -10e-4,30.11334 0.99587,0.576 -43.32813,25.01466 -0.9968,-0.576 10e-4,-30.11333" /><path
       id="path46"
       style="fill:#f8f8f9;fill-opacity:1;fill-rule:nonzero;stroke:none;stroke-width:0.133333"
       d="m 674.39612,266.97087 43.32813,-25.01467 -0.002,30.11334 -43.32813,25.01466 0.002,-30.11333" /><path
       id="path48"
       style="fill:#e3e3e2;fill-opacity:1;fill-rule:nonzero;stroke:none;stroke-width:0.133333"
       d="m 691.37892,262.2682 7.3688,-4.25333 c 0.95627,-0.552 1.73174,-0.3 1.73174,0.56267 0,0.864 -0.77547,2.012 -1.7328,2.564 l -7.36827,4.25466 c -0.95733,0.552 -1.73173,0.3 -1.73173,-0.564 5.3e-4,-0.864 0.776,-2.01066 1.73226,-2.564" /><path
       id="path50"
       style="fill:#e3e3e2;fill-opacity:1;fill-rule:nonzero;stroke:none;stroke-width:0.133333"
       d="m 674.39506,228.28954 43.32919,-25.016 -0.002,30.11466 -43.32866,25.01467 10e-4,-30.11333" /><path
       id="path52"
       style="fill:#e3e3e2;fill-opacity:1;fill-rule:nonzero;stroke:none;stroke-width:0.133333"
       d="m 739.38878,218.1522 -23.71666,-13.68933 -10e-4,26.52933 23.71667,13.68934 10e-4,-26.52934" /><path
       id="path54"
       style="fill:#eeeeee;fill-opacity:1;fill-rule:nonzero;stroke:none;stroke-width:0.133333"
       d="m 690.64399,262.68687 v -37.524 l 9.29747,-5.38533 1.5344,2.25866 27.08012,-15.63466 5.4e-4,34.396 -37.91253,21.88933" /><path
       id="path56"
       style="fill:#f8f8f9;fill-opacity:1;fill-rule:nonzero;stroke:none;stroke-width:0.133333"
       d="m 690.64399,262.68687 2.7068,-32.83333 37.91306,-21.888 -2.70733,32.832 -37.91253,21.88933" /><path
       id="path58"
       style="fill:#eeeeee;fill-opacity:1;fill-rule:nonzero;stroke:none;stroke-width:0.133333"
       d="m 696.06012,243.1682 -20.6708,-11.93466 -10e-4,26.53066 20.6704,11.93334 10e-4,-26.52934" /><path
       id="path60"
       style="fill:#f8f8f9;fill-opacity:1;fill-rule:nonzero;stroke:none;stroke-width:0.133333"
       d="m 696.06012,240.79754 43.32813,-25.016 -10e-4,30.11466 -43.32812,25.01467 10e-4,-30.11333" /><path
       id="path62"
       style="fill:#e3e3e2;fill-opacity:1;fill-rule:nonzero;stroke:none;stroke-width:0.133333"
       d="m 713.04306,236.0962 7.36812,-4.25466 c 0.9568,-0.552 1.73227,-0.3 1.73227,0.564 0,0.86266 -0.77547,2.01066 -1.7328,2.56266 l -7.36813,4.25467 c -0.95733,0.552 -1.73186,0.3 -1.73186,-0.564 5.3e-4,-0.86267 0.77613,-2.01067 1.7324,-2.56267" /><path
       id="path64"
       style="fill:#e3e3e2;fill-opacity:1;fill-rule:nonzero;stroke:none;stroke-width:0.133333"
       d="m 696.06012,240.79754 -1.44426,-0.83334 v 30.11334 l 1.4448,0.83333 -5.4e-4,-30.11333" /><path
       id="path66"
       style="fill:#eeeeee;fill-opacity:1;fill-rule:nonzero;stroke:none;stroke-width:0.133333"
       d="m 694.61586,239.9642 43.32866,-25.01466 1.44373,0.832 -43.32813,25.016 -1.44426,-0.83334" /><path
       id="path68"
       style="fill:#e3e3e2;fill-opacity:1;fill-rule:nonzero;stroke:none;stroke-width:0.133333"
       d="m 1116.8177,343.19487 -37.9133,-21.888 V 240.0042 l 37.9133,21.88934 v 81.30133" /><path
       id="path70"
       style="fill:#eeeeee;fill-opacity:1;fill-rule:nonzero;stroke:none;stroke-width:0.133333"
       d="m 1116.8177,261.89354 54.16,-31.26934 10e-4,81.30134 -54.1613,31.26933 v -81.30133" /><path
       id="path72"
       style="fill:#f8f8f9;fill-opacity:1;fill-rule:nonzero;stroke:none;stroke-width:0.133333"
       d="m 1170.9777,230.6242 -54.16,31.26934 -37.9133,-21.88934 54.16,-31.268 37.9133,21.888" /><path
       id="path74"
       style="fill:#e3e3e2;fill-opacity:1;fill-rule:nonzero;stroke:none;stroke-width:0.133333"
       d="m 1122.2337,265.0202 43.328,-25.016 0.996,0.576 -10e-4,30.11467 -43.328,25.01467 -0.996,-0.576 10e-4,-30.11334" /><path
       id="path76"
       style="fill:#f8f8f9;fill-opacity:1;fill-rule:nonzero;stroke:none;stroke-width:0.133333"
       d="m 1123.2297,265.5962 43.328,-25.016 -10e-4,30.11467 -43.328,25.01467 V 265.5962" /><path
       id="path78"
       style="fill:#e3e3e2;fill-opacity:1;fill-rule:nonzero;stroke:none;stroke-width:0.133333"
       d="m 1140.2137,260.89354 7.368,-4.25334 c 0.9573,-0.55333 1.732,-0.3 1.732,0.56267 0,0.864 -0.7747,2.01067 -1.732,2.564 l -7.3693,4.25333 c -0.956,0.55334 -1.7307,0.30134 -1.7307,-0.56266 0,-0.864 0.776,-2.012 1.732,-2.564" /><path
       id="path80"
       style="fill:#e3e3e2;fill-opacity:1;fill-rule:nonzero;stroke:none;stroke-width:0.133333"
       d="m 1121.2377,303.12554 43.328,-25.016 v 30.11333 l 0.996,0.576 -43.328,25.016 -0.996,-0.57733 v -30.112" /><path
       id="path82"
       style="fill:#f8f8f9;fill-opacity:1;fill-rule:nonzero;stroke:none;stroke-width:0.133333"
       d="m 1122.2337,303.70154 43.328,-25.016 -10e-4,30.11333 -43.328,25.016 10e-4,-30.11333" /><path
       id="path84"
       style="fill:#e3e3e2;fill-opacity:1;fill-rule:nonzero;stroke:none;stroke-width:0.133333"
       d="m 1139.2164,298.99887 7.3693,-4.25467 c 0.956,-0.552 1.732,-0.3 1.732,0.564 0,0.86267 -0.776,2.01067 -1.732,2.564 l -7.3707,4.25334 c -0.956,0.552 -1.7306,0.3 -1.7306,-0.56267 10e-4,-0.864 0.776,-2.012 1.732,-2.564" /><path
       id="path86"
       style="fill:#1ab2a6;fill-opacity:1;fill-rule:nonzero;stroke:none;stroke-width:0.133333"
       d="m 756.09372,428.1762 c 0,0 0.15733,-21.1468 -13.17627,-37.00133 -11.81147,-14.04267 -18.088,-22.95067 -14.35933,-27.052 3.72866,-4.10134 11.70826,-5.092 22.4996,6.256 10.792,11.34533 11.62666,42.82653 10.13733,49.94786 l -5.10133,7.84947" /><path
       id="path88"
       style="fill:#06ab96;fill-opacity:1;fill-rule:nonzero;stroke:none;stroke-width:0.133333"
       d="m 755.63905,399.1962 c -2.464,-1.60533 -5.30667,-2.28933 -7.56,-2.56533 -0.43733,-0.0533 -0.86893,-0.10934 -1.29653,-0.16667 -1.14267,-1.80267 -2.4244,-3.576 -3.86507,-5.28933 -9.5156,-11.31334 -15.4396,-19.29467 -15.43227,-24.11334 0.002,-1.16266 0.3484,-2.14133 1.07294,-2.93866 1.52813,-1.68134 3.7724,-2.84 6.63013,-2.84 4.11413,0 9.5016,2.39866 15.86947,9.096 1.78933,1.88 3.304,4.31466 4.58133,7.09866 v 15.60267 c -5.776,-15.088 -14.87933,-24.01333 -20.45227,-28.364 -0.12186,-0.096 -0.26613,-0.14133 -0.40946,-0.14133 -0.19894,0 -0.3948,0.088 -0.526,0.256 -0.22654,0.29066 -0.17494,0.71066 0.11506,0.93733 5.87347,4.584 15.754,14.36667 21.27267,31.30667 v 2.12133" /><path
       id="path90"
       style="fill:#ffffff;fill-opacity:1;fill-rule:nonzero;stroke:none;stroke-width:0.133333"
       d="m 758.39238,405.44033 c -0.308,0 -0.58533,-0.21453 -0.652,-0.52653 -4.66533,-21.82827 -16.64733,-33.89627 -23.374,-39.1456 -0.29,-0.22667 -0.3416,-0.64667 -0.11506,-0.93733 0.22546,-0.288 0.64373,-0.34134 0.93546,-0.11467 6.86974,5.36267 19.10294,17.67733 23.8576,39.91867 0.0773,0.35853 -0.152,0.7148 -0.512,0.79186 l -0.14,0.0136" /><path
       id="path92"
       style="fill:#1ab2a6;fill-opacity:1;fill-rule:nonzero;stroke:none;stroke-width:0.133333"
       d="m 755.63905,436.04287 -5.41733,3.12813 c 0,0 -1.38534,-4.864 -7.312,-6.2536 -5.92667,-1.39067 -12.09334,-1.112 -16.2448,-6.25573 -4.15107,-5.14267 0.90253,-10.73747 0,-14.52814 -0.90267,-3.79066 -1.5052,-4.88013 -8.9396,-8.664 -7.43333,-3.784 -10.37346,-10.06933 -4.77813,-14.32933 5.59533,-4.26267 14.69013,-1.132 20.16399,2.60533 4.88547,3.33734 9.52454,4.216 14.96787,4.88534 5.444,0.668 14.33467,3.71466 12.976,16.3772 -1.35867,12.66293 -5.416,23.0348 -5.416,23.0348" /><path
       id="path94"
       style="fill:#ffffff;fill-opacity:1;fill-rule:nonzero;stroke:none;stroke-width:0.133333"
       d="m 734.77678,419.383 c -0.28226,0 -0.54426,-0.17867 -0.6348,-0.46147 -0.11253,-0.352 0.0807,-0.72653 0.43067,-0.83853 0.48907,-0.15627 12.03027,-3.8 16.9024,0.11467 0.288,0.23066 0.33333,0.64946 0.10267,0.93746 -0.22934,0.28747 -0.64934,0.33334 -0.93734,0.10107 -4.32133,-3.46933 -15.54733,0.0801 -15.65986,0.11453 l -0.20374,0.0323" /><path
       id="path96"
       style="fill:#ffffff;fill-opacity:1;fill-rule:nonzero;stroke:none;stroke-width:0.133333"
       d="m 756.24972,435.01633 c -0.336,0 -0.62534,-0.2536 -0.66134,-0.59626 -2.96933,-28.07867 -36.7944,-41.39987 -37.13493,-41.53187 -0.34373,-0.132 -0.51573,-0.51733 -0.38387,-0.86133 0.13227,-0.34267 0.5156,-0.516 0.86147,-0.38267 0.34893,0.13333 34.92667,13.73987 37.98267,42.63467 0.0387,0.36666 -0.22667,0.6948 -0.592,0.73333 l -0.072,0.004" /><path
       id="path98"
       style="fill:#1ab2a6;fill-opacity:1;fill-rule:nonzero;stroke:none;stroke-width:0.133333"
       d="m 1087.8804,417.57887 c 0.1546,-0.45734 5.8733,-29.90667 0,-50.78667 -5.384,-19.144 -12.2907,-26.20933 -22.208,-27.76667 -9.916,-1.55599 -14.2214,5.58267 -8.9547,15.25867 5.2667,9.67467 17.9387,22.53067 21.0533,44.15333 1.2827,8.9012 2.3467,16.6372 2.3467,16.6372 l 7.7627,2.50414" /><path
       id="path100"
       style="fill:#06ab96;fill-opacity:1;fill-rule:nonzero;stroke:none;stroke-width:0.133333"
       d="m 1083.5697,409.24553 c -1.6627,-1.776 -3.3507,-3.63066 -5.048,-5.55866 -0.236,-1.664 -0.488,-3.432 -0.7507,-5.24934 -3.1146,-21.62266 -15.7866,-34.47866 -21.0533,-44.15333 -1.54,-2.82933 -2.2627,-5.44267 -2.264,-7.684 0,-4.71467 3.1733,-7.788 8.6147,-7.788 0.8173,0 1.6866,0.0693 2.604,0.21333 9.9173,1.55734 16.824,8.62267 22.208,27.76667 1.5813,5.62133 2.3226,11.86533 2.5573,17.996 -0.1027,-0.001 -0.2053,-0.003 -0.3067,-0.003 -4.4213,0 -8.1733,2.33467 -8.0866,13.35734 0.029,3.608 0.6693,7.4948 1.5253,11.10266" /><path
       id="path102"
       style="fill:#ffffff;fill-opacity:1;fill-rule:nonzero;stroke:none;stroke-width:0.133333"
       d="m 1084.5444,400.67353 -0.037,-0.001 c -0.368,-0.02 -0.648,-0.336 -0.628,-0.70267 1.3666,-23.836 -6.4534,-45.12266 -20.4094,-55.55333 -0.2946,-0.22 -0.3546,-0.63867 -0.1346,-0.93333 0.22,-0.29334 0.64,-0.35467 0.9333,-0.13467 14.3093,10.69467 22.3333,32.42 20.9413,56.69733 -0.019,0.35467 -0.3133,0.628 -0.6653,0.628" /><path
       id="path104"
       style="fill:#1ab2a6;fill-opacity:1;fill-rule:nonzero;stroke:none;stroke-width:0.133333"
       d="m 1103.2364,432.9174 c -0.7654,-5.47453 2.3866,-13.69733 9.8613,-15.63587 7.4747,-1.9376 10.8173,-6.2428 8.116,-10.93866 -2.7,-4.69467 -2.0627,-8.99734 4.7267,-10.95067 6.7893,-1.952 12.7333,-5.36 8.8213,-12.50667 -2.836,-5.18133 -3.4653,-8.53866 3.4947,-18.76133 5.7706,-8.476 1.0533,-13.44933 -6.1774,-12.508 -7.2293,0.94133 -11.688,9.536 -16.2013,10.98533 -2.0347,0.65467 -3.3667,-0.552 -4.7627,-1.75866 -1.7,-1.46934 -3.4933,-2.93867 -6.7653,-1.04934 -5.96,3.44134 -5.592,12.256 -5.7813,18.40134 -0.188,6.14533 -0.5894,7.53866 -5.9787,6.784 -5.3893,-0.756 -10.648,0.13733 -10.5453,13.164 0.088,11.17866 6.056,25.01626 6.056,25.01626 l 15.136,9.75827" /><path
       id="path106"
       style="fill:#ffffff;fill-opacity:1;fill-rule:nonzero;stroke:none;stroke-width:0.133333"
       d="m 1093.7817,424.58153 -0.075,-0.004 c -0.3667,-0.0411 -0.6293,-0.37027 -0.5893,-0.73694 3.7546,-33.59346 32.5853,-61.92013 40.1,-67.66813 0.292,-0.224 0.7093,-0.168 0.9346,0.12533 0.2227,0.29334 0.168,0.71067 -0.124,0.93467 -7.42,5.67333 -35.8826,33.632 -39.5853,66.75707 -0.037,0.34013 -0.3267,0.59226 -0.6613,0.59226" /><path
       id="path108"
       style="fill:#ffffff;fill-opacity:1;fill-rule:nonzero;stroke:none;stroke-width:0.133333"
       d="m 1106.927,388.67887 c -0.272,0 -0.5253,-0.16534 -0.6253,-0.43334 -0.128,-0.34533 0.047,-0.72933 0.392,-0.85866 10.756,-4.00267 22.94,-2.116 23.4533,-2.03334 0.3627,0.0587 0.6107,0.40134 0.552,0.764 -0.057,0.364 -0.4106,0.604 -0.764,0.55334 -0.12,-0.0213 -12.3573,-1.912 -22.776,1.96666 l -0.232,0.0413" /><path
       id="path110"
       style="fill:#ffffff;fill-opacity:1;fill-rule:nonzero;stroke:none;stroke-width:0.133333"
       d="m 1097.3537,408.85913 c -0.1853,0 -0.368,-0.0761 -0.5,-0.2256 -7.1733,-8.12266 -8.7213,-17.816 -8.784,-18.22533 -0.056,-0.36267 0.1933,-0.70267 0.5573,-0.75867 0.3707,-0.0493 0.704,0.19334 0.76,0.55734 0.015,0.096 1.5614,9.72533 8.4667,17.54386 0.2427,0.276 0.2173,0.69747 -0.059,0.94174 -0.1267,0.11186 -0.284,0.16666 -0.4413,0.16666" /><path
       id="path112"
       style="fill:#1ab2a6;fill-opacity:1;fill-rule:nonzero;stroke:none;stroke-width:0.133333"
       d="m 755.63905,229.6642 v 206.37867 l 211.22666,-121.94933 -0.001,-187.61866 -157.06533,90.68132 -5.416,-15.63466 -48.744,28.14266" /><path
       id="path114"
       style="fill:#0c3c35;fill-opacity:1;fill-rule:nonzero;stroke:none;stroke-width:0.133333"
       d="M 755.63905,436.04287 V 229.6642 l 48.744,-28.14266 5.416,15.63466 75.82266,-43.77466 v 6.252 l -119.15199,68.792 -10.83067,187.61733" /><path
       id="path116"
       style="fill:#e3e3e2;fill-opacity:1;fill-rule:nonzero;stroke:none;stroke-width:0.133333"
       d="M 755.63905,436.04287 766.46972,248.42554 977.69504,126.47488 966.86571,314.09354 755.63905,436.04287" /><path
       id="path118"
       style="fill:#1ab2a6;fill-opacity:1;fill-rule:nonzero;stroke:none;stroke-width:0.133333"
       d="M 755.63905,436.04287 771.88572,251.5522 983.11104,129.60154 966.86571,314.09354 755.63905,436.04287" /><path
       id="path120"
       style="fill:#0c3c35;fill-opacity:1;fill-rule:nonzero;stroke:none;stroke-width:0.133333"
       d="M 755.63905,436.04287 771.88572,251.5522 885.62171,185.88687 v 25.01733 l -43.32533,25.01467 -5.416,-15.636 -48.744,28.14267 v 168.85599 l -32.49733,18.76134" /><path
       id="path122"
       style="fill:#1ab2a6;fill-opacity:1;fill-rule:nonzero;stroke:none;stroke-width:0.133333"
       d="M 788.13638,248.42554 V 454.8054 l 211.22666,-121.95053 -10e-4,-187.61866 -157.06533,90.68266 -5.416,-15.636 -48.744,28.14267" /><path
       id="path124"
       style="fill:#0d6f5e;fill-opacity:1;fill-rule:nonzero;stroke:none;stroke-width:0.133333"
       d="M 788.13638,454.8054 V 248.42554 l 48.744,-28.14267 5.416,15.636 43.32533,-25.01467 v 6.25334 l -86.65466,50.02933 -10.83067,187.61853" /><path
       id="path126"
       style="fill:#e3e3e2;fill-opacity:1;fill-rule:nonzero;stroke:none;stroke-width:0.133333"
       d="M 788.13638,454.8054 798.96705,267.18687 1010.1924,145.23621 999.36304,332.85487 788.13638,454.8054" /><path
       id="path128"
       style="fill:#1ab2a6;fill-opacity:1;fill-rule:nonzero;stroke:none;stroke-width:0.133333"
       d="M 788.13638,454.8054 804.38305,270.31487 1015.6084,148.36288 999.36304,332.85487 788.13638,454.8054" /><path
       id="path130"
       style="fill:#0d6f5e;fill-opacity:1;fill-rule:nonzero;stroke:none;stroke-width:0.133333"
       d="m 788.13638,454.8054 16.24667,-184.49053 81.23866,-46.904 v 31.26933 l -5.41466,3.12667 -5.416,-15.63467 -48.74534,28.14267 V 432.9174 l -37.90933,21.888" /><path
       id="path132"
       style="fill:#e3e3e2;fill-opacity:1;fill-rule:nonzero;stroke:none;stroke-width:0.133333"
       d="M 966.86571,520.47206 C 928.95238,498.583 893.77905,474.78566 877.72038,446.86007 l 48.74533,-28.14374 40.4,101.75573" /><path
       id="path134"
       style="fill:#1ab2a6;fill-opacity:1;fill-rule:nonzero;stroke:none;stroke-width:0.133333"
       d="M 826.04571,270.31487 V 476.695 l 211.22669,-121.95213 -10e-4,-187.61866 -157.06401,90.68266 -5.416,-15.63467 -48.74534,28.14267" /><path
       id="path136"
       style="fill:#06ab96;fill-opacity:1;fill-rule:nonzero;stroke:none;stroke-width:0.133333"
       d="M 826.04571,476.695 V 270.31487 l 48.74534,-28.14267 5.416,15.63467 5.41466,-3.12667 v 43.77867 l -21.66266,12.50667 -37.912,165.72946 h -10e-4" /><path
       id="path138"
       style="fill:#ffffff;fill-opacity:1;fill-rule:nonzero;stroke:none;stroke-width:0.133333"
       d="m 886.90038,331.33354 c -0.532,0 -0.612,-0.61467 -0.612,-0.98134 V 154.32154 c 0,-1.23733 0.90533,-2.804 1.976,-3.424 L 1040.711,62.884213 c 0.2574,-0.148 0.4987,-0.226667 0.6987,-0.226667 0.532,0 0.612,0.614667 0.612,0.981334 v 176.03199 c 0,1.236 -0.9053,2.804 -1.9773,3.42267 L 887.59771,331.1082 c -0.256,0.148 -0.49733,0.22534 -0.69733,0.22534" /><path
       id="path140"
       style="fill:#1ab2a6;fill-opacity:1;fill-rule:nonzero;stroke:none;stroke-width:0.133333"
       d="m 1041.4097,61.99088 c -0.3107,0 -0.66,0.101333 -1.032,0.314666 L 887.93105,150.32154 c -1.276,0.736 -2.30934,2.52667 -2.30934,4 V 330.3522 c 0,1.044 0.52,1.648 1.27867,1.648 0.30933,0 0.66,-0.10133 1.03067,-0.31466 l 152.44665,-88.01467 c 1.2773,-0.736 2.3107,-2.528 2.3107,-4 V 63.63888 c 0,-1.044 -0.5214,-1.648 -1.2787,-1.648 m -0.089,1.348 c 0.017,0.064 0.035,0.162666 0.035,0.3 v 176.03199 c 0,0.992 -0.784,2.34933 -1.644,2.84533 l -152.44665,88.01467 c -0.12267,0.0707 -0.216,0.10533 -0.27733,0.12267 -0.016,-0.064 -0.032,-0.164 -0.032,-0.30134 V 154.32154 c 0,-0.99333 0.78266,-2.34933 1.64266,-2.84533 L 1041.0444,63.461546 c 0.124,-0.072 0.2173,-0.106666 0.276,-0.122666" /><path
       id="path142"
       style="fill:#b0e4dc;fill-opacity:1;fill-rule:nonzero;stroke:none;stroke-width:0.133333"
       d="M 885.62171,298.45887 V 154.32154 c 0,-1.47333 1.03334,-3.264 2.30934,-4 L 1040.3777,62.305546 c 0.372,-0.213333 0.7213,-0.314666 1.032,-0.314666 0.7573,0 1.2787,0.604 1.2787,1.648 V 207.7762 l -1.3334,0.76934 v -144.90666 0 c 0,-0.137334 -0.017,-0.236 -0.035,-0.3 -0.059,0.016 -0.152,0.05067 -0.276,0.122666 L 888.59771,151.47621 c -0.86,0.496 -1.64266,1.852 -1.64266,2.84533 V 297.6882 l -1.33334,0.77067" /><path
       id="path144"
       style="fill:#1ab2a6;fill-opacity:1;fill-rule:nonzero;stroke:none;stroke-width:0.133333"
       d="m 901.87105,161.03488 54.15999,-31.26934 v 62.54 l -54.15999,31.268 v -62.53866" /><path
       id="path146"
       style="fill:#cceee7;fill-opacity:1;fill-rule:nonzero;stroke:none;stroke-width:0.133333"
       d="m 901.87105,223.57354 v -62.53866 l 54.15999,-31.26934 v 62.54 l -54.15999,31.268" /><path
       id="path148"
       style="fill:#ffffff;fill-opacity:1;fill-rule:nonzero;stroke:none;stroke-width:0.133333"
       d="m 947.90704,145.40021 v 18.76133 l -1.69733,0.948 c 0,0 0,-2.57333 0,-5.748 0,-3.17333 -2.584,-4.25466 -5.77333,-2.41466 l -22.972,13.26266 c -3.18933,1.84133 -5.77333,5.90667 -5.77333,9.08133 v 5.748 l -1.69734,1.012 v -18.76266 l 37.91333,-21.888" /><path
       id="path150"
       style="fill:#ffffff;fill-opacity:1;fill-rule:nonzero;stroke:none;stroke-width:0.133333"
       d="m 937.46038,193.21754 c -2.77867,1.604 -5.03067,-0.0787 -5.03067,-3.76267 v -30.09199 l -6.95733,3.78666 v 30.32267 c 0,3.68266 -2.252,7.96666 -5.03067,9.572 l -5.03066,2.90399 v 1.99067 l 27.08,-15.63333 v -1.992 c 0,0 -2.252,1.3 -5.03067,2.904" /><path
       id="path152"
       style="fill:#365462;fill-opacity:1;fill-rule:nonzero;stroke:none;stroke-width:0.133333"
       d="m 966.86304,126.63888 c 0.001,1.72666 1.552,2.232 3.464,1.128 l 52.64936,-30.397334 c 1.912,-1.105333 3.4626,-3.4 3.4626,-5.126667 0,-1.726666 -1.5506,-2.231999 -3.4626,-1.127999 l -52.64936,30.39733 c -1.91333,1.104 -3.464,3.4 -3.464,5.12667" /><path
       id="path154"
       style="fill:#365462;fill-opacity:1;fill-rule:nonzero;stroke:none;stroke-width:0.133333"
       d="m 966.86304,145.40021 c 0.001,1.72667 1.552,2.232 3.464,1.128 l 52.64936,-30.39733 c 1.912,-1.104 3.4626,-3.4 3.4626,-5.12667 0,-1.72666 -1.5506,-2.232 -3.4626,-1.128 l -52.64936,30.39733 c -1.91333,1.10534 -3.464,3.4 -3.464,5.12667" /><path
       id="path156"
       style="fill:#365462;fill-opacity:1;fill-rule:nonzero;stroke:none;stroke-width:0.133333"
       d="m 966.86304,164.16154 c 0.001,1.728 1.552,2.232 3.464,1.128 l 52.64936,-30.396 c 1.912,-1.10533 3.4626,-3.4 3.4626,-5.128 0,-1.72666 -1.5506,-2.23066 -3.4626,-1.12666 l -52.64936,30.396 c -1.91333,1.10533 -3.464,3.40133 -3.464,5.12666" /><path
       id="path158"
       style="fill:#365462;fill-opacity:1;fill-rule:nonzero;stroke:none;stroke-width:0.133333"
       d="m 966.86304,182.92421 c 0.001,1.72666 1.552,2.23066 3.464,1.12666 l 52.64936,-30.39599 c 1.912,-1.104 3.4626,-3.4 3.4626,-5.128 0,-1.72667 -1.5506,-2.232 -3.4626,-1.12667 l -52.64936,30.39733 c -1.91333,1.104 -3.464,3.4 -3.464,5.12667" /><path
       id="path160"
       style="fill:#365462;fill-opacity:1;fill-rule:nonzero;stroke:none;stroke-width:0.133333"
       d="m 901.87105,239.21487 c 0,1.728 1.55066,2.232 3.464,1.128 l 117.64135,-67.92533 c 1.912,-1.10533 3.4626,-3.4 3.4626,-5.128 0,-1.72667 -1.5506,-2.232 -3.4626,-1.12667 L 905.33371,234.0882 c -1.912,1.104 -3.46266,3.4 -3.46266,5.12667" /><path
       id="path162"
       style="fill:#365462;fill-opacity:1;fill-rule:nonzero;stroke:none;stroke-width:0.133333"
       d="m 901.87105,257.97754 c 0,1.72666 1.55066,2.232 3.464,1.12666 l 117.64135,-67.92533 c 1.912,-1.10533 3.4626,-3.4 3.4626,-5.128 0,-1.72666 -1.5506,-2.232 -3.4626,-1.12666 l -117.64269,67.92533 c -1.912,1.10533 -3.46266,3.4 -3.46266,5.128" /><path
       id="path164"
       style="fill:#365462;fill-opacity:1;fill-rule:nonzero;stroke:none;stroke-width:0.133333"
       d="m 901.87105,276.73887 c 0,1.72667 1.55066,2.232 3.464,1.12667 L 1022.9764,209.9402 c 1.912,-1.104 3.4626,-3.4 3.4626,-5.12666 0,-1.728 -1.5506,-2.232 -3.4626,-1.128 L 905.33371,271.6122 c -1.912,1.104 -3.46266,3.4 -3.46266,5.12667" /><path
       id="path166"
       style="fill:#1ab2a6;fill-opacity:1;fill-rule:nonzero;stroke:none;stroke-width:0.133333"
       d="m 826.04705,476.695 37.912,-165.72946 211.22535,-121.95067 -37.912,165.728 L 826.04705,476.695" /><path
       id="path168"
       style="fill:#1ab2a6;fill-opacity:1;fill-rule:nonzero;stroke:none;stroke-width:0.133333"
       d="m 877.72038,323.94554 v 122.91453 l 48.74533,-28.14374 0.001,-122.91213 -48.74667,28.14134" /><path
       id="path170"
       style="fill:#06ab96;fill-opacity:1;fill-rule:nonzero;stroke:none;stroke-width:0.133333"
       d="M 877.72038,446.86007 V 323.94554 l 2.48667,-1.43467 c 0,0.008 0,0.0147 0,0.0227 0,19.77466 0.34133,68.50933 18.26266,112.34693 l -20.74933,11.9796" /><path
       id="path172"
       style="fill:#ffffff;fill-opacity:1;fill-rule:nonzero;stroke:none;stroke-width:0.133333"
       d="M 966.90971,519.6762 C 962.76704,516.59086 922.79638,486.0346 902.47638,442.395 880.84705,395.94153 880.86705,341.76153 880.87371,321.36554 v -0.63467 l 144.89999,-83.65733 c -0.01,20.58133 0.021,74.83866 21.728,121.45599 19.848,42.62534 58.2907,72.83214 64.3867,77.44414 L 966.90971,519.6762" /><path
       id="path174"
       style="fill:#1ab2a6;fill-opacity:1;fill-rule:nonzero;stroke:none;stroke-width:0.133333"
       d="m 1026.4404,235.91887 -146.23335,84.42667 c 0,19.18133 -0.40534,74.93066 21.66533,122.33066 21.664,46.52666 64.99333,77.79586 64.99333,77.79586 l 146.23469,-84.42653 c 0,0 -43.3307,-31.27186 -64.9947,-77.79733 -22.0693,-47.39866 -21.6653,-103.148 -21.6653,-122.32933 m -1.3334,2.30933 c 10e-4,21.43734 0.4174,74.68134 21.7907,120.584 19.1813,41.192 55.6627,70.82133 63.792,77.08387 l -143.73199,82.98279 c -5.61867,-4.23333 -44.08933,-34.2708 -63.876,-76.76666 -21.56666,-46.31733 -21.548,-100.39067 -21.54133,-120.74666 v -0.24934 l 143.56662,-82.888" /><path
       id="path176"
       style="fill:#b0e4dc;fill-opacity:1;fill-rule:nonzero;stroke:none;stroke-width:0.133333"
       d="m 966.86571,520.47206 c 0,0 -43.32933,-31.2692 -64.99333,-77.79586 -1.2,-2.5776 -2.332,-5.176 -3.40267,-7.79573 -17.92133,-43.8376 -18.26266,-92.57227 -18.26266,-112.34693 0,-0.77467 0,-1.504 0,-2.188 l 146.23335,-84.42667 c 0,0.684 0,1.41333 0,2.188 0,20.956 0.3826,74.432 21.6653,120.14133 21.664,46.52547 64.9947,77.79733 64.9947,77.79733 L 966.86571,520.47206 M 881.54038,322.5642 c 0,21.21467 0.38533,74.11333 21.54133,119.548 19.78667,42.49586 58.25733,72.53333 63.876,76.76666 l 143.73199,-82.98279 v 0 c -8.1293,-6.26254 -44.6107,-35.89187 -63.792,-77.08387 -21.3733,-45.90266 -21.7893,-99.14666 -21.7907,-120.584 l -143.56662,82.888 v 0.24934 c 0,0.388 0,0.78666 0,1.19866" /><path
       id="path178"
       style="fill:#365462;fill-opacity:1;fill-rule:nonzero;stroke:none;stroke-width:0.133333"
       d="m 1009.9044,264.22687 -46.24802,26.70133 c -1.91334,1.10534 -3.42267,3.36934 -3.35867,5.06 0.0653,1.68934 1.68,2.164 3.59333,1.05867 l 46.24796,-26.70133 c 1.912,-1.104 3.4,-3.36934 3.336,-5.05867 -0.065,-1.68933 -1.6573,-2.164 -3.5706,-1.06" /><path
       id="path180"
       style="fill:#365462;fill-opacity:1;fill-rule:nonzero;stroke:none;stroke-width:0.133333"
       d="m 1010.8884,282.4202 -46.24669,26.70134 c -1.91467,1.104 -3.36267,3.33466 -3.22,4.98 0.14133,1.64533 1.82133,2.08133 3.73333,0.97733 l 46.24936,-26.70133 c 1.9133,-1.10534 3.3346,-3.332 3.1933,-4.97734 -0.1413,-1.644 -1.796,-2.084 -3.7093,-0.98" /><path
       id="path182"
       style="fill:#365462;fill-opacity:1;fill-rule:nonzero;stroke:none;stroke-width:0.133333"
       d="m 1012.7364,300.1162 -46.24802,26.70134 c -1.91334,1.104 -3.29467,3.29466 -3.06667,4.89066 0.228,1.596 1.976,1.99334 3.88933,0.888 l 46.24796,-26.70133 c 1.9134,-1.10533 3.2667,-3.29333 3.0387,-4.888 -0.2267,-1.596 -1.948,-1.996 -3.8613,-0.89067" /><path
       id="path184"
       style="fill:#365462;fill-opacity:1;fill-rule:nonzero;stroke:none;stroke-width:0.133333"
       d="m 1015.5084,317.2762 -46.24669,26.70133 c -1.91467,1.10534 -3.224,3.256 -2.91067,4.80134 0.31334,1.54666 2.13467,1.9 4.048,0.796 l 46.24796,-26.70133 c 1.912,-1.10534 3.1934,-3.24934 2.88,-4.79467 -0.3146,-1.54533 -2.1053,-1.90667 -4.0186,-0.80267" /><path
       id="path186"
       style="fill:#365462;fill-opacity:1;fill-rule:nonzero;stroke:none;stroke-width:0.133333"
       d="m 1019.2684,333.86687 -46.24669,26.70133 c -1.91333,1.104 -3.148,3.212 -2.73867,4.70133 0.40934,1.492 2.30934,1.80134 4.22134,0.696 l 46.24802,-26.70133 c 1.9133,-1.10533 3.116,-3.204 2.7066,-4.69466 -0.4106,-1.49067 -2.276,-1.80667 -4.1906,-0.70267" /><path
       id="path188"
       style="fill:#365462;fill-opacity:1;fill-rule:nonzero;stroke:none;stroke-width:0.133333"
       d="m 1024.083,349.85087 -112.71729,65.07746 c -1.91333,1.1052 -3.06533,3.16507 -2.54666,4.5932 0.516,1.42814 2.50266,1.68547 4.416,0.58027 l 112.71735,-65.07627 c 1.9133,-1.10533 3.0293,-3.15333 2.512,-4.58266 -0.5187,-1.428 -2.4694,-1.69734 -4.3814,-0.592" /><path
       id="path190"
       style="fill:#365462;fill-opacity:1;fill-rule:nonzero;stroke:none;stroke-width:0.133333"
       d="M 1030.0897,365.1162 917.37238,430.195 c -1.91333,1.1036 -2.96267,3.10787 -2.32933,4.46933 0.63066,1.3624 2.70533,1.56667 4.61733,0.4624 L 1032.3777,370.0482 c 1.9147,-1.104 2.9427,-3.09867 2.3107,-4.46 -0.6334,-1.36267 -2.6867,-1.576 -4.5987,-0.472" /><path
       id="path192"
       style="fill:#365462;fill-opacity:1;fill-rule:nonzero;stroke:none;stroke-width:0.133333"
       d="m 1037.4404,379.6682 -112.71735,65.07733 c -1.912,1.10414 -2.86534,3.05467 -2.108,4.34374 0.75866,1.2896 2.94266,1.42813 4.85733,0.32453 l 112.71602,-65.07893 c 1.9133,-1.104 2.8306,-3.03334 2.0733,-4.324 -0.76,-1.28934 -2.908,-1.448 -4.8213,-0.34267" /><path
       id="path194"
       style="fill:#365462;fill-opacity:1;fill-rule:nonzero;stroke:none;stroke-width:0.133333"
       d="M 1046.1177,393.41887 933.40038,458.495 c -1.91333,1.1052 -2.77067,3.00267 -1.89867,4.22653 0.87467,1.2224 3.14667,1.30787 5.05867,0.20427 l 112.71732,-65.07893 c 1.9133,-1.104 2.7427,-2.98 1.8707,-4.20267 -0.8747,-1.22267 -3.1174,-1.33067 -5.0307,-0.22533" /><path
       id="path196"
       style="fill:#365462;fill-opacity:1;fill-rule:nonzero;stroke:none;stroke-width:0.133333"
       d="M 1055.9537,406.49767 943.23638,471.5762 c -1.91333,1.10426 -2.688,2.95573 -1.71333,4.11986 0.97333,1.164 3.32533,1.20254 5.24,0.0973 l 112.71735,-65.07707 c 1.912,-1.10413 2.6626,-2.93333 1.688,-4.09733 -0.9734,-1.1656 -3.3014,-1.2256 -5.2147,-0.12133" /><path
       id="path198"
       style="fill:#365462;fill-opacity:1;fill-rule:nonzero;stroke:none;stroke-width:0.133333"
       d="m 1066.8497,418.96167 -112.71599,65.07866 c -1.91467,1.1036 -2.612,2.9104 -1.544,4.02133 1.06533,1.1104 3.492,1.1052 5.40533,10e-4 l 112.71736,-65.076 c 1.9133,-1.10626 2.5893,-2.89066 1.5226,-4.00106 -1.068,-1.11094 -3.4706,-1.12814 -5.3853,-0.024" /><path
       id="path200"
       style="fill:#365462;fill-opacity:1;fill-rule:nonzero;stroke:none;stroke-width:0.133333"
       d="M 1078.7657,430.86007 966.04838,495.9362 c -1.912,1.1052 -2.536,2.8708 -1.37734,3.92906 1.15734,1.05894 3.65867,1.00947 5.572,-0.0968 l 112.71736,-65.07599 c 1.9133,-1.10427 2.5146,-2.84694 1.356,-3.90574 -1.1587,-1.0584 -3.6374,-1.03186 -5.5507,0.0733" /><path
       id="path202"
       style="fill:#1ab2a6;fill-opacity:1;fill-rule:nonzero;stroke:none;stroke-width:0.133333"
       d="m 946.89905,300.6042 -53.176,30.70134 c 0.592,19.25866 2.788,47.05733 10.848,75.03733 l 53.17599,-30.70134 c -8.06,-27.98133 -10.25733,-55.77733 -10.84799,-75.03733" /><path
       id="path204"
       style="fill:#cceee7;fill-opacity:1;fill-rule:nonzero;stroke:none;stroke-width:0.133333"
       d="m 904.57105,406.34287 c -8.04267,-27.92 -10.24667,-55.66134 -10.844,-74.916 0.156,5.05733 0.42933,10.71333 0.88533,16.79066 0.488,0.08 0.996,0.12134 1.52267,0.12134 1.73333,0 3.66133,-0.44267 5.7,-1.39334 7.49733,-3.49733 13.576,-12.40933 13.576,-19.90666 v 0 0 c 0,-2.98133 -0.972,-5.27467 -2.59867,-6.75467 l -19.08933,11.02134 v 0 l 53.176,-30.70134 c 0.46133,15.00667 1.89599,35.196 6.31999,56.61733 -3.55333,-4.49733 -10.74799,-18.25733 -13.82533,-24.25999 -0.25066,-0.48934 -0.71333,-0.72267 -1.176,-0.72267 -0.548,0 -1.09466,0.328 -1.28666,0.948 -5.32667,17.092 -5.77067,35.00266 -5.77067,35.00266 -4.27467,-3.38266 -7.348,-6.748 -11.28667,-12.564 -0.24133,-0.35466 -0.608,-0.52 -0.97066,-0.52 -0.50267,0 -0.99867,0.316 -1.14667,0.88667 -2.90267,11.17467 -3.62933,22.256 -3.63067,30.55467 0,8.30133 0.72667,13.81866 0.732,13.85733 l -10.28666,5.93867 M 893.72571,331.4242 c 0,-0.009 0,-0.0187 0,-0.028 0,0.009 0,0.0187 0,0.028" /><path
       id="path206"
       style="fill:#1ab2a6;fill-opacity:1;fill-rule:nonzero;stroke:none;stroke-width:0.133333"
       d="m 915.41105,327.03887 c 0,-2.98133 -0.972,-5.27467 -2.59867,-6.75467 l -19.08933,11.02134 c 0.156,5.088 0.42933,10.78666 0.88933,16.91199 2.09333,0.344 4.56533,-0.0333 7.22267,-1.272 7.49733,-3.49733 13.576,-12.40933 13.576,-19.90666" /><path
       id="path208"
       style="fill:#96dbd0;fill-opacity:1;fill-rule:nonzero;stroke:none;stroke-width:0.133333"
       d="m 896.13505,348.33887 c -0.52667,0 -1.03467,-0.0413 -1.52267,-0.12134 -0.46,-6.12533 -0.73333,-11.82399 -0.88933,-16.91199 l 19.08933,-11.02134 c 1.62667,1.48 2.59867,3.77334 2.59867,6.75467 0,7.49733 -6.07867,16.40933 -13.576,19.90666 -2.03867,0.95067 -3.96667,1.39334 -5.7,1.39334" /><path
       id="path210"
       style="fill:#1ab2a6;fill-opacity:1;fill-rule:nonzero;stroke:none;stroke-width:0.133333"
       d="m 953.23771,357.2442 -10e-4,-10e-4 c -3.54667,-4.47467 -10.76,-18.26934 -13.84267,-24.28133 -0.54666,-1.068 -2.108,-0.91867 -2.46266,0.22533 -5.32667,17.092 -5.77067,35.00266 -5.77067,35.00266 -4.27467,-3.38266 -7.348,-6.748 -11.28667,-12.564 -0.572,-0.844 -1.86133,-0.61866 -2.11733,0.36667 -5.816,22.39067 -2.89867,44.412 -2.89867,44.412 l 42.88933,-24.76267 c -1.77733,-6.17333 -3.25733,-12.33066 -4.50933,-18.39733" /><path
       id="path212"
       style="fill:#96dbd0;fill-opacity:1;fill-rule:nonzero;stroke:none;stroke-width:0.133333"
       d="m 914.85771,400.4042 v 0 c -0.005,-0.0387 -0.732,-5.556 -0.732,-13.85733 10e-4,-8.29867 0.728,-19.38 3.63067,-30.55467 0.148,-0.57067 0.644,-0.88667 1.14667,-0.88667 0.36266,0 0.72933,0.16534 0.97066,0.52 3.93867,5.816 7.012,9.18134 11.28667,12.564 0,0 0.444,-17.91066 5.77067,-35.00266 0.192,-0.62 0.73866,-0.948 1.28666,-0.948 0.46267,0 0.92534,0.23333 1.176,0.72267 3.08267,6.01199 10.296,19.80666 13.84267,24.28133 l 10e-4,0.001 c 1.252,6.06667 2.732,12.224 4.50933,18.39733 l -42.889,24.763" /></g></svg>
