<?xml version="1.0" encoding="UTF-8" standalone="no"?>
<!-- Created with Inkscape (http://www.inkscape.org/) -->

<svg
   width="534.00623mm"
   height="656.25098mm"
   viewBox="0 0 534.00623 656.25098"
   version="1.1"
   id="svg5"
   xml:space="preserve"
   xmlns="http://www.w3.org/2000/svg"
   xmlns:svg="http://www.w3.org/2000/svg"><defs
     id="defs2" /><g
     id="layer1"
     transform="translate(939.1133,505.79573)"><g
       transform="matrix(0.03527778,0,0,-0.03527778,-997.38898,835.4472)"
       id="g12"><g
         id="g6641"><g
           transform="scale(2.34488)"
           id="g18"><path
             id="path20"
             style="fill:#a6e2f8;fill-opacity:1;fill-rule:nonzero;stroke:none"
             d="m 4305.85,15432 c 513.68,-113.6 1497.4,440.9 2302.3,-108.2 867.21,-591.7 505.83,-1547.7 291.49,-1962.1 -383.48,-741.6 -837.83,-1030.6 -739.7,-1920.4 C 6272.01,10425.2 5908.8,9323.77 5004.23,8876.88 3902.59,8332.68 2367.19,9927.56 1680.1,10077.3 c -1048.395,228.6 -1233.057,1833.3 -644.33,2553.6 404.44,494.8 544.79,1104.9 372.79,1822.8 -172.13,718.6 196.38,1846.3 1445.01,1754.9 506.14,-37.1 700.82,-610.5 1452.28,-776.6" /></g><g
           transform="scale(1.31829)"
           id="g22"><path
             id="path24"
             style="fill:#76c19c;fill-opacity:1;fill-rule:nonzero;stroke:none"
             d="m 12077.3,15514.5 c 0,-433.8 -2275.73,-785.5 -5083.02,-785.5 -2807.25,0 -5082.99,351.7 -5082.99,785.5 0,433.8 2275.74,785.5 5082.99,785.5 2807.29,0 5083.02,-351.7 5083.02,-785.5" /></g><g
           transform="scale(2.19172)"
           id="g26"><path
             id="path28"
             style="fill:#373e4b;fill-opacity:1;fill-rule:nonzero;stroke:none"
             d="m 5344.06,9854.4 c 0,-118.67 -97.09,-215.76 -215.71,-215.76 H 2356.13 c -118.67,0 -215.75,97.09 -215.75,215.76 v 6229.8 c 0,118.6 97.08,215.8 215.75,215.8 h 2772.22 c 118.62,0 215.71,-97.2 215.71,-215.8 V 9854.4" /></g><g
           transform="scale(2.13999)"
           id="g30"><path
             id="path32"
             style="fill:#ffffff;fill-opacity:1;fill-rule:nonzero;stroke:none"
             d="m 2513.87,10265.5 c -116.18,0 -211.27,95.1 -211.27,211.4 v 5611.8 c 0,116.2 95.09,211.3 211.27,211.3 h 2637.6 c 116.21,0 211.26,-95.1 211.26,-211.3 v -5611.8 c 0,-116.3 -95.05,-211.4 -211.26,-211.4 h -2637.6" /></g><g
           transform="scale(2.06735)"
           id="g34"><path
             id="path36"
             style="fill:#356e6a;fill-opacity:1;fill-rule:nonzero;stroke:none"
             d="m 5394.05,15735.5 c 0,-41.9 -34.25,-76.1 -76.19,-76.1 H 2616.78 c -41.89,0 -76.17,34.2 -76.17,76.1 v 488.3 c 0,41.9 34.28,76.2 76.17,76.2 h 2701.08 c 41.94,0 76.19,-34.3 76.19,-76.2 v -488.3" /></g><g
           transform="scale(2.04287)"
           id="g38"><path
             id="path40"
             style="fill:#a6e0d7;fill-opacity:1;fill-rule:nonzero;stroke:none"
             d="m 3079.59,16120.8 c 10.72,6.1 19.13,14.6 25.24,25.5 6.1,10.9 9.16,23.4 9.16,37.3 0,13.9 -3.06,26.4 -9.16,37.3 -6.11,10.9 -14.52,19.5 -25.24,25.6 -10.72,6.1 -22.72,9.1 -36.01,9.1 -13.3,0 -25.3,-3 -36.01,-9.1 -10.72,-6.1 -19.13,-14.7 -25.24,-25.6 -6.11,-10.9 -9.17,-23.4 -9.17,-37.3 0,-13.9 3.06,-26.4 9.17,-37.3 6.11,-10.9 14.52,-19.4 25.24,-25.5 10.71,-6.2 22.71,-9.2 36.01,-9.2 13.29,0 25.29,3 36.01,9.2 z m -99.19,-38.5 c -18.76,10.1 -33.44,24 -44.05,41.7 -10.61,17.6 -15.92,37.5 -15.92,59.6 0,22.1 5.31,42 15.92,59.7 10.61,17.6 25.29,31.5 44.05,41.6 18.75,10.1 39.81,15.1 63.18,15.1 23.36,0 44.37,-5 63.01,-15.1 18.66,-10.1 33.34,-24 44.05,-41.6 10.72,-17.7 16.08,-37.6 16.08,-59.7 0,-22.1 -5.36,-42 -16.08,-59.6 -10.71,-17.7 -25.39,-31.6 -44.05,-41.7 -18.64,-10 -39.65,-15.1 -63.01,-15.1 -23.37,0 -44.43,5.1 -63.18,15.1" /></g><g
           transform="scale(2.04238)"
           id="g42"><path
             id="path44"
             style="fill:#a6e0d7;fill-opacity:1;fill-rule:nonzero;stroke:none"
             d="m 3336.95,16247.4 c -8.15,6.8 -20.05,10.1 -35.7,10.1 h -42.44 v -78.4 h 42.44 c 15.65,0 27.55,3.4 35.7,10.3 8.15,6.8 12.23,16.5 12.23,28.9 0,12.7 -4.08,22.4 -12.23,29.1 z m 13.19,-172.5 -43.42,62.7 h -2.57 -45.34 v -62.7 h -52.11 v 225.1 h 97.45 c 19.94,0 37.25,-3.3 51.93,-10 14.69,-6.6 26,-16 33.94,-28.3 7.93,-12.2 11.89,-26.7 11.89,-43.4 0,-16.7 -4.02,-31.1 -12.06,-43.2 -8.04,-12.2 -19.45,-21.4 -34.25,-27.9 l 50.49,-72.3 h -55.95" /></g><g
           transform="scale(2.04238)"
           id="g46"><path
             id="path48"
             style="fill:#a6e0d7;fill-opacity:1;fill-rule:nonzero;stroke:none"
             d="m 3542.77,16117.7 c 22.51,0 40.47,6.2 53.87,18.8 13.4,12.5 20.1,29.5 20.1,50.9 0,21.5 -6.7,38.5 -20.1,51 -13.4,12.6 -31.36,18.8 -53.87,18.8 h -47.59 v -139.5 z m -99.69,182.3 h 102.26 c 24.45,0 46.04,-4.7 64.81,-14 18.76,-9.3 33.33,-22.4 43.74,-39.4 10.39,-16.9 15.59,-36.6 15.59,-59.2 0,-22.5 -5.2,-42.2 -15.59,-59.1 -10.41,-17 -24.98,-30.1 -43.74,-39.4 -18.77,-9.4 -40.36,-14 -64.81,-14 h -102.26 v 225.1" /></g><g
           transform="scale(2.04238)"
           id="g50"><path
             id="path52"
             style="fill:#a6e0d7;fill-opacity:1;fill-rule:nonzero;stroke:none"
             d="m 3883.02,16116.7 v -41.8 h -174.3 v 225.1 h 170.12 v -41.8 h -118.35 v -48.9 h 104.52 v -40.5 h -104.52 v -52.1 h 122.53" /></g><g
           transform="scale(2.04238)"
           id="g54"><path
             id="path56"
             style="fill:#a6e0d7;fill-opacity:1;fill-rule:nonzero;stroke:none"
             d="m 4054.75,16247.4 c -8.15,6.8 -20.05,10.1 -35.7,10.1 h -42.45 v -78.4 h 42.45 c 15.65,0 27.55,3.4 35.7,10.3 8.15,6.8 12.22,16.5 12.22,28.9 0,12.7 -4.07,22.4 -12.22,29.1 z m 13.19,-172.5 -43.42,62.7 h -2.58 -45.34 v -62.7 h -52.09 v 225.1 h 97.43 c 19.95,0 37.25,-3.3 51.94,-10 14.69,-6.6 26.01,-16 33.93,-28.3 7.94,-12.2 11.9,-26.7 11.9,-43.4 0,-16.7 -4.01,-31.1 -12.06,-43.2 -8.04,-12.2 -19.45,-21.4 -34.24,-27.9 l 50.48,-72.3 h -55.95" /></g><g
           transform="scale(2.04238)"
           id="g58"><path
             id="path60"
             style="fill:#a6e0d7;fill-opacity:1;fill-rule:nonzero;stroke:none"
             d="m 4458.36,16300 v -225.1 h -42.77 l -112.24,136.7 v -136.7 h -51.46 v 225.1 h 43.09 l 111.92,-136.7 v 136.7 h 51.46" /></g><g
           transform="scale(2.04287)"
           id="g62"><path
             id="path64"
             style="fill:#a6e0d7;fill-opacity:1;fill-rule:nonzero;stroke:none"
             d="m 4655.67,16120.8 c 10.72,6.1 19.14,14.6 25.25,25.5 6.1,10.9 9.16,23.4 9.16,37.3 0,13.9 -3.06,26.4 -9.16,37.3 -6.11,10.9 -14.53,19.5 -25.25,25.6 -10.71,6.1 -22.72,9.1 -36.01,9.1 -13.29,0 -25.29,-3 -36.01,-9.1 -10.71,-6.1 -19.12,-14.7 -25.24,-25.6 -6.11,-10.9 -9.16,-23.4 -9.16,-37.3 0,-13.9 3.05,-26.4 9.16,-37.3 6.12,-10.9 14.53,-19.4 25.24,-25.5 10.72,-6.2 22.72,-9.2 36.01,-9.2 13.29,0 25.3,3 36.01,9.2 z m -99.19,-38.5 c -18.75,10.1 -33.43,24 -44.04,41.7 -10.61,17.6 -15.92,37.5 -15.92,59.6 0,22.1 5.31,42 15.92,59.7 10.61,17.6 25.29,31.5 44.04,41.6 18.76,10.1 39.82,15.1 63.18,15.1 23.36,0 44.38,-5 63.02,-15.1 18.65,-10.1 33.33,-24 44.05,-41.6 10.71,-17.7 16.08,-37.6 16.08,-59.7 0,-22.1 -5.37,-42 -16.08,-59.6 -10.72,-17.7 -25.4,-31.6 -44.05,-41.7 -18.64,-10 -39.66,-15.1 -63.02,-15.1 -23.36,0 -44.42,5.1 -63.18,15.1" /></g><g
           transform="scale(2.04238)"
           id="g66"><path
             id="path68"
             style="fill:#a6e0d7;fill-opacity:1;fill-rule:nonzero;stroke:none"
             d="m 5116.03,16300 -73.64,-225.1 h -55.96 l -49.55,152.4 -51.12,-152.4 h -55.63 l -73.98,225.1 h 54.03 l 50.82,-158.2 53.06,158.2 h 48.23 l 51.46,-159.5 52.44,159.5 h 49.84" /></g><g
           transform="scale(1.65816)"
           id="g70"><path
             id="path72"
             style="fill:#e4f4d7;fill-opacity:1;fill-rule:nonzero;stroke:none"
             d="m 6041.76,11830.2 c -923.78,211.5 -1847.53,423 -2771.29,634.5 625.27,1202.3 252.84,2633 878.15,3835.3 923.75,-211.5 1847.5,-423 2771.28,-634.6 -625.27,-1202.3 -252.87,-2632.9 -878.14,-3835.2" /></g><g
           transform="scale(1.62247)"
           id="g74"><path
             id="path76"
             style="fill:#58c59d;fill-opacity:1;fill-rule:nonzero;stroke:none"
             d="m 6248.94,15714.8 c -519.35,118.9 -1038.62,237.8 -1557.94,356.8 25.74,76.8 54.33,153 86.13,228.4 519.32,-118.9 1038.63,-237.8 1557.92,-356.7 -31.81,-75.5 -60.41,-151.7 -86.11,-228.5" /></g><g
           transform="scale(1.58128)"
           id="g78"><path
             id="path80"
             style="fill:#58c59d;fill-opacity:1;fill-rule:nonzero;stroke:none"
             d="m 6685.36,15667 c -784.35,179.6 -1568.71,359.2 -2353.11,538.7 7.24,31.6 14.82,63 22.78,94.3 784.36,-179.6 1568.76,-359.1 2353.1,-538.7 -7.91,-31.4 -15.5,-62.8 -22.77,-94.3" /></g><g
           transform="scale(1.56487)"
           id="g82"><path
             id="path84"
             style="fill:#58c59d;fill-opacity:1;fill-rule:nonzero;stroke:none"
             d="m 6719.3,15659.5 c -792.6,181.5 -1585.22,363 -2377.82,544.4 6.21,32.1 12.71,64.1 19.49,96.1 792.59,-181.4 1585.22,-363 2377.82,-544.4 -6.83,-32 -13.29,-64 -19.49,-96.1" /></g><g
           transform="scale(1.54832)"
           id="g86"><path
             id="path88"
             style="fill:#58c59d;fill-opacity:1;fill-rule:nonzero;stroke:none"
             d="m 6760.11,15651.9 c -801.01,183.5 -1602.11,366.8 -2403.2,550.3 5.29,32.7 10.86,65.3 16.65,97.8 801.08,-183.4 1602.18,-366.8 2403.27,-550.3 -5.81,-32.5 -11.36,-65.1 -16.72,-97.8" /></g><g
           transform="scale(1.3102)"
           id="g90"><path
             id="path92"
             style="fill:#58c59d;fill-opacity:1;fill-rule:nonzero;stroke:none"
             d="m 5802.08,15932.4 c -372.78,85.4 -745.61,170.8 -1118.45,256.1 13,37.1 25.47,74.2 37.44,111.5 372.82,-85.3 745.61,-170.7 1118.41,-256.1 -11.94,-37.3 -24.4,-74.5 -37.4,-111.5" /></g><g
           transform="scale(1.51025)"
           id="g94"><path
             id="path96"
             style="fill:#58c59d;fill-opacity:1;fill-rule:nonzero;stroke:none"
             d="m 6067.16,15657.7 c -557.86,127.7 -1115.77,255.5 -1673.67,383.2 9.05,86.5 18.67,173 29.31,259.1 557.87,-127.7 1115.77,-255.5 1673.67,-383.2 -10.66,-86.1 -20.24,-172.6 -29.31,-259.1" /></g><g
           transform="scale(1.46188)"
           id="g98"><path
             id="path100"
             style="fill:#58c59d;fill-opacity:1;fill-rule:nonzero;stroke:none"
             d="m 6214.94,15635.5 c -576.37,132 -1152.74,263.9 -1729.11,395.9 8.91,89.4 17.45,179.1 26.09,268.6 576.34,-132 1152.71,-263.9 1729.04,-395.9 -8.62,-89.6 -17.12,-179.1 -26.02,-268.6" /></g><g
           transform="scale(1.41345)"
           id="g102"><path
             id="path104"
             style="fill:#58c59d;fill-opacity:1;fill-rule:nonzero;stroke:none"
             d="m 6363.25,15614.5 c -596.12,136.6 -1192.24,273 -1788.32,409.5 12.91,91.7 24.34,183.8 34.9,276 596.11,-136.5 1192.19,-273 1788.3,-409.4 -10.55,-92.3 -21.99,-184.3 -34.88,-276.1" /></g><g
           transform="scale(1.36547)"
           id="g106"><path
             id="path108"
             style="fill:#58c59d;fill-opacity:1;fill-rule:nonzero;stroke:none"
             d="m 6484.29,15595.2 c -617.05,141.3 -1234.08,282.6 -1851.14,423.9 21.34,93.1 40.21,186.7 57.01,280.9 617.06,-141.3 1234.14,-282.5 1851.16,-423.9 -16.85,-94.1 -35.68,-187.8 -57.03,-280.9" /></g><g
           transform="scale(1.47182)"
           id="g110"><path
             id="path112"
             style="fill:#58c59d;fill-opacity:1;fill-rule:nonzero;stroke:none"
             d="m 7036.38,15880.9 c -223.13,51.1 -446.22,102.1 -669.33,153.2 9.26,88.8 19.09,177.5 30.04,265.9 223.11,-51.1 446.2,-102.1 669.32,-153.2 -10.94,-88.5 -20.79,-177.1 -30.03,-265.9" /></g><g
           transform="scale(1.42345)"
           id="g114"><path
             id="path116"
             style="fill:#58c59d;fill-opacity:1;fill-rule:nonzero;stroke:none"
             d="m 7220.99,15865.6 c -230.67,52.9 -461.38,105.7 -692.03,158.5 9.16,91.9 17.88,183.9 26.72,275.9 230.73,-52.8 461.39,-105.6 692.07,-158.5 -8.85,-91.9 -17.63,-184 -26.76,-275.9" /></g><g
           transform="scale(1.37502)"
           id="g118"><path
             id="path120"
             style="fill:#58c59d;fill-opacity:1;fill-rule:nonzero;stroke:none"
             d="m 7408.92,15852.3 c -238.81,54.6 -477.62,109.3 -716.44,164 13.25,94.3 25.01,188.9 35.87,283.7 238.81,-54.6 477.63,-109.3 716.42,-164 -10.83,-94.8 -22.61,-189.5 -35.85,-283.7" /></g><g
           transform="scale(1.32704)"
           id="g122"><path
             id="path124"
             style="fill:#58c59d;fill-opacity:1;fill-rule:nonzero;stroke:none"
             d="m 7571.31,15840.9 c -247.46,56.7 -494.91,113.4 -742.33,170 21.97,95.8 41.28,192.2 58.62,289.1 247.5,-56.7 494.91,-113.3 742.41,-170 -17.41,-96.9 -36.78,-193.2 -58.7,-289.1" /></g><g
           transform="scale(1.3241)"
           id="g126"><path
             id="path128"
             style="fill:#356e6a;fill-opacity:1;fill-rule:nonzero;stroke:none"
             d="m 6769.95,16264.3 c -267.26,-16.6 -471.22,-247.5 -454.63,-514.8 16.59,-267.3 247.48,-471.2 514.74,-454.6 267.17,16.6 471.18,247.5 454.58,514.7 -16.59,267.3 -247.47,471.1 -514.69,454.7 z m 61.24,-987.9 c -277.51,-17.3 -517.22,194.4 -534.44,472 -17.16,277.5 194.58,517.2 472.04,534.4 277.48,17.2 517.2,-194.6 534.41,-472 17.23,-277.5 -194.49,-517.3 -472.01,-534.4" /></g><g
           transform="scale(1.30283)"
           id="g130"><path
             id="path132"
             style="fill:#356e6a;fill-opacity:1;fill-rule:nonzero;stroke:none"
             d="m 6896.43,16272.4 c -129.77,-8 -228.75,-120.1 -220.71,-249.8 8.03,-129.7 120.14,-228.7 249.89,-220.7 129.72,8 228.69,120.1 220.69,249.9 -8.03,129.7 -120.13,228.6 -249.87,220.6 z m 30.34,-489.4 c -140.16,-8.7 -261.25,98.3 -269.94,238.5 -8.68,140 98.27,261.2 238.42,269.8 140.17,8.7 261.26,-98.2 269.92,-238.4 8.71,-140.1 -98.22,-261.2 -238.4,-269.9" /></g><g
           transform="scale(1.29292)"
           id="g134"><path
             id="path136"
             style="fill:#356e6a;fill-opacity:1;fill-rule:nonzero;stroke:none"
             d="m 6978.54,16118.7 c 2.57,13.2 9.46,27.5 16.08,41.2 6.12,12.6 13,26.9 13.29,34.8 0.47,10.9 9.74,19.4 20.82,19.2 11.08,-0.5 19.68,-9.7 19.26,-20.8 -0.67,-16.2 -9.1,-33.7 -17.28,-50.6 -9.4,-19.5 23.45,-19.2 33.99,-13.3 18.09,10.2 45.1,55.4 35.19,99.2 -3.52,15.1 -7.38,29.9 -11.23,44.1 -2.95,10.6 3.34,21.6 14,24.6 10.71,2.9 21.74,-3.4 24.63,-14.2 11.38,-41.6 22.04,-84 25.32,-127.1 0.92,-12.2 1.2,-24.3 0.65,-36.4 -0.96,-20.9 -11.91,-82 -50.68,-113.7 -14.47,-11.8 -31.42,-18 -49.55,-18.3 -23.25,-0.3 -43.56,9.6 -56.98,28.7 -17.75,25.2 -24.64,65.4 -17.51,102.6" /></g><g
           transform="scale(1.29137)"
           id="g138"><path
             id="path140"
             style="fill:#356e6a;fill-opacity:1;fill-rule:nonzero;stroke:none"
             d="m 6963.03,16136.6 c -4.16,12.9 -12.73,26.1 -21.04,38.9 -7.61,11.8 -16.26,25.2 -17.51,32.9 -1.82,10.9 -12.11,18.2 -23.08,16.6 -10.95,-1.8 -18.35,-12.2 -16.55,-23.1 2.6,-16 13.23,-32.4 23.45,-48.2 11.72,-18.1 -20.93,-21.8 -32.14,-17.3 -19.25,7.8 -51.68,49.5 -47.27,94.1 1.68,15.5 3.69,30.7 5.75,45.3 1.61,11 -6.04,21 -17.01,22.7 -10.96,1.5 -21.13,-6.1 -22.69,-17.2 -6.16,-42.7 -11.46,-86.1 -9.42,-129.4 0.6,-12.2 1.79,-24.4 3.84,-36.3 3.52,-20.6 21.97,-79.9 64.4,-106.6 15.92,-10 33.53,-14 51.55,-12.1 23.11,2.5 42.1,14.9 53.09,35.6 14.47,27.2 16.35,68 4.63,104.1" /></g><g
           transform="scale(1.29637)"
           id="g142"><path
             id="path144"
             style="fill:#356e6a;fill-opacity:1;fill-rule:nonzero;stroke:none"
             d="m 6815.26,16211.9 c -0.04,-0.4 -0.11,-0.8 -0.2,-1.2 3.22,-28.6 18.19,-54.6 37.21,-76.6 -0.34,1.4 -0.72,2.8 -0.96,4.2 -2.4,14.7 7.58,28.6 22.92,31.1 14.69,1.9 28.08,-7.9 30.47,-22.4 1.02,-6.2 9.92,-20 16.54,-30.2 8.49,-13 17.23,-26.6 21.63,-40.3 1.86,-5.6 3.22,-11.4 4.44,-17.1 1.38,-0.8 2.17,-1.2 2.17,-1.2 0,0 0.45,0.3 1.3,0.9 0.45,6 1.17,12.1 2.3,18 2.68,14.2 9.72,28.7 16.49,42.7 5.32,11 12.44,25.8 12.68,32.1 0.58,14.6 12.64,26 27.46,25.9 15.52,-0.5 27.16,-13.2 26.58,-28.1 -0.11,-1.7 -0.26,-3.7 -0.52,-5.5 15.99,23.8 27.88,50.8 28.3,79 -0.38,1.4 -0.72,2.7 -1.09,4.1 -1.13,4.3 -1.13,8.5 -0.26,12.8 -6.61,34.7 -38.12,59.9 -74.36,57.7 -21.34,-1.3 -39.88,-12 -52.02,-27.7 -13.94,14 -33.65,22.3 -55.03,21 -36.79,-2.3 -65.29,-32.1 -66.79,-68.1 0.97,-3.5 1.29,-7.3 0.74,-11.1" /></g><g
           transform="scale(1.3185)"
           id="g146"><path
             id="path148"
             style="fill:#356e6a;fill-opacity:1;fill-rule:nonzero;stroke:none"
             d="m 6598.86,15614.4 c -55.14,54.5 -91.27,128.7 -96.41,212 -11.15,179.9 126.2,335.4 306.17,346.6 180.02,11.2 335.54,-126.2 346.71,-306.1 5.13,-83.3 -21.53,-161.4 -69.51,-222.3 l 84.19,-74.4 c 66.9,82.5 104.34,189.3 97.27,303.6 -14.98,241.7 -223.84,426.2 -465.57,411.2 -241.73,-15 -426.24,-223.8 -411.26,-465.5 7.07,-114.3 57.45,-215.6 134.05,-289.3 l 74.36,84.2" /></g><g
           transform="scale(1.26322)"
           id="g150"><path
             id="path152"
             style="fill:#356e6a;fill-opacity:1;fill-rule:nonzero;stroke:none"
             d="m 7370.06,16300 c -56.91,-57.6 -134.29,-95.2 -221.22,-100.6 -86.92,-5.4 -168.34,22.4 -231.95,72.5 l -77.6,-87.9 c 86.19,-69.8 197.64,-108.9 316.82,-101.5 119.18,7.3 224.99,60 301.81,139.8 l -87.86,77.7" /></g><g
           transform="scale(1.99301)"
           id="g154"><path
             id="path156"
             style="fill:#f59a79;fill-opacity:1;fill-rule:nonzero;stroke:none"
             d="m 4442.68,16029.9 c -9.06,-2.1 -18.99,0.2 -26.43,6.9 -27.52,24.7 -56.01,48.4 -83.57,71.3 -51.31,42.7 -104.39,86.8 -152.6,138.8 -11.1,12.1 -10.39,30.8 1.61,41.9 12.06,11.2 30.82,10.4 41.93,-1.6 45.59,-49.2 94.86,-90.1 146.99,-133.5 28.01,-23.3 56.94,-47.4 85.28,-72.8 12.19,-11 13.17,-29.7 2.26,-41.9 -4.27,-4.7 -9.69,-7.8 -15.47,-9.1" /></g><g
           transform="scale(2.00461)"
           id="g158"><path
             id="path160"
             style="fill:#f59a79;fill-opacity:1;fill-rule:nonzero;stroke:none"
             d="m 4478.76,16020.1 c -9.58,-2.2 -20.03,0.9 -26.82,8.9 -22.52,26.5 -45.95,52.1 -68.6,76.8 -41.93,45.8 -85.29,93.2 -123.82,147.5 -8.72,12.3 -5.82,29.3 6.47,38 12.25,8.7 29.23,5.8 37.94,-6.5 36.59,-51.6 76.88,-95.6 119.57,-142.2 23,-25.1 46.76,-51.1 69.93,-78.4 9.72,-11.4 8.33,-28.6 -3.15,-38.4 -3.43,-2.9 -7.38,-4.8 -11.52,-5.7" /></g><g
           transform="scale(1.99914)"
           id="g162"><path
             id="path164"
             style="fill:#f59a79;fill-opacity:1;fill-rule:nonzero;stroke:none"
             d="m 4531.05,16100.7 c -9.5,-2.1 -19.89,0.9 -26.73,8.8 -14.52,16.8 -29.44,32.7 -44.21,48.5 -27.6,29.5 -56.12,60 -81.3,95.1 -8.77,12.3 -5.97,29.3 6.33,38.1 12.18,8.8 29.27,6 38.07,-6.3 23.09,-32.2 49.16,-60.1 76.77,-89.6 15.27,-16.3 30.64,-32.8 45.62,-50.1 9.88,-11.4 8.63,-28.7 -2.77,-38.5 -3.5,-3 -7.54,-5 -11.78,-6" /></g><g
           transform="scale(2.00403)"
           id="g166"><path
             id="path168"
             style="fill:#f59a79;fill-opacity:1;fill-rule:nonzero;stroke:none"
             d="m 4446.7,15987.4 c -8.99,-2 -18.85,0.6 -25.72,7.7 -29.19,30.4 -59.56,59.6 -88.9,87.8 -54.5,52.5 -110.83,106.7 -160.89,169.4 -9.38,11.7 -7.44,28.9 4.28,38.3 11.74,9.4 28.89,7.4 38.28,-4.3 47.85,-59.9 100.42,-110.5 156.1,-164.1 29.74,-28.6 60.46,-58.2 90.38,-89.3 10.42,-10.9 10.1,-28.1 -0.73,-38.6 -3.71,-3.5 -8.15,-5.8 -12.8,-6.9" /></g><g
           transform="scale(1.9692)"
           id="g170"><path
             id="path172"
             style="fill:#f59a79;fill-opacity:1;fill-rule:nonzero;stroke:none"
             d="m 4567.43,16086.5 c -127.9,-29.2 -221.73,85.9 -265.2,139.2 -7.74,9.5 -15.76,19.4 -19.51,22.7 -11.4,10.2 -12.47,27.7 -2.28,39.1 10.14,11.4 27.68,12.5 39.12,2.3 7.06,-6.2 14.85,-15.8 25.65,-29 71.93,-88.3 153.04,-161.5 257.87,-100.7 13.27,7.7 30.22,3.2 37.88,-10 7.68,-13.3 3.19,-30.2 -10.05,-37.9 -21.97,-12.7 -43.15,-21 -63.48,-25.7" /></g><g
           transform="scale(1.98691)"
           id="g174"><path
             id="path176"
             style="fill:#f59a79;fill-opacity:1;fill-rule:nonzero;stroke:none"
             d="m 4352.91,16155.7 c 45.9,-56.9 10.76,-120.6 -49.69,-52.8 l 93.22,-138.9 c 46.44,-15.8 94.8,-32 144.35,-23.9 79.04,13.1 159.05,70.4 140.51,158.3 -17.99,85.1 -94.61,153.1 -162.3,201.6 l -166.09,-144.3" /></g><g
           transform="scale(1.97686)"
           id="g178"><path
             id="path180"
             style="fill:#f59a79;fill-opacity:1;fill-rule:nonzero;stroke:none"
             d="m 6384.35,15138.3 c -766.41,-2.3 -1452.69,456 -1838.78,907.6 l 55.08,254.1 c 126.64,-171.2 388.95,-362 561.67,-471.6 338.51,-214.8 765,-266.2 1160.78,-230.3 l 61.25,-459.8" /></g><g
           transform="scale(1.96885)"
           id="g182"><path
             id="path184"
             style="fill:#e5f6fb;fill-opacity:1;fill-rule:nonzero;stroke:none"
             d="m 4863.91,16200.6 c -11.66,99.4 -126.98,75.7 -88.16,-18.1 -17.94,54.8 -114.52,78.2 -110.31,18 2.04,-29.1 40.86,-50.4 66.33,-67.1 -71.61,59.8 -157.88,-33.4 -54.09,-60.9 -52.88,15.3 -136.88,6.6 -113.56,-65.6 19.97,-61.8 133.55,-51.8 183.83,-45.1 l 115.96,238.8" /></g><g
           transform="scale(1.9661)"
           id="g186"><path
             id="path188"
             style="fill:#41ad99;fill-opacity:1;fill-rule:nonzero;stroke:none"
             d="m 4954.94,16227.2 c -104.78,72.8 -314.18,-101.4 -262.67,-282.9 117.66,-414.3 1102.14,-821.9 1853.68,-843.8 377.3,-1.7 379.79,564.2 2.5,565.9 -424.45,11.6 -1149.18,252.1 -1593.51,560.8" /></g><g
           transform="scale(1.27683)"
           id="g190"><path
             id="path192"
             style="fill:#e19839;fill-opacity:1;fill-rule:nonzero;stroke:none"
             d="m 8911.22,15806.4 c 0.79,58.4 76.76,141.9 168.78,185.6 l 684.59,304.2 c 151.47,-2.2 168.07,3.8 319.71,1.7 155.8,-144 208.1,-357.9 137,-519.9 l -1310.47,2.6 c 0.16,8.3 0.31,16.8 0.39,25.8" /></g><g
           transform="scale(1.23614)"
           id="g194"><path
             id="path196"
             style="fill:#cfcfcd;fill-opacity:1;fill-rule:nonzero;stroke:none"
             d="m 10557.7,16297.3 c -12.9,-29.2 -29.1,-57.1 -49.9,-82.4 -459.9,6.5 -844.99,-4.4 -1304.81,2.1 0,0 0.49,35.5 1.14,83 l 1353.57,-2.7" /></g><g
           transform="scale(1.68258)"
           id="g198"><path
             id="path200"
             style="fill:#f47673;fill-opacity:1;fill-rule:nonzero;stroke:none"
             d="M 8198.44,16102.4 7142.62,16300 c -291.76,-1524 274.93,-2696.8 188.87,-3968.4 l 368.84,-16.4 c 227.87,786.1 198.39,1464.3 -34.11,1847.3 217.46,611 432.49,1335.2 532.22,1939.9" /></g><g
           transform="scale(1.29767)"
           id="g202"><path
             id="path204"
             style="fill:#eeb940;fill-opacity:1;fill-rule:nonzero;stroke:none"
             d="m 10515.3,15505 c -15.8,55.3 32.2,155.5 106.5,222.7 l 559.1,480.3 c 143.4,40.8 157.5,51.1 300.9,92 187.6,-91.6 297.3,-278.4 276.1,-451.3 l -1235.6,-368.1 c -2.3,7.9 -4.6,16 -7,24.4" /></g><g
           transform="scale(1.26175)"
           id="g206"><path
             id="path208"
             style="fill:#cfcfcd;fill-opacity:1;fill-rule:nonzero;stroke:none"
             d="m 12092.7,16300 c -3.8,-31 -11.3,-61.7 -23.7,-91.3 -433.3,-123.5 -791.6,-242.1 -1224.8,-365.5 0,0 -9.6,33.4 -22.3,78.2 l 1270.8,378.6" /></g><g
           transform="scale(1.73239)"
           id="g210"><path
             id="path212"
             style="fill:#ec1863;fill-opacity:1;fill-rule:nonzero;stroke:none"
             d="m 8176.06,15767.6 c -63.73,322.2 -376.18,532.4 -698.86,469.5 -318.4,-62 -527.77,-366.7 -473.74,-684.7 326.77,-33.8 861.07,70.4 1172.6,215.2" /></g><g
           transform="scale(1.6758)"
           id="g214"><path
             id="path216"
             style="fill:#f59a79;fill-opacity:1;fill-rule:nonzero;stroke:none"
             d="m 8481.3,14256.7 c -22.91,555.2 10.86,1090.3 -90.34,1632.8 8.83,16.5 16.77,33.6 24.11,50.9 23.87,56.3 39.38,116.4 45.65,178.6 5.9,58.3 3.64,118.5 -8.18,179.1 -0.12,0.6 -0.3,1.3 -0.42,1.9 -322.05,-149.7 -874.38,-257.4 -1212.19,-222.5 0.84,-5 1.55,-10 2.45,-14.9 7.34,-37.3 93.68,-335.9 100.84,-361.4 380.9,-1358.5 870.33,-2051 1272.35,-3186.9 l 325.63,78.8 c -55.43,703.6 -163.38,1307.9 -459.9,1663.6" /></g><g
           transform="scale(1.44469)"
           id="g218"><path
             id="path220"
             style="fill:#e5f6fb;fill-opacity:1;fill-rule:nonzero;stroke:none"
             d="m 8216.21,15686.5 c 3.6,-192 52.88,-393.5 230.77,-142.2 18.97,-191.6 232.51,-213.4 315.78,-53.7 12.46,-181.3 275.15,-206.2 282.35,-9.3 86.93,-170.4 378.48,-138.8 416.69,53.7 44.99,-239 401.68,-132.6 381.19,83.6 15.5,-219.6 303.41,-121.4 278.31,83.1 88.9,-266.4 359.1,-127.3 344.5,112.1 5,-106.9 90.1,-193.6 165.1,-89.7 94.4,130.8 -130.3,447.9 -155.9,575.9 l -2258.79,-613.5" /></g><g
           transform="scale(1.9183)"
           id="g222"><path
             id="path224"
             style="fill:#59c59b;fill-opacity:1;fill-rule:nonzero;stroke:none"
             d="m 7339.2,14673.5 c -165.25,378.1 -109.89,494 -99.88,945.9 11.05,500 -306.63,680.6 -595.37,629.4 -326.91,-58.1 -589.22,-573.7 -630.14,-741.7 -33.94,-139.5 -17.67,-248.4 18.97,-349 154.62,58 286.97,201.7 348.75,462.8 88.98,376.3 589.79,321.6 576.34,-64.9 -23.2,-668.4 -421.83,-1470.9 -803.31,-1800.5 -52.39,-366.4 -19.5,-1363 33.72,-1960 447.64,-77.2 1543.35,23.5 1765.58,299.7 -83.46,1104.1 -404.27,2097 -614.66,2578.3" /></g><g
           transform="scale(1.88267)"
           id="g226"><path
             id="path228"
             style="fill:#41ad99;fill-opacity:1;fill-rule:nonzero;stroke:none"
             d="m 7089.58,15850.5 c 13.7,393.7 -496.59,449.5 -587.26,66.1 -62.94,-266.1 -197.8,-412.5 -355.34,-471.5 53.59,-147.2 150.05,-277.2 199.55,-457.1 62.63,-227.7 -12.37,-531.1 -75.47,-972.1 388.7,335.8 794.88,1153.5 818.52,1834.6" /></g><g
           transform="scale(1.82274)"
           id="g230"><path
             id="path232"
             style="fill:#f59a79;fill-opacity:1;fill-rule:nonzero;stroke:none"
             d="M 7284.79,16270.6 C 7129.53,15454 6500.26,14817.5 5939.9,14499.4 l -259.17,110.9 c 208.36,99.6 465.5,339.6 617.75,501 298.39,316.3 440.93,759.9 484.16,1188.7 l 502.15,-29.4" /></g><g
           transform="scale(1.64165)"
           id="g234"><path
             id="path236"
             style="fill:#f59a79;fill-opacity:1;fill-rule:nonzero;stroke:none"
             d="m 6010.46,15775.4 c -2.38,0 -4.8,0.2 -7.23,0.7 -19.51,4.1 -32.06,23.1 -28.09,42.6 43.45,213 216.98,399.5 442.18,475 18.89,6.3 39.29,-3.8 45.57,-22.6 6.33,-18.9 -3.84,-39.3 -22.66,-45.7 -201.27,-67.5 -356.1,-232.8 -394.54,-421.1 -3.47,-17.1 -18.47,-28.9 -35.23,-28.9" /></g><g
           transform="scale(1.63071)"
           id="g238"><path
             id="path240"
             style="fill:#f59a79;fill-opacity:1;fill-rule:nonzero;stroke:none"
             d="m 6133.11,15774.3 c -19.46,0 -35.57,15.5 -36.2,35.1 -5.22,164.7 67.84,342.5 195.4,475.6 13.79,14.4 36.73,15 51.2,1.1 14.47,-13.8 15.03,-36.8 1.11,-51.2 -114.31,-119.4 -179.87,-277.6 -175.27,-423.2 0.68,-20 -15.02,-36.7 -35.07,-37.4 -0.37,0 -0.8,0 -1.17,0" /></g><g
           transform="scale(1.62513)"
           id="g242"><path
             id="path244"
             style="fill:#f59a79;fill-opacity:1;fill-rule:nonzero;stroke:none"
             d="m 6253.97,15828.4 c -17.66,0 -33.11,12.8 -35.88,30.8 -23.69,151.1 37.78,319.8 97.66,418.2 10.39,17.1 32.73,22.6 49.96,12.1 17.17,-10.4 22.58,-32.7 12.12,-49.9 -53.41,-88 -108.54,-237.4 -87.87,-369.2 3.08,-19.8 -10.52,-38.4 -30.33,-41.6 -1.91,-0.3 -3.82,-0.4 -5.66,-0.4" /></g><g
           transform="scale(1.62058)"
           id="g246"><path
             id="path248"
             style="fill:#f59a79;fill-opacity:1;fill-rule:nonzero;stroke:none"
             d="m 6389.06,15917.4 c -11.23,0 -22.34,5.3 -29.5,15.1 -68.61,94.4 -63.86,240.1 -38.93,336.1 5,19.6 24.86,31.4 44.43,26.2 19.49,-5 31.22,-25 26.16,-44.5 -22.59,-87.1 -22.89,-205.9 27.34,-274.9 11.84,-16.3 8.26,-39.2 -8.09,-50.9 -6.42,-4.8 -13.94,-7.1 -21.41,-7.1" /></g><g
           transform="scale(1.64484)"
           id="g250"><path
             id="path252"
             style="fill:#f59a79;fill-opacity:1;fill-rule:nonzero;stroke:none"
             d="m 6643.08,16183.4 c 49.18,-91.9 -4.44,-216.3 -119.71,-278 -115.21,-61.5 -248.54,-36.9 -297.6,55.1 -49.12,91.9 4.5,216.4 119.71,278 115.27,61.5 248.47,36.9 297.6,-55.1" /></g><g
           transform="scale(1.65612)"
           id="g254"><path
             id="path256"
             style="fill:#e5f6fb;fill-opacity:1;fill-rule:nonzero;stroke:none"
             d="m 6572.76,16300 c -40.33,-2.2 -145.04,-28.1 -128.01,-69.9 15.34,-37.3 40.58,-38.8 91.18,-32.4 5.86,0 5.74,0.3 -0.42,0.6 -57.91,-54.6 -26.93,-98.2 46.25,-74.4 -19.08,-82.2 43.41,-128 91.42,-50.7 -17.69,-58 -22.95,-140.1 50.42,-125.4 66.66,13.3 82.18,94 111.16,152.6 l -262,199.6" /></g><g
           transform="scale(1.89454)"
           id="g258"><path
             id="path260"
             style="fill:#59c59b;fill-opacity:1;fill-rule:nonzero;stroke:none"
             d="m 5738.97,14329.3 c -86.83,-100 69.56,-335.5 262.54,-302.5 440.64,75.1 970.9,1045.5 1077.31,1818.4 43.86,389.1 -539.77,454.8 -583.58,65.7 -59.32,-436.6 -388.27,-1157.6 -756.27,-1581.6" /></g><g
           transform="scale(1.92346)"
           id="g262"><path
             id="path264"
             style="fill:#e5f6fb;fill-opacity:1;fill-rule:nonzero;stroke:none"
             d="m 6770.71,16273.4 c 16.8,-26.7 -72,-112.8 -198.34,-192.5 -126.38,-79.6 -242.37,-122.6 -259.17,-96 -16.84,26.7 72.01,112.8 198.34,192.5 126.34,79.6 242.38,122.6 259.17,96" /></g><g
           transform="scale(1.92198)"
           id="g266"><path
             id="path268"
             style="fill:#e5f6fb;fill-opacity:1;fill-rule:nonzero;stroke:none"
             d="m 6877.07,16227.1 c 56.09,-72.9 -3.17,-212.6 -132.36,-312 -129.19,-99.5 -279.4,-121 -335.49,-48.1 -56.14,72.9 3.12,212.6 132.37,312.1 129.19,99.4 279.4,120.9 335.48,48" /></g><g
           transform="scale(1.97986)"
           id="g270"><path
             id="path272"
             style="fill:#f59a79;fill-opacity:1;fill-rule:nonzero;stroke:none"
             d="m 6440.7,15565.8 c -111.78,-14.5 -179.1,36.3 -179.1,135.2 v 419.9 c 0,98.9 80.15,179.1 179.1,179.1 98.94,0 179.15,-80.2 179.15,-179.1 V 15701 c 0,-98.9 -67.38,-120.7 -179.15,-135.2" /></g><g
           transform="scale(1.95211)"
           id="g274"><path
             id="path276"
             style="fill:#f47673;fill-opacity:1;fill-rule:nonzero;stroke:none"
             d="m 6435.81,16221.8 c -76.17,-63.3 -107.62,-151.1 -70.33,-196 37.34,-44.9 129.35,-30 205.52,33.3 76.23,63.3 107.68,151 70.38,196 -37.39,44.9 -129.39,30 -205.57,-33.3" /></g><g
           transform="scale(2.05416)"
           id="g278"><path
             id="path280"
             style="fill:#f59a79;fill-opacity:1;fill-rule:nonzero;stroke:none"
             d="m 5788.12,15934.5 c -123.26,-248.3 -53.84,-533.6 154.91,-637.2 208.84,-103.7 478.05,13.5 601.36,261.7 123.22,248.3 53.89,533.6 -155,637.3 -208.8,103.7 -478.01,-13.5 -601.27,-261.8" /></g><g
           transform="scale(1.99964)"
           id="g282"><path
             id="path284"
             style="fill:#d8e7ec;fill-opacity:1;fill-rule:nonzero;stroke:none"
             d="m 6087.23,16206 c -3.7,0 -7.2,1.9 -9.15,5.3 -19.3,34.5 -59.16,67 -105.02,62.1 -5.85,-0.6 -10.85,3.5 -11.5,9.2 -0.6,5.8 3.55,10.9 9.25,11.5 55.16,5.9 102.77,-32.1 125.47,-72.6 2.85,-5 1.05,-11.4 -3.95,-14.2 -1.65,-0.9 -3.4,-1.3 -5.1,-1.3" /></g><g
           transform="scale(1.99111)"
           id="g286"><path
             id="path288"
             style="fill:#7c2e1f;fill-opacity:1;fill-rule:nonzero;stroke:none"
             d="m 6002.54,16257.5 c -4.92,-24.6 1.36,-46.6 14.02,-49.1 12.65,-2.5 26.92,15.3 31.84,39.9 4.92,24.6 -1.36,46.6 -13.96,49.2 -12.71,2.5 -26.97,-15.4 -31.9,-40" /></g><g
           transform="scale(1.96207)"
           id="g290"><path
             id="path292"
             style="fill:#ffffff;fill-opacity:1;fill-rule:nonzero;stroke:none"
             d="m 6181.62,16300 c -19.27,-101.7 -134.35,-148.2 -134.35,-42.3 l 134.35,42.3" /></g><g
           transform="scale(1.98848)"
           id="g294"><path
             id="path296"
             style="fill:#f59a79;fill-opacity:1;fill-rule:nonzero;stroke:none"
             d="m 5941.67,16300 c -27.86,-96.5 -108.98,-96.9 -88.76,-126.4 27.61,-40.3 81.17,-47.2 81.17,-47.2 l 7.59,173.6" /></g><g
           transform="scale(2.00238)"
           id="g298"><path
             id="path300"
             style="fill:#7c2e1f;fill-opacity:1;fill-rule:nonzero;stroke:none"
             d="m 6008.3,16280.3 c -64.32,0 -116.66,-52.3 -116.66,-116.6 0,-64.4 52.34,-116.7 116.66,-116.7 64.33,0 116.66,52.3 116.66,116.7 0,64.3 -52.33,116.6 -116.66,116.6 z m 0,-252.9 c -75.16,0 -136.33,61.1 -136.33,136.3 0,75.1 61.17,136.3 136.33,136.3 75.16,0 136.34,-61.2 136.34,-136.3 0,-75.2 -61.18,-136.3 -136.34,-136.3" /></g><g
           transform="scale(1.98853)"
           id="g302"><path
             id="path304"
             style="fill:#7c2e1f;fill-opacity:1;fill-rule:nonzero;stroke:none"
             d="m 6456.69,16107.9 c -1.91,0 -3.82,0.6 -5.48,1.7 -4.58,3 -5.78,9.1 -2.77,13.7 l 4.23,6.3 c 15.24,22.6 34.19,50.8 27.1,76.1 -8.6,30.5 -49.23,44.2 -83.68,52.7 -69.09,17.1 -143.52,21.7 -204.22,12.5 -5.48,-0.8 -10.46,2.9 -11.26,8.3 -0.86,5.4 2.86,10.5 8.29,11.3 63.17,9.5 140.41,4.8 211.92,-12.9 39.68,-9.8 86.65,-26.2 98.01,-66.5 9.56,-34.1 -12.22,-66.5 -29.72,-92.5 l -4.17,-6.3 c -1.91,-2.8 -5.08,-4.4 -8.25,-4.4" /></g><g
           transform="scale(2.06132)"
           id="g306"><path
             id="path308"
             style="fill:#d8e7ec;fill-opacity:1;fill-rule:nonzero;stroke:none"
             d="m 7025.41,15269 c -5.72,112.6 -75.39,173.7 -181.73,189.7 35.08,72.3 66.52,167.1 18,240.6 -42.16,64 -131.95,79 -172.51,143.7 -43.03,68.7 -17.85,116.1 -14.36,183.5 6.7,131.1 -195.31,255.9 -325.52,204.9 -22.9,61.8 -86.69,68.6 -163.1,62.9 -128.02,-9.6 -276.18,-100.4 -374.37,-184.3 -41.28,-35.3 -111.87,-104.8 -88.58,-167.1 32.3,-86.2 211.22,-98.9 287.38,-87.1 2.92,-51.8 16.4,-89.9 63.02,-116 37.55,-20.9 119.05,-17.4 137.44,-63.1 17.51,-43.7 -38.86,-105.8 -46.52,-148 -12.18,-66.9 20.76,-66.1 53.41,-108.7 27.41,-35.8 19.5,-33.7 -6.65,-77.7 -28.77,-48.6 -57.24,-98.1 -48.37,-156.9 34.54,-228.8 406.88,-302.1 583.27,-256.9 154.08,39.6 287.73,173.1 279.19,340.5" /></g><g
           transform="scale(2.01985)"
           id="g310"><path
             id="path312"
             style="fill:#95a6b3;fill-opacity:1;fill-rule:nonzero;stroke:none"
             d="m 6669.07,15301.7 c -76.14,0 -140.6,25.1 -156.39,130.2 -11.09,74.1 4.95,146 50.4,226.2 26.58,46.9 34.55,78.3 25,98.7 -13.72,29.3 -66.84,39 -134.07,51.2 -37.18,6.8 -57.98,17.9 -65.45,35 -10.25,23.5 7.87,52 27.08,82.1 10.74,16.9 21.83,34.3 28.86,51.8 9.21,23 9.95,41.8 2.28,57.5 -16.83,34.5 -73.97,51.1 -129.22,67.1 -62.82,18.2 -127.83,37.1 -145.7,84 -11.09,29.2 -2.77,65.2 25.49,110.2 2.08,3.3 6.44,4.3 9.76,2.2 3.32,-2.1 4.31,-6.4 2.23,-9.7 -25.75,-41 -33.67,-72.9 -24.26,-97.6 15.35,-40.4 76.88,-58.2 136.44,-75.5 60.9,-17.7 118.38,-34.4 137.98,-74.5 9.51,-19.5 8.92,-42 -1.88,-68.9 -7.52,-18.8 -18.96,-36.8 -30.05,-54.2 -17.13,-26.9 -33.27,-52.2 -26.04,-68.8 5.3,-12.1 23.76,-21.1 54.95,-26.8 74.07,-13.4 127.59,-23.2 144.42,-59.2 11.83,-25.2 3.91,-59.6 -25.55,-111.6 -43.81,-77.3 -59.26,-146.2 -48.66,-217.1 16.63,-111.1 90,-126.3 195.01,-114.9 3.91,0.4 7.38,-2.4 7.83,-6.2 0.39,-3.9 -2.43,-7.4 -6.29,-7.8 -18.37,-2 -36.59,-3.3 -54.17,-3.4" /></g><g
           transform="scale(1.94699)"
           id="g314"><path
             id="path316"
             style="fill:#95a6b3;fill-opacity:1;fill-rule:nonzero;stroke:none"
             d="m 6781.28,15944.7 c -44.69,0 -89.22,15 -119.37,42.2 -21.88,19.7 -45.66,54.6 -34.72,108.4 8.99,44.6 35.85,81.8 61.84,117.8 18.65,25.9 37.91,52.6 49.98,81.4 1.54,3.7 5.8,5.5 9.55,3.9 3.75,-1.5 5.5,-5.8 3.95,-9.6 -12.68,-30.3 -32.46,-57.8 -51.61,-84.3 -26.2,-36.3 -50.95,-70.6 -59.38,-112.1 -9.5,-47.1 11.2,-77.4 30.2,-94.6 38.63,-34.9 106.37,-47.9 161.02,-30.9 3.85,1.2 7.96,-0.9 9.19,-4.8 1.19,-3.8 -0.97,-7.9 -4.82,-9.2 -17.93,-5.5 -36.88,-8.2 -55.83,-8.2" /></g><g
           transform="scale(2.01856)"
           id="g318"><path
             id="path320"
             style="fill:#95a6b3;fill-opacity:1;fill-rule:nonzero;stroke:none"
             d="m 6819.6,15775.7 c -1.43,0 -2.92,0.5 -4.21,1.4 -3.12,2.4 -3.77,6.8 -1.44,9.9 38.84,52.4 95.42,146.7 37.9,190 -16.15,12.1 -39.93,17.4 -62.91,22.5 -44.09,9.8 -94.08,20.9 -94.97,84.4 -0.4,24.2 7.53,45.5 14.56,64.4 6.94,18.7 12.44,33.4 6.64,42.7 -5.75,9.1 -23.38,14.9 -53.9,17.6 -8.27,0.8 -21.15,0.6 -36.07,0.4 -54.19,-0.8 -128.35,-1.8 -151.93,33.1 -9.32,13.8 -9.56,31.5 -0.75,52.6 1.49,3.6 5.65,5.3 9.27,3.8 3.56,-1.5 5.3,-5.7 3.76,-9.3 -6.93,-16.6 -7.13,-29.5 -0.54,-39.2 19.27,-28.5 91.89,-27.5 140,-26.9 15.31,0.2 28.53,0.4 37.5,-0.4 36.16,-3.2 56.13,-10.7 64.65,-24.2 9.51,-15.1 2.62,-33.7 -5.4,-55.2 -6.54,-17.6 -14.02,-37.6 -13.67,-59.2 0.79,-52.3 39.33,-60.9 83.92,-70.8 24.47,-5.4 49.74,-11.1 68.31,-25 50.63,-38.1 38.5,-110.6 -35.02,-209.7 -1.39,-1.9 -3.52,-2.9 -5.7,-2.9" /></g><g
           transform="scale(1.96445)"
           id="g322"><path
             id="path324"
             style="fill:#95a6b3;fill-opacity:1;fill-rule:nonzero;stroke:none"
             d="m 7068.76,15782.7 c -40.57,0 -78.75,12.6 -105.63,36.5 -27.03,23.9 -36.91,52.2 -27.79,79.5 12.16,36.6 57.93,67.1 106.44,71.1 3.97,0.5 7.53,-2.6 7.84,-6.6 0.3,-4 -2.65,-7.5 -6.67,-7.8 -43.02,-3.6 -83.39,-29.9 -93.82,-61.3 -7.23,-21.8 0.92,-43.9 23.62,-64.1 36.55,-32.3 96.57,-41.7 152.92,-23.9 49.63,15.7 83.64,48.3 93.41,89.5 27.79,117.3 -81.55,158.3 -178.07,194.5 -14.2,5.3 -27.89,10.5 -40.47,15.7 -42.2,17.3 -66.02,38.8 -72.79,65.6 -10.23,40.3 20.97,85.8 52.89,125 2.55,3.1 7.13,3.6 10.23,1.1 3.11,-2.6 3.56,-7.1 1.07,-10.3 -42,-51.6 -57.01,-85.2 -50.14,-112.3 5.6,-22 26.62,-40.2 64.24,-55.7 12.47,-5.1 26.01,-10.2 40.12,-15.5 91.93,-34.5 217.82,-81.7 187.07,-211.5 -10.79,-45.6 -49.38,-82.9 -103.18,-100 -20.32,-6.4 -41.13,-9.5 -61.29,-9.5" /></g><g
           transform="scale(2.04319)"
           id="g326"><path
             id="path328"
             style="fill:#95a6b3;fill-opacity:1;fill-rule:nonzero;stroke:none"
             d="m 6268.44,15969.7 c -0.19,0 -0.34,0 -0.54,0 -3.86,0.3 -6.75,3.6 -6.46,7.5 0.93,12.7 -2.3,22.5 -9.83,29.8 -25.5,24.9 -93.14,18.2 -137.88,13.8 -12.82,-1.3 -23.88,-2.4 -31.91,-2.5 -88.68,-1.6 -177.86,4.8 -228.46,62.5 -25.94,29.6 -32.21,63.5 -18.06,98.1 25.69,63.3 115.01,115.9 177.66,120.8 3.87,0.3 7.24,-2.6 7.54,-6.4 0.29,-3.9 -2.6,-7.2 -6.46,-7.5 -57.41,-4.5 -142.33,-54.4 -165.82,-112.1 -12.14,-29.9 -6.9,-58 15.66,-83.7 46.84,-53.4 132.29,-59.3 217.7,-57.8 7.49,0.2 18.25,1.3 30.78,2.5 47.33,4.7 118.84,11.7 148.99,-17.7 10.57,-10.3 15.27,-24 14.04,-40.8 -0.29,-3.7 -3.33,-6.5 -6.95,-6.5" /></g><g
           transform="scale(2.04282)"
           id="g330"><path
             id="path332"
             style="fill:#95a6b3;fill-opacity:1;fill-rule:nonzero;stroke:none"
             d="m 6296.73,16084.7 c -0.59,0 -1.12,0.1 -1.71,0.2 -3.77,1 -6.02,4.8 -5.04,8.5 2.25,8.8 1.42,15.3 -2.5,20 -14.54,17.3 -70,13 -118.9,9.1 -55.07,-4.2 -107.06,-8.3 -129.68,10.7 -21.24,17.9 -29.56,40.5 -24.03,65.4 9.93,44.9 64.17,88.9 106.66,100.4 3.77,1 7.59,-1.2 8.57,-4.9 1.03,-3.8 -1.17,-7.6 -4.9,-8.6 -38.57,-10.4 -88.11,-51.1 -96.68,-89.9 -4.4,-19.8 2.16,-37.2 19.39,-51.7 18.21,-15.3 69.76,-11.3 119.54,-7.4 57.42,4.4 111.56,8.7 130.7,-14.1 6.95,-8.3 8.76,-19.2 5.34,-32.4 -0.79,-3.2 -3.63,-5.3 -6.76,-5.3" /></g><g
           transform="scale(2.04514)"
           id="g334"><path
             id="path336"
             style="fill:#95a6b3;fill-opacity:1;fill-rule:nonzero;stroke:none"
             d="m 6652.9,16035.9 c -1.52,0 -3.03,0.5 -4.31,1.5 -23.71,18.8 -50.7,18.8 -76.76,18.9 -23.77,0 -46.26,0.1 -61.52,15.9 -13.1,13.6 -18.58,36.7 -17.3,72.6 0.34,10.8 2.93,22.9 5.62,35.6 6.31,29.5 12.81,60 -6.55,78.9 -24.94,24.2 -92.86,13.9 -132.41,1.1 -3.67,-1.2 -7.63,0.8 -8.81,4.5 -1.17,3.6 0.84,7.6 4.5,8.7 36.82,12 114.81,26.4 146.45,-4.3 24.88,-24.3 17.26,-60.2 10.51,-91.8 -2.59,-12.1 -5.04,-23.6 -5.38,-33.2 -1.12,-31.5 3.28,-51.9 13.45,-62.4 11.15,-11.6 29.82,-11.6 51.49,-11.7 27.13,0 57.84,-0.1 85.37,-21.8 3.03,-2.4 3.52,-6.8 1.12,-9.8 -1.37,-1.8 -3.42,-2.7 -5.47,-2.7" /></g><g
           transform="scale(1.99024)"
           id="g338"><path
             id="path340"
             style="fill:#f59a79;fill-opacity:1;fill-rule:nonzero;stroke:none"
             d="m 6289.43,16211 c -44.41,-62.2 -46.88,-136.6 -5.53,-166.1 41.36,-29.4 110.85,-2.8 155.21,59.5 44.37,62.3 46.83,136.7 5.48,166.1 -41.35,29.5 -110.84,2.8 -155.16,-59.5" /></g><g
           transform="scale(1.74663)"
           id="g342"><path
             id="path344"
             style="fill:#d6dada;fill-opacity:1;fill-rule:nonzero;stroke:none"
             d="M 3345.48,15867.1 H 5070.1 V 16300 H 3345.48 v -432.9" /></g><g
           transform="scale(1.74382)"
           id="g346"><path
             id="path348"
             style="fill:#c5c7c8;fill-opacity:1;fill-rule:nonzero;stroke:none"
             d="M 5057.39,15918.9 V 16300 H 3377.18 v -381.1 h 1680.21" /></g><g
           transform="scale(1.74382)"
           id="g350"><path
             id="path352"
             style="fill:#36968b;fill-opacity:1;fill-rule:nonzero;stroke:none"
             d="m 5015.01,16109.4 c 0,97.8 -118.12,177.1 -264.28,177.9 v 12.7 h 306.66 v -381.1 h -306.66 v 12.7 c 146.16,0.8 264.28,80.1 264.28,177.8" /></g><g
           transform="scale(1.74245)"
           id="g354"><path
             id="path356"
             style="fill:#58c59d;fill-opacity:1;fill-rule:nonzero;stroke:none"
             d="m 5018.93,16122 c 0,-97.8 -118.22,-177.1 -264.48,-177.9 v 355.9 c 146.26,-0.8 264.48,-80.1 264.48,-178" /></g><g
           transform="scale(1.73228)"
           id="g358"><path
             id="path360"
             style="fill:#d6dada;fill-opacity:1;fill-rule:nonzero;stroke:none"
             d="m 5440.47,16134.7 h 910.46 v 165.3 h -910.46 v -165.3" /></g><g
           transform="scale(1.73088)"
           id="g362"><path
             id="path364"
             style="fill:#c5c7c8;fill-opacity:1;fill-rule:nonzero;stroke:none"
             d="m 5444.87,16160.9 h 911.19 v 139.1 h -911.19 v -139.1" /></g><g
           transform="scale(1.72448)"
           id="g366"><path
             id="path368"
             style="fill:#a0a5a6;fill-opacity:1;fill-rule:nonzero;stroke:none"
             d="m 5701.27,16280.1 h 635.12 l -124.27,19.9 h -510.85 v -19.9" /></g><g
           transform="scale(1.73267)"
           id="g370"><path
             id="path372"
             style="fill:#36968b;fill-opacity:1;fill-rule:nonzero;stroke:none"
             d="m 5674.33,16165.8 -409.02,-39.8 v 174 l 409.02,-39.6 v -94.6" /></g><g
           transform="scale(1.74663)"
           id="g374"><path
             id="path376"
             style="fill:#d6dada;fill-opacity:1;fill-rule:nonzero;stroke:none"
             d="m 5111.8,15998.5 -41.7,-131.4 v 432.9 l 41.7,-130.2 v -171.3" /></g><g
           transform="scale(1.74382)"
           id="g378"><path
             id="path380"
             style="fill:#36968b;fill-opacity:1;fill-rule:nonzero;stroke:none"
             d="m 5099.14,16050.6 -41.75,-131.7 v 381.1 l 41.75,-130.4 v -119" /></g><g
           transform="scale(1.72845)"
           id="g382"><path
             id="path384"
             style="fill:#36968b;fill-opacity:1;fill-rule:nonzero;stroke:none"
             d="m 5688.21,16300 c 26.11,-26.2 26.11,-68.6 0,-94.8 v 94.8" /></g><g
           transform="scale(1.73475)"
           id="g386"><path
             id="path388"
             style="fill:#d6dada;fill-opacity:1;fill-rule:nonzero;stroke:none"
             d="m 5413.01,16088.6 h 19.73 v 211.4 h -19.73 v -211.4" /></g><g
           transform="scale(1.72696)"
           id="g390"><path
             id="path392"
             style="fill:#58c59d;fill-opacity:1;fill-rule:nonzero;stroke:none"
             d="m 5467.74,16300 215.19,-10.7 v -45.2 l -215.19,-10.6 v 66.5" /></g><g
           transform="scale(1.72785)"
           id="g394"><path
             id="path396"
             style="fill:#58c59d;fill-opacity:1;fill-rule:nonzero;stroke:none"
             d="m 5424.17,16293.6 v -70.5 l -130.18,-6.4 v 83.3 l 130.18,-6.4" /></g><g
           transform="scale(1.73228)"
           id="g398"><path
             id="path400"
             style="fill:#d6dada;fill-opacity:1;fill-rule:nonzero;stroke:none"
             d="m 6350.93,16134.7 13.22,12.6 v 140.1 l -13.22,12.6 v -165.3" /></g><g
           transform="scale(1.73475)"
           id="g402"><path
             id="path404"
             style="fill:#d6dada;fill-opacity:1;fill-rule:nonzero;stroke:none"
             d="m 5239.28,16088.6 h 19.74 v 211.4 h -19.74 v -211.4" /></g><g
           transform="scale(1.73267)"
           id="g406"><path
             id="path408"
             style="fill:#d6dada;fill-opacity:1;fill-rule:nonzero;stroke:none"
             d="m 5131.93,16127.3 h 113.62 v 172.7 h -113.62 v -172.7" /></g><g
           transform="scale(1.72987)"
           id="g410"><path
             id="path412"
             style="fill:#c5c7c8;fill-opacity:1;fill-rule:nonzero;stroke:none"
             d="m 5140.26,16180 h 113.81 v 120 h -113.81 v -120" /></g><g
           transform="scale(1.73475)"
           id="g414"><path
             id="path416"
             style="fill:#58c59d;fill-opacity:1;fill-rule:nonzero;stroke:none"
             d="m 4775.56,16300 v -80 H 3124.45 v 80 h 1651.11" /></g><g
           transform="scale(1.72061)"
           id="g418"><path
             id="path420"
             style="fill:#36968b;fill-opacity:1;fill-rule:nonzero;stroke:none"
             d="M 4814.8,16219.4 H 3150.12 v 80.6 H 4814.8 v -80.6" /></g><g
           transform="scale(1.72624)"
           id="g422"><path
             id="path424"
             style="fill:#b2e094;fill-opacity:1;fill-rule:nonzero;stroke:none"
             d="M 4799.1,16246.9 H 3139.85 v 53.1 H 4799.1 v -53.1" /></g><g
           transform="scale(1.75936)"
           id="g426"><path
             id="path428"
             style="fill:#d6dada;fill-opacity:1;fill-rule:nonzero;stroke:none"
             d="m 3347.35,15634.3 h -26.07 v 665.7 h 26.07 v -665.7" /></g><g
           transform="scale(1.74663)"
           id="g430"><path
             id="path432"
             style="fill:#58c59d;fill-opacity:1;fill-rule:nonzero;stroke:none"
             d="m 3102.73,15867.1 h -49.22 v 432.9 h 49.22 v -432.9" /></g><g
           transform="scale(1.73749)"
           id="g434"><path
             id="path436"
             style="fill:#171717;fill-opacity:1;fill-rule:nonzero;stroke:none"
             d="m 5066.44,16036.2 h 9.36 v 263.8 h -9.36 v -263.8" /></g><g
           transform="scale(1.73268)"
           id="g438"><path
             id="path440"
             style="fill:#171717;fill-opacity:1;fill-rule:nonzero;stroke:none"
             d="m 5031.24,16125.9 h 9.36 v 174.1 h -9.36 v -174.1" /></g><g
           transform="scale(1.73268)"
           id="g442"><path
             id="path444"
             style="fill:#171717;fill-opacity:1;fill-rule:nonzero;stroke:none"
             d="m 4982.03,16125.9 h 9.32 v 174.1 h -9.32 v -174.1" /></g><g
           transform="scale(1.73268)"
           id="g446"><path
             id="path448"
             style="fill:#171717;fill-opacity:1;fill-rule:nonzero;stroke:none"
             d="m 4932.74,16125.9 h 9.39 v 174.1 h -9.39 v -174.1" /></g><g
           transform="scale(1.73268)"
           id="g450"><path
             id="path452"
             style="fill:#171717;fill-opacity:1;fill-rule:nonzero;stroke:none"
             d="m 4883.49,16125.9 h 9.39 v 174.1 h -9.39 v -174.1" /></g><g
           transform="scale(1.73749)"
           id="g454"><path
             id="path456"
             style="fill:#171717;fill-opacity:1;fill-rule:nonzero;stroke:none"
             d="m 4820.89,16036.2 h 9.3 v 263.8 h -9.3 v -263.8" /></g><g
           transform="scale(1.73268)"
           id="g458"><path
             id="path460"
             style="fill:#171717;fill-opacity:1;fill-rule:nonzero;stroke:none"
             d="m 4785,16125.9 h 9.37 V 16300 H 4785 v -174.1" /></g><g
           transform="scale(1.73268)"
           id="g462"><path
             id="path464"
             style="fill:#171717;fill-opacity:1;fill-rule:nonzero;stroke:none"
             d="m 4735.74,16125.9 h 9.39 v 174.1 h -9.39 v -174.1" /></g><g
           transform="scale(1.73268)"
           id="g466"><path
             id="path468"
             style="fill:#171717;fill-opacity:1;fill-rule:nonzero;stroke:none"
             d="m 4686.51,16125.9 h 9.36 v 174.1 h -9.36 v -174.1" /></g><g
           transform="scale(1.73268)"
           id="g470"><path
             id="path472"
             style="fill:#171717;fill-opacity:1;fill-rule:nonzero;stroke:none"
             d="m 4637.26,16125.9 h 9.38 v 174.1 h -9.38 v -174.1" /></g><g
           transform="scale(1.73749)"
           id="g474"><path
             id="path476"
             style="fill:#171717;fill-opacity:1;fill-rule:nonzero;stroke:none"
             d="m 4575.28,16036.2 h 9.37 v 263.8 h -9.37 v -263.8" /></g><g
           transform="scale(1.73268)"
           id="g478"><path
             id="path480"
             style="fill:#171717;fill-opacity:1;fill-rule:nonzero;stroke:none"
             d="m 4538.75,16125.9 h 9.37 v 174.1 h -9.37 v -174.1" /></g><g
           transform="scale(1.73268)"
           id="g482"><path
             id="path484"
             style="fill:#171717;fill-opacity:1;fill-rule:nonzero;stroke:none"
             d="m 4489.51,16125.9 h 9.4 v 174.1 h -9.4 v -174.1" /></g><g
           transform="scale(1.73268)"
           id="g486"><path
             id="path488"
             style="fill:#171717;fill-opacity:1;fill-rule:nonzero;stroke:none"
             d="m 4440.26,16125.9 h 9.36 v 174.1 h -9.36 v -174.1" /></g><g
           transform="scale(1.73268)"
           id="g490"><path
             id="path492"
             style="fill:#171717;fill-opacity:1;fill-rule:nonzero;stroke:none"
             d="m 4391.02,16125.9 h 9.35 v 174.1 h -9.35 v -174.1" /></g><g
           transform="scale(1.73749)"
           id="g494"><path
             id="path496"
             style="fill:#171717;fill-opacity:1;fill-rule:nonzero;stroke:none"
             d="m 4329.73,16036.2 h 9.38 v 263.8 h -9.38 v -263.8" /></g><g
           transform="scale(1.73268)"
           id="g498"><path
             id="path500"
             style="fill:#171717;fill-opacity:1;fill-rule:nonzero;stroke:none"
             d="m 4292.5,16125.9 h 9.38 v 174.1 h -9.38 v -174.1" /></g><g
           transform="scale(1.73268)"
           id="g502"><path
             id="path504"
             style="fill:#171717;fill-opacity:1;fill-rule:nonzero;stroke:none"
             d="m 4243.28,16125.9 h 9.34 v 174.1 h -9.34 v -174.1" /></g><g
           transform="scale(1.73268)"
           id="g506"><path
             id="path508"
             style="fill:#171717;fill-opacity:1;fill-rule:nonzero;stroke:none"
             d="m 4193.99,16125.9 h 9.4 v 174.1 h -9.4 v -174.1" /></g><g
           transform="scale(1.73268)"
           id="g510"><path
             id="path512"
             style="fill:#171717;fill-opacity:1;fill-rule:nonzero;stroke:none"
             d="m 4144.74,16125.9 h 9.39 v 174.1 h -9.39 v -174.1" /></g><g
           transform="scale(1.73749)"
           id="g514"><path
             id="path516"
             style="fill:#171717;fill-opacity:1;fill-rule:nonzero;stroke:none"
             d="m 4084.19,16036.2 h 9.31 v 263.8 h -9.31 v -263.8" /></g><g
           transform="scale(1.73268)"
           id="g518"><path
             id="path520"
             style="fill:#171717;fill-opacity:1;fill-rule:nonzero;stroke:none"
             d="m 4046.25,16125.9 h 9.38 v 174.1 h -9.38 v -174.1" /></g><g
           transform="scale(1.73268)"
           id="g522"><path
             id="path524"
             style="fill:#171717;fill-opacity:1;fill-rule:nonzero;stroke:none"
             d="m 3996.99,16125.9 h 9.4 v 174.1 h -9.4 v -174.1" /></g><g
           transform="scale(1.73268)"
           id="g526"><path
             id="path528"
             style="fill:#171717;fill-opacity:1;fill-rule:nonzero;stroke:none"
             d="m 3947.77,16125.9 h 9.35 v 174.1 h -9.35 v -174.1" /></g><g
           transform="scale(1.73268)"
           id="g530"><path
             id="path532"
             style="fill:#171717;fill-opacity:1;fill-rule:nonzero;stroke:none"
             d="m 3898.52,16125.9 h 9.38 v 174.1 h -9.38 v -174.1" /></g><g
           transform="scale(1.73749)"
           id="g534"><path
             id="path536"
             style="fill:#171717;fill-opacity:1;fill-rule:nonzero;stroke:none"
             d="m 3838.58,16036.2 h 9.37 v 263.8 h -9.37 v -263.8" /></g><g
           transform="scale(1.73268)"
           id="g538"><path
             id="path540"
             style="fill:#171717;fill-opacity:1;fill-rule:nonzero;stroke:none"
             d="m 3800.01,16125.9 h 9.36 v 174.1 h -9.36 v -174.1" /></g><g
           transform="scale(1.73268)"
           id="g542"><path
             id="path544"
             style="fill:#171717;fill-opacity:1;fill-rule:nonzero;stroke:none"
             d="m 3750.76,16125.9 h 9.4 v 174.1 h -9.4 v -174.1" /></g><g
           transform="scale(1.73268)"
           id="g546"><path
             id="path548"
             style="fill:#171717;fill-opacity:1;fill-rule:nonzero;stroke:none"
             d="m 3701.51,16125.9 h 9.37 v 174.1 h -9.37 v -174.1" /></g><g
           transform="scale(1.73268)"
           id="g550"><path
             id="path552"
             style="fill:#171717;fill-opacity:1;fill-rule:nonzero;stroke:none"
             d="m 3652.28,16125.9 h 9.33 v 174.1 h -9.33 v -174.1" /></g><g
           transform="scale(1.73749)"
           id="g554"><path
             id="path556"
             style="fill:#171717;fill-opacity:1;fill-rule:nonzero;stroke:none"
             d="m 3593.04,16036.2 h 9.36 v 263.8 h -9.36 v -263.8" /></g><g
           transform="scale(1.96651)"
           id="g558"><path
             id="path560"
             style="fill:#fbd34b;fill-opacity:1;fill-rule:nonzero;stroke:none"
             d="m 3117.04,16300 c -101.19,0 -183.27,-82 -183.27,-183.3 0,-42.7 14.7,-81.9 39.18,-113 l 257.19,257.2 c -31.17,24.4 -70.36,39.1 -113.1,39.1" /></g><g
           transform="scale(1.96179)"
           id="g562"><path
             id="path564"
             style="fill:#fbd34b;fill-opacity:1;fill-rule:nonzero;stroke:none"
             d="m 3237.92,16300 -257.81,-257.8 c 9.06,-11.6 19.58,-22.1 31.16,-31.2 l 257.8,257.8 c -9.08,11.7 -19.55,22 -31.15,31.2" /></g><g
           transform="scale(1.95804)"
           id="g566"><path
             id="path568"
             style="fill:#fbd34b;fill-opacity:1;fill-rule:nonzero;stroke:none"
             d="m 3017.04,16041.7 c 31.32,-24.6 70.66,-39.4 113.49,-39.4 101.74,0 184.17,82.5 184.17,184.2 0,42.8 -14.76,82.2 -39.37,113.5 l -258.29,-258.3" /></g><g
           transform="scale(1.96445)"
           id="g570"><path
             id="path572"
             style="fill:#fce17b;fill-opacity:1;fill-rule:nonzero;stroke:none"
             d="m 3221.26,16265.6 c -28.06,21.5 -62.89,34.4 -100.95,34.4 -91.85,0 -166.28,-74.5 -166.28,-166.4 0,-38 12.9,-72.9 34.32,-100.8 l 232.91,232.8" /></g><g
           transform="scale(1.95656)"
           id="g574"><path
             id="path576"
             style="fill:#fce17b;fill-opacity:1;fill-rule:nonzero;stroke:none"
             d="m 3265.46,16300 -233.79,-233.8 c 28.08,-21.6 63.11,-34.5 101.23,-34.5 92.31,0 167.06,74.8 167.06,167 0,38.1 -12.9,73.2 -34.5,101.3" /></g><g
           transform="scale(1.94052)"
           id="g578"><path
             id="path580"
             style="fill:#fbd34b;fill-opacity:1;fill-rule:nonzero;stroke:none"
             d="m 3493.16,16300 c -102.54,0 -185.73,-83.1 -185.73,-185.8 0,-43.2 14.92,-82.9 39.71,-114.5 l 260.63,260.6 c -31.58,24.8 -71.3,39.7 -114.61,39.7" /></g><g
           transform="scale(1.9358)"
           id="g582"><path
             id="path584"
             style="fill:#fbd34b;fill-opacity:1;fill-rule:nonzero;stroke:none"
             d="m 3616.57,16300 -261.26,-261.3 c 9.18,-11.8 19.82,-22.3 31.58,-31.6 l 261.25,261.3 c -9.19,11.8 -19.81,22.3 -31.57,31.6" /></g><g
           transform="scale(1.93204)"
           id="g586"><path
             id="path588"
             style="fill:#fbd34b;fill-opacity:1;fill-rule:nonzero;stroke:none"
             d="m 3393.47,16038.2 c 31.72,-24.9 71.61,-39.9 115.01,-39.9 103.1,0 186.65,83.6 186.65,186.6 0,43.5 -14.98,83.4 -39.9,115.1 l -261.76,-261.8" /></g><g
           transform="scale(1.93846)"
           id="g590"><path
             id="path592"
             style="fill:#fce17b;fill-opacity:1;fill-rule:nonzero;stroke:none"
             d="m 3599.15,16265.2 c -28.41,21.7 -63.7,34.8 -102.27,34.8 -93.08,0 -168.52,-75.5 -168.52,-168.6 0,-38.5 13.08,-73.9 34.79,-102.2 l 236,236" /></g><g
           transform="scale(1.93056)"
           id="g594"><path
             id="path596"
             style="fill:#fce17b;fill-opacity:1;fill-rule:nonzero;stroke:none"
             d="m 3645.53,16300 -236.95,-237 c 28.45,-21.8 63.95,-34.9 102.59,-34.9 93.56,0 169.31,75.7 169.31,169.2 0,38.7 -13.06,74.2 -34.95,102.7" /></g><g
           transform="scale(1.84756)"
           id="g598"><path
             id="path600"
             style="fill:#58c59d;fill-opacity:1;fill-rule:nonzero;stroke:none"
             d="m 3219.38,15971.6 c -39.2,-39.1 -98.14,-46.3 -144.67,-21.5 30.65,0.6 69.61,19.5 102.8,52.7 l 153.19,153.1 -100.77,100.8 -153.19,-153.2 c -33.18,-33.1 -51.97,-72.3 -52.63,-102.8 -24.75,46.4 -17.62,105.5 21.58,144.7 v 0 l 147.85,147.8 -6.84,6.8 -159.48,-159.4 v 0 c -51.79,-51.8 -51.79,-135.7 0,-187.4 51.78,-51.8 135.67,-51.8 187.34,0 l 159.48,159.4 -6.81,6.9 -147.85,-147.9" /></g><g
           transform="scale(1.8715)"
           id="g602"><path
             id="path604"
             style="fill:#fce17b;fill-opacity:1;fill-rule:nonzero;stroke:none"
             d="m 3303.27,16248.9 -157.34,-157.4 6.76,-6.7 145.95,145.9 c 38.58,38.7 96.84,45.8 142.8,21.3 -30.23,-0.6 -68.71,-19.2 -101.49,-52 l -151.34,-151.2 99.48,-99.5 151.23,151.2 v 0 c 32.9,32.8 51.46,71.3 52.07,101.5 24.47,-45.9 17.39,-104.1 -21.28,-142.8 v 0 l -145.96,-146 6.73,-6.7 157.46,157.4 v 0 c 51.11,51.1 51.11,133.9 0,185 -51.11,51.1 -133.95,51.1 -185.07,0" /></g><g
           transform="scale(1.8688)"
           id="g606"><path
             id="path608"
             style="fill:#ffffff;fill-opacity:1;fill-rule:nonzero;stroke:none"
             d="m 3344.78,16223.4 c 32.83,32.9 71.36,51.5 101.63,52.1 -46.01,24.5 -104.36,17.4 -143,-21.3 l -146.16,-146.2 35.97,-36 151.56,151.4" /></g><g
           transform="scale(1.84679)"
           id="g610"><path
             id="path612"
             style="fill:#b2e094;fill-opacity:1;fill-rule:nonzero;stroke:none"
             d="m 3046.97,16152.1 c -39.22,-39.2 -46.36,-98.2 -21.6,-144.7 0.66,30.5 19.46,69.7 52.65,102.9 l 153.26,153.2 -36.4,36.5 -147.91,-147.9 v 0" /></g><g
           transform="scale(1.83123)"
           id="g614"><path
             id="path616"
             style="fill:#36968b;fill-opacity:1;fill-rule:nonzero;stroke:none"
             d="m 3102.12,16092.3 c 46.96,-25 106.42,-17.8 145.97,21.8 l 149.16,149.1 -36.85,36.8 -154.56,-154.5 c -33.48,-33.5 -72.79,-52.6 -103.72,-53.2" /></g><g
           transform="scale(1.86025)"
           id="g618"><path
             id="path620"
             style="fill:#fbd34b;fill-opacity:1;fill-rule:nonzero;stroke:none"
             d="m 3491.1,16156.3 v 0 c 38.91,39 46.03,97.5 21.41,143.7 -0.62,-30.3 -19.28,-69.1 -52.38,-102.1 v 0 l -152.15,-152.2 36.28,-36.2 146.84,146.8" /></g><g
           transform="scale(1.82116)"
           id="g622"><path
             id="path624"
             style="fill:#58c59d;fill-opacity:1;fill-rule:nonzero;stroke:none"
             d="m 3807.45,16284.7 c 56.19,-1.4 102.64,-39.7 116.96,-91.3 -21.91,22.1 -62.98,37.6 -110.58,38.8 l -219.73,5.6 -3.7,-144.5 219.73,-5.6 c 47.6,-1.2 89.46,12.3 112.37,33.1 -16.83,-50.7 -65.26,-86.6 -121.46,-85.2 v 0 l -212,5.4 -0.26,-9.7 228.7,-5.9 v 0 c 74.23,-2 135.94,56.7 137.79,130.9 1.91,74.3 -56.72,136 -130.88,137.8 l -228.71,5.9 -0.24,-9.8 212.01,-5.5" /></g><g
           transform="scale(1.82203)"
           id="g626"><path
             id="path628"
             style="fill:#fce17b;fill-opacity:1;fill-rule:nonzero;stroke:none"
             d="m 3358.53,16029.4 228.53,-5.8 0.27,9.8 -211.98,5.4 c -56.1,1.3 -102.57,39.7 -116.88,91.3 21.87,-22.1 62.92,-37.6 110.52,-38.8 l 219.7,-5.7 3.69,144.5 -219.63,5.6 v 0 c -47.66,1.3 -89.5,-12.2 -112.4,-33.1 16.9,50.7 65.25,86.7 121.4,85.2 v 0 l 211.98,-5.4 0.23,9.8 -228.6,5.9 v 0 c -74.21,1.9 -135.87,-56.7 -137.76,-130.9 -1.91,-74.2 56.71,-135.9 130.93,-137.8" /></g><g
           transform="scale(1.80304)"
           id="g630"><path
             id="path632"
             style="fill:#ffffff;fill-opacity:1;fill-rule:nonzero;stroke:none"
             d="m 3404.48,16260.8 c -48.1,1.3 -89.58,16.9 -111.68,39.2 14.45,-52.1 61.41,-90.9 118.11,-92.2 l 214.21,-5.5 1.37,52.8 -222.01,5.7" /></g><g
           transform="scale(1.80114)"
           id="g634"><path
             id="path636"
             style="fill:#b2e094;fill-opacity:1;fill-rule:nonzero;stroke:none"
             d="m 3843.29,16213.8 c 56.82,-1.4 105.78,35 122.8,86.2 -23.16,-21.1 -65.48,-34.8 -113.61,-33.5 l -222.17,5.7 -1.38,-52.9 214.36,-5.5 v 0" /></g><g
           transform="scale(1.82007)"
           id="g638"><path
             id="path640"
             style="fill:#36968b;fill-opacity:1;fill-rule:nonzero;stroke:none"
             d="m 3926.76,16203.1 c -14.33,51.6 -60.8,90 -117.02,91.4 l -212.14,5.5 -1.34,-52.4 219.86,-5.6 c 47.63,-1.2 88.73,-16.8 110.64,-38.9" /></g><g
           transform="scale(1.82083)"
           id="g642"><path
             id="path644"
             style="fill:#fbd34b;fill-opacity:1;fill-rule:nonzero;stroke:none"
             d="m 3383.97,16298.5 v 0 c -56.19,1.5 -104.57,-34.5 -121.48,-85.2 22.92,20.9 64.78,34.4 112.48,33 v 0 l 219.77,-5.6 1.35,52.4 -212.12,5.4" /></g><g
           transform="scale(1.90606)"
           id="g646"><path
             id="path648"
             style="fill:#eeb940;fill-opacity:1;fill-rule:nonzero;stroke:none"
             d="m 4794.91,15982.7 c 4.83,22.6 -29.57,47.6 -57.63,43.6 v 0 h -0.09 c -29.54,-3.6 -67.71,13.4 -84.9,37.7 l -163.04,199.8 c -17.11,24.3 -8.14,36.2 19.92,26.4 l 236.96,-101.7 c 28.14,-9.7 54.96,-41.8 59.62,-71.2 v 0 h 0.03 c 3.93,-28.1 32.49,-56.2 57.84,-43.4 48.7,24.5 108.22,24.6 154.52,-10.3 l 531.15,-400.2 c 23.77,-18 28.54,-52.1 10.65,-75.8 l -105.66,-140.3 c -17.89,-23.8 -51.99,-28.5 -75.81,-10.6 l -531.13,400.3 c -46.31,34.9 -63.81,92.3 -52.43,145.7" /></g><g
           transform="scale(1.90293)"
           id="g650"><path
             id="path652"
             style="fill:#ffffff;fill-opacity:1;fill-rule:nonzero;stroke:none"
             d="m 4742,16186.3 -212.45,113.7 c 2.63,-0.5 5.45,-1.2 8.64,-2.4 l 208.58,-91.8 c 23.92,-8.3 46.73,-35.6 50.68,-60.5 l 2.25,-14.2 c -10.91,21 -35.29,44.7 -57.7,55.2" /></g><g
           transform="scale(1.90093)"
           id="g654"><path
             id="path656"
             style="fill:#e19839;fill-opacity:1;fill-rule:nonzero;stroke:none"
             d="m 4671.9,16116.9 -145.9,175.4 c -1.93,2.7 -3.42,5.3 -4.59,7.7 l 167.93,-173.2 c 16.37,-18.6 45.93,-35.5 69.09,-40.2 l -14.3,-1.8 c -25.11,-3.1 -57.62,11.4 -72.23,32.1" /></g><g
           transform="scale(1.8799)"
           id="g658"><path
             id="path660"
             style="fill:#ffffff;fill-opacity:1;fill-rule:nonzero;stroke:none"
             d="m 5566.79,15832.4 -523.95,394.9 v 0 c -0.08,0.1 -0.23,0.2 -0.37,0.3 -31.97,24.1 -74.11,41.7 -107.5,45.3 41.22,27.1 96.71,27 138.35,-4.4 0.12,-0.1 0.23,-0.3 0.35,-0.3 v 0 l 523.97,-394.9 c 24.04,-18 28.88,-52.7 10.69,-76.8 l -16.65,-22.1 c 10.38,13.7 -0.8,39.9 -24.89,58" /></g><g
           transform="scale(1.86934)"
           id="g662"><path
             id="path664"
             style="fill:#e19839;fill-opacity:1;fill-rule:nonzero;stroke:none"
             d="m 4956.59,16167.5 c -41.91,31.5 -57.4,85.1 -42.6,132.5 12.71,-31.3 41.44,-67.1 73.6,-91.4 0.12,-0.1 0.29,-0.2 0.37,-0.3 v 0 l 526.94,-397 c 24.18,-18.3 52.58,-21.8 63.02,-7.9 l -16.8,-22.4 c -18.3,-24.2 -53.07,-29.1 -77.25,-10.9 l -526.9,397.1 v 0 c -0.12,0.1 -0.24,0.2 -0.38,0.3" /></g><g
           transform="scale(1.88138)"
           id="g666"><path
             id="path668"
             style="fill:#e19839;fill-opacity:1;fill-rule:nonzero;stroke:none"
             d="m 4825.91,16247 c 9.6,5.7 18.25,13.2 25.4,22.7 7.03,9.3 11.88,19.6 14.69,30.3 9.62,-14.3 25.13,-26.9 39.6,-29.6 -8.48,-6.9 -16.28,-15 -23.21,-24.1 -7.03,-9.4 -12.73,-19.3 -17.1,-29.6 -6.51,11.9 -23.02,24.5 -39.38,30.3" /></g><g
           transform="scale(1.88986)"
           id="g670"><path
             id="path672"
             style="fill:#58c59d;fill-opacity:1;fill-rule:nonzero;stroke:none"
             d="m 3993.18,16174.4 h -1171.1 v 125.6 h 1171.1 v -125.6" /></g><g
           transform="scale(1.88986)"
           id="g674"><path
             id="path676"
             style="fill:#58c59d;fill-opacity:1;fill-rule:nonzero;stroke:none"
             d="m 4126.09,16174.4 h 125.61 v 125.6 h -125.61 v -125.6" /></g><g
           transform="scale(1.78175)"
           id="g678"><path
             id="path680"
             style="fill:#58c59d;fill-opacity:1;fill-rule:nonzero;stroke:none"
             d="M 4235.45,16166.8 H 2993.3 v 133.2 h 1242.15 v -133.2" /></g><g
           transform="scale(1.78175)"
           id="g682"><path
             id="path684"
             style="fill:#58c59d;fill-opacity:1;fill-rule:nonzero;stroke:none"
             d="m 4376.42,16166.8 h 133.24 v 133.2 h -133.24 v -133.2" /></g><g
           transform="scale(1.78175)"
           id="g686"><path
             id="path688"
             style="fill:#58c59d;fill-opacity:1;fill-rule:nonzero;stroke:none"
             d="M 5939.03,16166.8 H 4696.89 v 133.2 h 1242.14 v -133.2" /></g><g
           transform="scale(1.78175)"
           id="g690"><path
             id="path692"
             style="fill:#58c59d;fill-opacity:1;fill-rule:nonzero;stroke:none"
             d="m 6080.02,16166.8 h 133.24 v 133.2 h -133.24 v -133.2" /></g><g
           transform="scale(1.67796)"
           id="g694"><path
             id="path696"
             style="fill:#58c59d;fill-opacity:1;fill-rule:nonzero;stroke:none"
             d="M 4497.44,16158.5 H 3178.46 v 141.5 h 1318.98 v -141.5" /></g><g
           transform="scale(1.67796)"
           id="g698"><path
             id="path700"
             style="fill:#58c59d;fill-opacity:1;fill-rule:nonzero;stroke:none"
             d="m 4647.13,16158.5 h 141.47 v 141.5 h -141.47 v -141.5" /></g><g
           transform="scale(1.84774)"
           id="g702"><path
             id="path704"
             style="fill:#eeb940;fill-opacity:1;fill-rule:nonzero;stroke:none"
             d="m 4941.7,16094.2 c -2.76,23.7 -44.68,36.7 -70.78,23.5 v 0 h -0.1 c -27.65,-13.3 -70.55,-9.4 -95.42,8.6 l -225.53,141 c -24.79,18.1 -19.98,32.7 10.7,32.5 l 265.19,-20.7 c 30.68,-0.2 67.49,-22.6 81.85,-49.8 h 0.03 0.04 c 13.15,-26.1 50.35,-44.1 70.87,-23.2 39.4,40.2 97.5,60 154.33,41.3 l 651.59,-214.6 c 29.22,-9.6 45.19,-41.4 35.61,-70.6 l -56.67,-172 c -9.63,-29.1 -41.34,-45.1 -70.52,-35.5 l -651.62,214.6 c -56.82,18.7 -92.96,69 -99.57,124.9" /></g><g
           transform="scale(1.84638)"
           id="g706"><path
             id="path708"
             style="fill:#ffffff;fill-opacity:1;fill-rule:nonzero;stroke:none"
             d="m 4827.19,16258.9 -244.99,40.5 c 2.71,0.4 5.72,0.6 9.2,0.5 l 233.97,-20.4 c 26.09,-0.2 57.41,-19.2 69.57,-42.3 l 6.88,-13.1 c -17.6,16.9 -49.27,31.9 -74.63,34.8" /></g><g
           transform="scale(1.84394)"
           id="g710"><path
             id="path712"
             style="fill:#e19839;fill-opacity:1;fill-rule:nonzero;stroke:none"
             d="m 4788.97,16171.2 -200.56,122.8 c -2.81,2.1 -5.1,4.1 -7.06,6 l 221.38,-113.3 c 22.15,-12.7 56.58,-19.5 80.78,-16.4 l -13.35,-6.5 c -23.51,-11.3 -60.02,-8 -81.19,7.4" /></g><g
           transform="scale(1.84107)"
           id="g714"><path
             id="path716"
             style="fill:#ffffff;fill-opacity:1;fill-rule:nonzero;stroke:none"
             d="m 5763.76,16023.9 -636.25,209.6 v 0 c -0.08,0 -0.29,0.1 -0.44,0.1 -38.85,12.9 -85.38,16.1 -118.85,8.6 30.95,39.7 84.64,57.8 135.23,41.1 0.15,0 0.29,-0.1 0.41,-0.1 v 0 l 636.3,-209.6 c 29.23,-9.6 45.25,-41.5 35.64,-70.8 l -8.91,-26.9 c 5.54,16.8 -13.91,38.4 -43.13,48" /></g><g
           transform="scale(1.82569)"
           id="g718"><path
             id="path720"
             style="fill:#e19839;fill-opacity:1;fill-rule:nonzero;stroke:none"
             d="m 5109.37,16185.6 c -51.02,16.8 -83.71,63.6 -84.97,114.4 22.63,-26.2 62.3,-51.4 101.49,-64.4 0.15,0 0.29,0 0.44,-0.1 v 0 l 641.62,-211.3 c 29.46,-9.7 58.17,-3.8 63.75,13.1 l -8.92,-27.3 c -9.75,-29.5 -41.85,-45.7 -71.32,-35.9 l -641.64,211.3 v 0 c -0.12,0.1 -0.28,0.1 -0.45,0.2" /></g><g
           transform="scale(1.83648)"
           id="g722"><path
             id="path724"
             style="fill:#e19839;fill-opacity:1;fill-rule:nonzero;stroke:none"
             d="m 4923.06,16235.4 c 7.45,8.7 13.36,18.9 17.17,30.4 3.72,11.4 5.04,23 4.24,34.2 14.07,-10.7 33.27,-17.8 48.16,-15.6 -5.94,-9.6 -10.83,-19.9 -14.53,-31.1 -3.75,-11.4 -5.97,-22.9 -6.83,-34.4 -10.27,9.5 -30.4,16.2 -48.21,16.5" /></g></g></g></g></svg>
